
<?xml version="1.0" standalone="no"?>
<!DOCTYPE svg PUBLIC "-//W3C//DTD SVG 1.1//EN" "http://www.w3.org/Graphics/SVG/1.1/DTD/svg11.dtd" >
<svg xmlns="http://www.w3.org/2000/svg" xmlns:xlink="http://www.w3.org/1999/xlink" version="1.1">
<metadata>
Created by FontForge 20170924 at Fri Jul  8 16:55:25 2016
 By www-data
Copyright 2016 by Jonas Hecksher, Playtype, e-Types AS. All rights reserved.
</metadata>
<defs>
<font id="ItalianPlateNo1-Light" horiz-adv-x="810" >
  <font-face 
    font-family="Italian Plate No1"
    font-weight="300"
    font-stretch="normal"
    units-per-em="1000"
    panose-1="2 11 3 3 3 0 0 2 0 4"
    ascent="750"
    descent="-250"
    x-height="490"
    cap-height="680"
    bbox="-166.594 -198 987 879"
    underline-thickness="50"
    underline-position="-75"
    stemh="60"
    stemv="66"
    unicode-range="U+000D-1F169"
  />
<missing-glyph horiz-adv-x="507" 
d="M488 0h-470c-10 0 -18 9 -18 19v642c0 10 8 19 18 19h470c10 0 19 -9 19 -19v-642c0 -10 -9 -19 -19 -19zM384 300v284c0 5 3 8 7 8h60c4 0 8 3 8 8v12c0 5 -4 8 -8 8h-166c-4 0 -8 -3 -8 -8v-12c0 -5 4 -8 8 -8h59c5 0 8 -3 8 -8v-284c0 -5 4 -8 8 -8h17c3 0 7 3 7 8z
M107 300v129c0 4 3 8 8 8h40c50 0 91 37 91 93c0 55 -34 90 -91 90h-72c-4 0 -7 -4 -7 -8v-312c0 -5 3 -8 7 -8h17c3 0 7 3 7 8zM155 465h-40c-5 0 -8 4 -8 7v112c0 4 3 8 8 8h40c38 0 58 -27 58 -63c0 -35 -22 -64 -58 -64z" />
    <glyph glyph-name="f_b" unicode="fb" horiz-adv-x="784" 
d="M142 0h-31c-8 0 -15 7 -15 16v419h-70c-9 0 -17 8 -17 17v21c0 9 8 17 17 17h70v50c0 99 42 140 141 140h32c9 0 16 -7 16 -15v-26c0 -8 -7 -15 -16 -15h-24c-65 0 -87 -28 -87 -93v-41h109c9 0 16 -8 16 -17v-21c0 -9 -7 -17 -16 -17h-109v-419c0 -9 -8 -16 -16 -16z
M409 0h-30c-9 0 -15 7 -15 16v648c0 8 6 16 15 16h30c9 0 16 -8 16 -16v-230c23 33 64 64 132 64c96 0 157 -61 157 -171v-163c0 -110 -72 -172 -166 -172c-63 0 -101 28 -124 60v-36c0 -9 -7 -16 -15 -16zM653 163v163c0 75 -44 115 -110 115c-68 0 -118 -43 -118 -122
v-151c0 -78 49 -120 116 -120s112 41 112 115z" />
    <glyph glyph-name="f_f" unicode="ff" horiz-adv-x="564" 
d="M364 435h-206v-419c0 -9 -8 -16 -16 -16h-31c-8 0 -15 7 -15 16v419h-70c-9 0 -17 8 -17 17v21c0 9 8 17 17 17h70v50c0 99 42 140 141 140h32c9 0 16 -7 16 -15v-26c0 -8 -7 -15 -16 -15h-24c-65 0 -87 -28 -87 -93v-41h206v50c0 99 42 140 141 140h32c9 0 16 -7 16 -15
v-26c0 -8 -7 -15 -16 -15h-24c-65 0 -87 -28 -87 -93v-41h109c9 0 16 -8 16 -17v-21c0 -9 -7 -17 -16 -17h-109v-419c0 -9 -8 -16 -16 -16h-31c-8 0 -15 7 -15 16v419z" />
    <glyph glyph-name="f_h" unicode="fh" horiz-adv-x="772" 
d="M142 0h-31c-8 0 -15 7 -15 16v419h-70c-9 0 -17 8 -17 17v21c0 9 8 17 17 17h70v50c0 99 42 140 141 140h32c9 0 16 -7 16 -15v-26c0 -8 -7 -15 -16 -15h-24c-65 0 -87 -28 -87 -93v-41h109c9 0 16 -8 16 -17v-21c0 -9 -7 -17 -16 -17h-109v-419c0 -9 -8 -16 -16 -16z
M686 0h-30c-9 0 -15 7 -15 16v313c0 71 -36 112 -102 112c-68 0 -114 -46 -114 -112v-313c0 -9 -7 -16 -16 -16h-30c-9 0 -15 7 -15 16v648c0 8 6 16 15 16h30c9 0 16 -8 16 -16v-232c21 34 61 66 127 66c97 0 150 -63 150 -163v-319c0 -9 -7 -16 -16 -16z" />
    <glyph glyph-name="fi" unicode="fi" horiz-adv-x="499" 
d="M96 490v50c0 89 61 148 158 148c34 0 89 -7 116 -15c7 -2 14 -7 14 -18v-26c0 -11 -9 -16 -16 -15c-17 3 -57 18 -111 18c-73 0 -99 -36 -99 -101v-41h252c9 0 16 -8 16 -16v-458c0 -9 -7 -16 -16 -16h-30c-9 0 -16 7 -16 16v419h-206v-419c0 -9 -8 -16 -16 -16h-31
c-8 0 -15 7 -15 16v419h-70c-9 0 -17 8 -17 17v21c0 9 8 17 17 17h70z" />
    <glyph glyph-name="f_j" unicode="fj" horiz-adv-x="498" 
d="M364 435h-206v-419c0 -9 -8 -16 -16 -16h-31c-8 0 -15 7 -15 16v419h-70c-9 0 -17 8 -17 17v21c0 9 8 17 17 17h70v50c0 89 61 148 158 148c34 0 89 -7 116 -15c7 -2 14 -7 14 -18v-26c0 -11 -9 -16 -16 -15c-17 3 -57 18 -111 18c-73 0 -99 -36 -99 -101v-41h252
c8 0 15 -8 15 -16v-515c0 -99 -37 -143 -137 -143c-8 0 -16 6 -16 15v26c0 9 7 16 16 16c54 0 76 23 76 90v472z" />
    <glyph glyph-name="f_k" unicode="fk" horiz-adv-x="713" 
d="M142 0h-31c-8 0 -15 7 -15 16v419h-70c-9 0 -17 8 -17 17v21c0 9 8 17 17 17h70v50c0 99 42 140 141 140h32c9 0 16 -7 16 -15v-26c0 -8 -7 -15 -16 -15h-24c-65 0 -87 -28 -87 -93v-41h109c9 0 16 -8 16 -17v-21c0 -9 -7 -17 -16 -17h-109v-419c0 -9 -8 -16 -16 -16z
M429 248l197 234c5 6 10 8 14 8h33c13 0 20 -16 11 -26l-136 -156c-3 -4 -3 -7 -1 -11l163 -275c6 -10 1 -22 -11 -22h-39c-8 0 -12 3 -16 10l-138 240c-3 6 -8 5 -13 0l-64 -71c-3 -3 -4 -7 -4 -12v-151c0 -9 -7 -16 -16 -16h-30c-9 0 -15 7 -15 16v648c0 8 6 16 15 16h30
c9 0 16 -8 16 -16v-416c0 -4 1 -4 4 0z" />
    <glyph glyph-name="fl" unicode="fl" horiz-adv-x="498" 
d="M410 0h-31c-8 0 -15 7 -15 16v648c0 8 7 16 15 16h31c8 0 15 -8 15 -16v-648c0 -9 -7 -16 -15 -16zM142 0h-31c-8 0 -15 7 -15 16v419h-70c-9 0 -17 8 -17 17v21c0 9 8 17 17 17h70v50c0 99 42 140 141 140h32c9 0 16 -7 16 -15v-26c0 -8 -7 -15 -16 -15h-24
c-65 0 -87 -28 -87 -93v-41h109c9 0 16 -8 16 -17v-21c0 -9 -7 -17 -16 -17h-109v-419c0 -9 -8 -16 -16 -16z" />
    <glyph glyph-name="f_t" unicode="ft" horiz-adv-x="563" 
d="M364 435h-206v-419c0 -9 -8 -16 -16 -16h-31c-8 0 -15 7 -15 16v419h-70c-9 0 -17 8 -17 17v21c0 9 8 17 17 17h70v50c0 99 42 140 141 140h32c9 0 16 -7 16 -15v-26c0 -8 -7 -15 -16 -15h-24c-65 0 -87 -28 -87 -93v-41h206v108c0 8 6 16 15 16h30c9 0 16 -8 16 -16
v-108h109c9 0 17 -8 17 -17v-22c0 -9 -8 -16 -17 -16h-109v-288c0 -65 23 -92 88 -92h23c9 0 17 -8 17 -17v-22c0 -9 -8 -16 -17 -16h-31c-100 0 -141 40 -141 139v296z" />
    <glyph glyph-name="f_f_b" unicode="ffb" horiz-adv-x="1052" 
d="M677 0h-30c-9 0 -15 7 -15 16v648c0 8 6 16 15 16h30c9 0 16 -8 16 -16v-230c23 33 64 64 132 64c96 0 157 -61 157 -171v-163c0 -110 -72 -172 -166 -172c-63 0 -101 28 -124 60v-36c0 -9 -7 -16 -15 -16zM921 163v163c0 75 -44 115 -110 115c-68 0 -118 -43 -118 -122
v-151c0 -78 49 -120 116 -120s112 41 112 115zM364 435h-206v-419c0 -9 -8 -16 -16 -16h-31c-8 0 -15 7 -15 16v419h-70c-9 0 -17 8 -17 17v21c0 9 8 17 17 17h70v50c0 99 42 140 141 140h32c9 0 16 -7 16 -15v-26c0 -8 -7 -15 -16 -15h-24c-65 0 -87 -28 -87 -93v-41h206
v50c0 99 42 140 141 140h32c9 0 16 -7 16 -15v-26c0 -8 -7 -15 -16 -15h-24c-65 0 -87 -28 -87 -93v-41h109c9 0 16 -8 16 -17v-21c0 -9 -7 -17 -16 -17h-109v-419c0 -9 -8 -16 -16 -16h-31c-8 0 -15 7 -15 16v419z" />
    <glyph glyph-name="f_f_h" unicode="ffh" horiz-adv-x="1040" 
d="M954 0h-30c-9 0 -15 7 -15 16v313c0 71 -36 112 -102 112c-68 0 -114 -46 -114 -112v-313c0 -9 -7 -16 -16 -16h-30c-9 0 -15 7 -15 16v648c0 8 6 16 15 16h30c9 0 16 -8 16 -16v-232c21 34 61 66 127 66c97 0 150 -63 150 -163v-319c0 -9 -7 -16 -16 -16zM364 435h-206
v-419c0 -9 -8 -16 -16 -16h-31c-8 0 -15 7 -15 16v419h-70c-9 0 -17 8 -17 17v21c0 9 8 17 17 17h70v50c0 99 42 140 141 140h32c9 0 16 -7 16 -15v-26c0 -8 -7 -15 -16 -15h-24c-65 0 -87 -28 -87 -93v-41h206v50c0 99 42 140 141 140h32c9 0 16 -7 16 -15v-26
c0 -8 -7 -15 -16 -15h-24c-65 0 -87 -28 -87 -93v-41h109c9 0 16 -8 16 -17v-21c0 -9 -7 -17 -16 -17h-109v-419c0 -9 -8 -16 -16 -16h-31c-8 0 -15 7 -15 16v419z" />
    <glyph glyph-name="f_f_i" unicode="ffi" horiz-adv-x="767" 
d="M364 435h-206v-419c0 -9 -8 -16 -16 -16h-31c-8 0 -15 7 -15 16v419h-70c-9 0 -17 8 -17 17v21c0 9 8 17 17 17h70v50c0 99 42 140 141 140h32c9 0 16 -7 16 -15v-26c0 -8 -7 -15 -16 -15h-24c-65 0 -87 -28 -87 -93v-41h206v50c0 89 61 148 158 148c34 0 89 -7 116 -15
c7 -2 14 -7 14 -18v-26c0 -11 -9 -16 -16 -15c-17 3 -57 18 -111 18c-73 0 -99 -36 -99 -101v-41h252c9 0 16 -8 16 -16v-458c0 -9 -7 -16 -16 -16h-30c-9 0 -16 7 -16 16v419h-206v-419c0 -9 -8 -16 -16 -16h-31c-8 0 -15 7 -15 16v419z" />
    <glyph glyph-name="f_f_j" unicode="ffj" horiz-adv-x="766" 
d="M632 435h-206v-419c0 -9 -8 -16 -16 -16h-31c-8 0 -15 7 -15 16v419h-206v-419c0 -9 -8 -16 -16 -16h-31c-8 0 -15 7 -15 16v419h-70c-9 0 -17 8 -17 17v21c0 9 8 17 17 17h70v50c0 99 42 140 141 140h32c9 0 16 -7 16 -15v-26c0 -8 -7 -15 -16 -15h-24
c-65 0 -87 -28 -87 -93v-41h206v50c0 89 61 148 158 148c34 0 89 -7 116 -15c7 -2 14 -7 14 -18v-26c0 -11 -9 -16 -16 -15c-17 3 -57 18 -111 18c-73 0 -99 -36 -99 -101v-41h252c8 0 15 -8 15 -16v-515c0 -99 -37 -143 -137 -143c-8 0 -16 6 -16 15v26c0 9 7 16 16 16
c54 0 76 23 76 90v472z" />
    <glyph glyph-name="f_f_k" unicode="ffk" horiz-adv-x="980" 
d="M364 435h-206v-419c0 -9 -8 -16 -16 -16h-31c-8 0 -15 7 -15 16v419h-70c-9 0 -17 8 -17 17v21c0 9 8 17 17 17h70v50c0 99 42 140 141 140h32c9 0 16 -7 16 -15v-26c0 -8 -7 -15 -16 -15h-24c-65 0 -87 -28 -87 -93v-41h206v50c0 99 42 140 141 140h32c9 0 16 -7 16 -15
v-26c0 -8 -7 -15 -16 -15h-24c-65 0 -87 -28 -87 -93v-41h109c9 0 16 -8 16 -17v-21c0 -9 -7 -17 -16 -17h-109v-419c0 -9 -8 -16 -16 -16h-31c-8 0 -15 7 -15 16v419zM696 248l197 234c5 6 10 8 14 8h33c13 0 20 -16 11 -26l-136 -156c-3 -4 -3 -7 -1 -11l163 -275
c6 -10 1 -22 -11 -22h-39c-8 0 -12 3 -16 10l-138 240c-3 6 -8 5 -13 0l-64 -71c-3 -3 -4 -7 -4 -12v-151c0 -9 -7 -16 -16 -16h-30c-9 0 -15 7 -15 16v648c0 8 6 16 15 16h30c9 0 16 -8 16 -16v-416c0 -4 1 -4 4 0z" />
    <glyph glyph-name="f_f_l" unicode="ffl" horiz-adv-x="766" 
d="M678 0h-31c-8 0 -15 7 -15 16v648c0 8 7 16 15 16h31c8 0 15 -8 15 -16v-648c0 -9 -7 -16 -15 -16zM364 435h-206v-419c0 -9 -8 -16 -16 -16h-31c-8 0 -15 7 -15 16v419h-70c-9 0 -17 8 -17 17v21c0 9 8 17 17 17h70v50c0 99 42 140 141 140h32c9 0 16 -7 16 -15v-26
c0 -8 -7 -15 -16 -15h-24c-65 0 -87 -28 -87 -93v-41h206v50c0 99 42 140 141 140h32c9 0 16 -7 16 -15v-26c0 -8 -7 -15 -16 -15h-24c-65 0 -87 -28 -87 -93v-41h109c9 0 16 -8 16 -17v-21c0 -9 -7 -17 -16 -17h-109v-419c0 -9 -8 -16 -16 -16h-31c-8 0 -15 7 -15 16v419z
" />
    <glyph glyph-name="f_f_t" unicode="fft" horiz-adv-x="831" 
d="M364 490v50c0 99 42 140 141 140h32c9 0 16 -7 16 -15v-26c0 -8 -7 -15 -16 -15h-24c-65 0 -87 -28 -87 -93v-41h206v108c0 8 6 16 15 16h30c9 0 16 -8 16 -16v-108h109c9 0 17 -8 17 -17v-22c0 -9 -8 -16 -17 -16h-109v-288c0 -65 23 -92 88 -92h23c9 0 17 -8 17 -17
v-22c0 -9 -8 -16 -17 -16h-31c-100 0 -141 40 -141 139v296h-206v-419c0 -9 -8 -16 -16 -16h-31c-8 0 -15 7 -15 16v419h-206v-419c0 -9 -8 -16 -16 -16h-31c-8 0 -15 7 -15 16v419h-70c-9 0 -17 8 -17 17v21c0 9 8 17 17 17h70v50c0 99 42 140 141 140h32c9 0 16 -7 16 -15
v-26c0 -8 -7 -15 -16 -15h-24c-65 0 -87 -28 -87 -93v-41h206z" />
    <glyph glyph-name=".notdef" horiz-adv-x="507" 
d="M488 0h-470c-10 0 -18 9 -18 19v642c0 10 8 19 18 19h470c10 0 19 -9 19 -19v-642c0 -10 -9 -19 -19 -19zM384 300v284c0 5 3 8 7 8h60c4 0 8 3 8 8v12c0 5 -4 8 -8 8h-166c-4 0 -8 -3 -8 -8v-12c0 -5 4 -8 8 -8h59c5 0 8 -3 8 -8v-284c0 -5 4 -8 8 -8h17c3 0 7 3 7 8z
M107 300v129c0 4 3 8 8 8h40c50 0 91 37 91 93c0 55 -34 90 -91 90h-72c-4 0 -7 -4 -7 -8v-312c0 -5 3 -8 7 -8h17c3 0 7 3 7 8zM155 465h-40c-5 0 -8 4 -8 7v112c0 4 3 8 8 8h40c38 0 58 -27 58 -63c0 -35 -22 -64 -58 -64z" />
    <glyph glyph-name=".null" horiz-adv-x="0" 
 />
    <glyph glyph-name="CR" unicode="&#xd;" horiz-adv-x="0" 
 />
    <glyph glyph-name="space" unicode=" " horiz-adv-x="180" 
 />
    <glyph glyph-name="uni00A0" unicode="&#xa0;" horiz-adv-x="180" 
 />
    <glyph glyph-name="A" unicode="A" horiz-adv-x="394" 
d="M279 204l-79 350c-1 4 -4 4 -5 0l-81 -350c-1 -6 2 -10 7 -10h150c6 0 10 3 8 10zM372 0h-37c-7 0 -13 4 -15 12l-25 111c-2 9 -8 14 -18 14h-165c-9 0 -14 -4 -16 -13l-25 -111c-2 -10 -9 -13 -15 -13h-35c-10 0 -17 6 -14 18l158 650c2 8 7 12 15 12h39
c8 0 13 -5 15 -13l152 -648c3 -12 -3 -19 -14 -19z" />
    <glyph glyph-name="B" unicode="B" horiz-adv-x="460" 
d="M230 0h-138c-8 0 -15 7 -15 16v648c0 8 7 16 15 16h140c107 0 192 -67 192 -179c0 -73 -40 -121 -83 -148c-3 -2 -4 -5 0 -7c52 -25 91 -81 91 -153c0 -108 -83 -193 -202 -193zM159 372h71c83 0 128 54 128 125c0 79 -53 125 -135 125h-64c-9 0 -16 -8 -16 -16v-218
c0 -9 7 -16 16 -16zM159 58h67c79 0 139 57 139 134c0 62 -43 123 -135 123h-71c-9 0 -16 -8 -16 -16v-226c0 -8 7 -15 16 -15z" />
    <glyph glyph-name="C" unicode="C" horiz-adv-x="450" 
d="M372 189h34c10 0 16 -9 16 -18c0 -108 -82 -179 -183 -179c-98 0 -181 72 -181 178v339c0 103 84 179 183 179c101 0 182 -70 182 -178c0 -9 -6 -18 -16 -18h-34c-8 0 -15 8 -15 16c0 72 -52 120 -119 120c-63 0 -115 -50 -115 -117v-308c0 -80 29 -151 116 -151
c64 0 117 49 117 121c0 8 7 16 15 16z" />
    <glyph glyph-name="D" unicode="D" horiz-adv-x="494" 
d="M253 0h-161c-8 0 -15 7 -15 16v648c0 8 7 16 15 16h161c102 0 182 -71 182 -179v-322c0 -110 -78 -179 -182 -179zM370 173v330c0 68 -53 120 -118 120h-93c-9 0 -16 -8 -16 -17v-534c0 -8 7 -15 16 -15h93c65 0 118 47 118 116z" />
    <glyph glyph-name="E" unicode="E" horiz-adv-x="405" 
d="M372 0h-280c-8 0 -15 7 -15 16v648c0 8 7 16 15 16h280c9 0 17 -8 17 -17v-25c0 -9 -8 -16 -17 -16h-213c-9 0 -16 -8 -16 -16v-214c0 -10 5 -16 16 -16h114c9 0 17 -8 17 -17v-25c0 -9 -8 -16 -17 -16h-114c-9 0 -16 -8 -16 -16v-228c0 -9 5 -16 16 -16h213
c9 0 17 -8 17 -17v-25c0 -9 -8 -16 -17 -16z" />
    <glyph glyph-name="F" unicode="F" horiz-adv-x="410" 
d="M126 0h-34c-8 0 -15 7 -15 16v648c0 8 7 16 15 16h285c9 0 16 -8 16 -17v-25c0 -9 -7 -16 -16 -16h-218c-9 0 -16 -8 -16 -16v-214c0 -8 7 -16 16 -16h150c9 0 16 -8 16 -17v-25c0 -9 -7 -16 -16 -16h-150c-9 0 -16 -8 -16 -16v-286c0 -9 -8 -16 -17 -16z" />
    <glyph glyph-name="G" unicode="G" horiz-adv-x="486" 
d="M365 168v97c0 8 -4 13 -11 13h-91c-9 0 -16 7 -16 16v25c0 9 7 17 16 17h151c9 0 15 -8 15 -16v-150c0 -109 -88 -178 -187 -178c-97 0 -184 70 -184 178v339c0 103 87 179 186 179c105 0 185 -70 185 -180c0 -8 -7 -16 -15 -16h-34c-9 0 -15 9 -15 17
c0 71 -58 119 -122 119c-63 0 -119 -49 -119 -117v-312c0 -80 35 -147 119 -147c64 0 122 49 122 116z" />
    <glyph glyph-name="H" unicode="H" horiz-adv-x="508" 
d="M414 0h-32c-9 0 -16 7 -16 16v288c0 12 -7 16 -15 16h-194c-8 0 -15 -8 -15 -16v-288c0 -9 -7 -16 -16 -16h-33c-9 0 -16 7 -16 16v647c0 9 7 17 16 17h33c9 0 16 -8 16 -17v-269c0 -8 7 -16 15 -16h193c8 0 16 8 16 16v269c0 9 7 17 16 17h32c9 0 17 -8 17 -17v-647
c0 -9 -8 -16 -17 -16z" />
    <glyph glyph-name="I" unicode="I" horiz-adv-x="222" 
d="M127 0h-32c-9 0 -16 7 -16 16v647c0 9 7 17 16 17h32c9 0 17 -8 17 -17v-647c0 -9 -8 -16 -17 -16z" />
    <glyph glyph-name="J" unicode="J" horiz-adv-x="414" 
d="M275 175v489c0 8 7 16 15 16h34c9 0 16 -8 16 -16v-486c0 -108 -66 -186 -167 -186c-104 0 -165 71 -165 179v5c0 9 7 16 15 16h34c8 0 16 -7 16 -16v-10c0 -66 37 -114 101 -114c65 0 101 51 101 123z" />
    <glyph glyph-name="K" unicode="K" horiz-adv-x="447" 
d="M436 0h-44c-8 0 -11 3 -17 10l-229 311c-3 4 -4 2 -4 0v-305c0 -9 -7 -16 -16 -16h-34c-8 0 -15 7 -15 16v648c0 8 7 16 15 16h34c9 0 16 -8 16 -16v-292c0 -3 2 -5 5 -1l220 301c4 5 7 8 14 8h38c11 0 18 -14 10 -25l-220 -294c-3 -4 -3 -7 1 -13l237 -324
c8 -11 0 -24 -11 -24z" />
    <glyph glyph-name="L" unicode="L" horiz-adv-x="399" 
d="M371 0h-279c-8 0 -15 7 -15 16v648c0 8 7 16 15 16h34c9 0 17 -8 17 -17v-589c0 -12 4 -16 14 -16h214c9 0 16 -8 16 -17v-25c0 -9 -7 -16 -16 -16z" />
    <glyph glyph-name="M" unicode="M" horiz-adv-x="521" 
d="M429 0h-30c-9 0 -16 7 -16 16v533c0 4 -2 4 -4 0l-110 -218c-4 -8 -12 -8 -16 0l-108 218c-2 4 -5 3 -5 0v-533c0 -9 -7 -16 -16 -16h-31c-9 0 -16 7 -16 16v648c0 8 7 16 15 16h40c9 0 11 -2 15 -10l113 -231c1 -3 3 -3 4 0l116 231c3 7 9 10 14 10h36c8 0 15 -8 15 -16
v-648c0 -9 -7 -16 -16 -16z" />
    <glyph glyph-name="N" unicode="N" horiz-adv-x="504" 
d="M410 0h-41c-6 0 -11 3 -14 10l-212 527c-2 4 -4 4 -4 -1v-520c0 -9 -8 -16 -16 -16h-31c-8 0 -15 7 -15 16v648c0 8 7 16 15 16h44c6 0 12 -2 16 -11l209 -512c1 -3 3 -2 3 0v507c0 8 7 16 15 16h31c8 0 16 -8 16 -16v-648c0 -9 -8 -16 -16 -16z" />
    <glyph glyph-name="O" unicode="O" horiz-adv-x="486" 
d="M427 509v-338c0 -107 -86 -179 -185 -179c-98 0 -184 71 -184 179v338c0 107 87 179 185 179c99 0 184 -71 184 -179zM362 170v339c0 71 -56 119 -119 119c-64 0 -119 -49 -119 -119v-339c0 -69 55 -119 119 -119s119 50 119 119z" />
    <glyph glyph-name="P" unicode="P" horiz-adv-x="447" 
d="M128 0h-34c-9 0 -15 7 -15 16v648c0 8 6 16 15 16h149c118 0 188 -73 188 -186c0 -116 -84 -193 -189 -193h-83c-9 0 -15 -8 -15 -16v-269c0 -9 -8 -16 -16 -16zM159 358h83c75 0 121 61 121 134s-41 130 -121 130h-83c-9 0 -15 -8 -15 -16v-232c0 -8 6 -16 15 -16z" />
    <glyph glyph-name="Q" unicode="Q" horiz-adv-x="486" 
d="M437 -77l-245 73c-78 23 -134 86 -134 175v338c0 107 87 179 185 179c99 0 184 -71 184 -179v-338c0 -69 -37 -119 -85 -149c-9 -5 -6 -12 0 -13l100 -26c9 -2 14 -7 14 -16v-30c0 -10 -9 -17 -19 -14zM362 170v339c0 71 -56 119 -119 119c-64 0 -119 -49 -119 -119v-339
c0 -69 55 -119 119 -119s119 50 119 119z" />
    <glyph glyph-name="R" unicode="R" horiz-adv-x="456" 
d="M159 373h76c69 0 125 45 125 125c0 73 -46 124 -125 124h-76c-9 0 -15 -7 -15 -16v-217c0 -8 6 -16 15 -16zM418 0h-41c-8 0 -12 4 -15 11l-116 293c-3 8 -9 12 -17 12h-70c-9 0 -15 -7 -15 -16v-284c0 -9 -8 -16 -16 -16h-34c-9 0 -15 7 -15 16v648c0 8 6 16 15 16h149
c112 0 186 -73 186 -178c0 -78 -44 -137 -112 -167c-9 -4 -10 -11 -7 -19l121 -294c6 -14 -4 -22 -13 -22z" />
    <glyph glyph-name="S" unicode="S" horiz-adv-x="414" 
d="M362 492h-31c-9 0 -15 8 -15 16c0 78 -50 121 -113 121c-62 0 -105 -39 -105 -97c0 -140 287 -203 287 -372c0 -100 -78 -168 -182 -168c-92 0 -173 55 -173 172c0 10 0 25 15 25h33c8 0 15 -8 15 -16c0 -82 52 -121 114 -121c61 0 111 38 111 106
c0 132 -285 199 -285 369c0 98 78 161 175 161c90 0 170 -53 170 -175c0 -9 -4 -21 -16 -21z" />
    <glyph glyph-name="T" unicode="T" horiz-adv-x="409" 
d="M222 0h-35c-8 0 -16 7 -16 16v590c0 9 -7 16 -16 16h-123c-9 0 -17 7 -17 16v26c0 9 8 16 17 16h344c9 0 17 -7 17 -16v-26c0 -9 -8 -16 -17 -16h-123c-9 0 -16 -7 -16 -16v-590c0 -9 -7 -16 -15 -16z" />
    <glyph glyph-name="U" unicode="U" horiz-adv-x="499" 
d="M359 169v494c0 9 7 17 16 17h33c9 0 16 -8 16 -17v-492c0 -104 -75 -179 -175 -179s-175 75 -175 179v492c0 9 7 17 16 17h33c9 0 16 -8 16 -17v-494c0 -65 45 -117 110 -117c64 0 110 52 110 117z" />
    <glyph glyph-name="V" unicode="V" horiz-adv-x="385" 
d="M207 0h-36c-8 0 -14 6 -16 14l-147 646c-2 9 4 20 14 20h38c8 0 13 -4 15 -14l114 -533c1 -4 5 -4 6 0l118 533c2 9 6 14 14 14h33c10 0 18 -8 15 -21l-152 -646c-2 -9 -8 -13 -16 -13z" />
    <glyph glyph-name="W" unicode="W" horiz-adv-x="627" 
d="M467 0h-37c-8 0 -13 5 -15 14l-100 516c-1 4 -5 4 -6 0l-102 -518c-2 -8 -7 -12 -13 -12h-40c-7 0 -13 5 -15 13l-125 648c-2 9 4 19 14 19h37c7 0 14 -5 16 -14l95 -534c1 -5 4 -5 5 0l104 534c2 8 7 14 15 14h29c8 0 14 -7 15 -14l102 -534c1 -5 4 -5 5 0l97 534
c1 8 7 14 15 14h33c10 0 18 -7 16 -19l-129 -648c-1 -7 -8 -13 -16 -13z" />
    <glyph glyph-name="X" unicode="X" horiz-adv-x="416" 
d="M391 0h-37c-8 0 -13 2 -18 12l-120 244c-10 20 -13 20 -23 0l-118 -245c-4 -8 -10 -11 -16 -11h-36c-10 0 -17 10 -12 21l149 303c8 17 9 25 1 41l-145 293c-5 11 2 22 12 22h38c7 0 12 -4 15 -11l117 -237c11 -21 15 -21 25 0l114 237c4 8 10 11 15 11h34
c11 0 19 -11 14 -21l-144 -294c-9 -18 -10 -26 -1 -43l148 -301c5 -10 0 -21 -12 -21z" />
    <glyph glyph-name="Y" unicode="Y" horiz-adv-x="398" 
d="M214 0h-34c-8 0 -15 7 -15 16v242c0 10 -3 21 -7 31l-147 369c-4 10 3 22 13 22h38c7 0 12 -4 15 -11l118 -307c3 -7 6 -7 9 0l120 307c3 7 9 11 15 11h33c11 0 17 -12 14 -21l-150 -369c-4 -11 -6 -21 -6 -32v-242c0 -9 -8 -16 -16 -16z" />
    <glyph glyph-name="Z" unicode="Z" horiz-adv-x="395" 
d="M357 0h-319c-8 0 -16 6 -16 15v27c0 10 3 18 7 27l261 543c3 7 2 10 -4 10h-242c-9 0 -16 6 -16 15v27c0 8 7 16 16 16h308c9 0 17 -7 17 -16v-23c0 -7 -3 -15 -7 -24l-265 -549c-3 -6 -2 -10 4 -10h256c9 0 16 -7 16 -16v-27c0 -9 -7 -15 -16 -15z" />
    <glyph glyph-name="AE" unicode="&#xc6;" horiz-adv-x="616" 
d="M294 230v376c0 8 -8 16 -16 16h-49c-9 0 -14 -6 -16 -15l-91 -381c-2 -6 2 -11 8 -11h148c8 0 16 7 16 15zM589 0h-280c-9 0 -15 7 -15 16v127c0 8 -8 16 -16 16h-159c-10 0 -14 -5 -16 -14l-32 -132c-3 -10 -9 -13 -15 -13h-35c-10 0 -17 6 -14 18l163 649
c2 8 6 13 16 13h403c9 0 16 -8 16 -17v-25c0 -9 -7 -16 -16 -16h-214c-8 0 -16 -8 -16 -16v-214c0 -9 8 -16 17 -16h114c9 0 16 -8 16 -17v-25c0 -9 -7 -16 -16 -16h-115c-8 0 -16 -8 -16 -16v-228c0 -9 8 -16 17 -16h213c9 0 16 -8 16 -17v-25c0 -9 -7 -16 -16 -16z" />
    <glyph glyph-name="OE" unicode="&#x152;" horiz-adv-x="677" 
d="M646 0h-406c-104 0 -182 69 -182 179v322c0 108 80 179 182 179h405c9 0 17 -8 17 -17v-25c0 -9 -8 -16 -17 -16h-213c-9 0 -16 -8 -16 -16v-214c0 -9 7 -16 16 -16h114c9 0 17 -8 17 -17v-25c0 -9 -8 -16 -17 -16h-114c-9 0 -16 -8 -16 -16v-228c0 -9 7 -16 16 -16h213
c9 0 17 -8 17 -17v-25c0 -9 -8 -16 -16 -16zM350 72v535c0 8 -7 16 -16 16h-93c-65 0 -118 -52 -118 -120v-290c0 -89 30 -156 118 -156h93c9 0 16 7 16 15z" />
    <glyph glyph-name="Lslash" unicode="&#x141;" horiz-adv-x="399" 
d="M371 0h-279c-8 0 -15 7 -15 16v209l-27 -10c-10 -4 -17 0 -20 8l-8 21c-3 8 2 18 9 21l46 18v381c0 8 7 16 15 16h34c9 0 17 -8 17 -17v-355l124 49c9 4 17 -1 20 -8l9 -22c3 -8 -2 -17 -10 -20l-143 -57v-176c0 -9 7 -16 16 -16h212c9 0 16 -8 16 -17v-25
c0 -9 -7 -16 -16 -16z" />
    <glyph glyph-name="Oslash" unicode="&#xd8;" horiz-adv-x="486" 
d="M124 162l212 423c-23 27 -57 43 -93 43c-64 0 -119 -49 -119 -119v-347zM362 170v299c0 18 -1 36 -3 53l-212 -424c22 -29 57 -47 96 -47c64 0 119 50 119 119zM70 -36h-21c-12 0 -18 11 -13 21l47 94c-16 26 -25 57 -25 92v338c0 107 87 179 185 179
c46 0 89 -16 122 -44l30 61c3 6 8 9 15 9h21c11 0 18 -12 13 -21l-44 -88c17 -27 27 -59 27 -96v-338c0 -107 -86 -179 -185 -179c-48 0 -92 16 -125 46l-33 -65c-3 -6 -7 -9 -14 -9z" />
    <glyph glyph-name="Eth" unicode="&#xd0;" horiz-adv-x="494" 
d="M253 0h-161c-8 0 -15 7 -15 16v307h-36c-9 0 -17 6 -17 15v23c0 8 8 15 17 15h36v288c0 8 7 16 15 16h161c102 0 182 -71 182 -179v-322c0 -110 -78 -179 -182 -179zM370 173v330c0 68 -53 120 -118 120h-93c-9 0 -16 -8 -16 -17v-230h119c8 0 16 -7 16 -15v-23
c0 -9 -8 -15 -16 -15h-119v-251c0 -8 7 -15 16 -15h93c65 0 118 47 118 116z" />
    <glyph glyph-name="Thorn" unicode="&#xde;" horiz-adv-x="447" 
d="M128 0h-34c-9 0 -15 7 -15 16v648c0 8 6 16 15 16h34c8 0 16 -8 16 -16v-88c0 -9 6 -16 15 -16h84c118 0 188 -73 188 -186c0 -116 -84 -193 -189 -193h-83c-9 0 -15 -8 -15 -16v-149c0 -9 -8 -16 -16 -16zM159 238h83c75 0 121 61 121 134s-41 130 -121 130h-83
c-9 0 -15 -8 -15 -16v-232c0 -8 6 -16 15 -16z" />
    <glyph glyph-name="a" unicode="a" horiz-adv-x="473" 
d="M342 177v141c0 81 -50 123 -116 123s-112 -40 -112 -115v-165c0 -74 45 -113 111 -113c69 0 117 47 117 129zM387 0h-29c-8 0 -15 7 -15 16v40c-24 -34 -66 -64 -135 -64c-92 0 -155 58 -155 168v166c0 105 65 172 164 172c64 0 102 -30 126 -61v37c0 8 7 16 15 16h29
c9 0 16 -8 16 -16v-458c0 -9 -7 -16 -16 -16z" />
    <glyph glyph-name="a.alt" horiz-adv-x="468" 
d="M336 151v73h-123c-66 0 -106 -24 -106 -90c0 -73 52 -87 106 -87c74 0 123 29 123 104zM383 0h-30c-9 0 -15 7 -15 15v39c-26 -39 -67 -62 -138 -62c-82 0 -155 28 -155 141c0 110 71 145 164 145h127v72c0 65 -43 90 -109 90c-60 0 -106 -22 -106 -76
c0 -10 -6 -17 -16 -17h-33c-8 0 -14 7 -14 17c0 95 74 134 174 134s166 -41 166 -143v-340c0 -8 -7 -15 -15 -15z" />
    <glyph glyph-name="b" unicode="b" horiz-adv-x="473" 
d="M115 0h-30c-9 0 -15 7 -15 16v648c0 8 6 16 15 16h30c9 0 16 -8 16 -16v-230c23 33 64 64 132 64c96 0 157 -61 157 -171v-163c0 -110 -72 -172 -166 -172c-63 0 -101 28 -124 60v-36c0 -9 -7 -16 -15 -16zM359 163v163c0 75 -44 115 -110 115c-68 0 -118 -43 -118 -122
v-151c0 -78 49 -120 116 -120s112 41 112 115z" />
    <glyph glyph-name="c" unicode="c" horiz-adv-x="429" 
d="M345 164h31c10 0 16 -9 16 -16c0 -97 -76 -156 -170 -156c-100 0 -170 68 -170 170v163c0 104 72 173 173 173c95 0 167 -58 167 -155c0 -8 -6 -16 -15 -16h-30c-9 0 -16 5 -16 15c0 64 -48 99 -108 99c-66 0 -109 -45 -109 -113v-168c0 -68 44 -111 110 -111
c59 0 106 33 106 99c0 11 8 16 15 16z" />
    <glyph glyph-name="d" unicode="d" horiz-adv-x="473" 
d="M342 174v148c0 78 -51 119 -116 119c-66 0 -112 -40 -112 -115v-165c0 -74 45 -113 111 -113c68 0 115 46 117 126zM387 0h-29c-8 0 -15 7 -15 16v40c-24 -34 -66 -64 -135 -64c-92 0 -155 58 -155 168v166c0 105 65 172 164 172c63 0 102 -30 125 -61v227
c0 8 6 16 15 16h30c9 0 16 -8 16 -16v-648c0 -9 -7 -16 -16 -16z" />
    <glyph glyph-name="e" unicode="e" horiz-adv-x="447" 
d="M354 148h29c11 0 16 -10 16 -18c-6 -86 -79 -138 -174 -138c-99 0 -173 68 -173 171v161c0 106 76 174 176 174c95 0 172 -60 172 -169v-86c0 -9 -7 -15 -15 -15h-272v-66c0 -70 49 -113 114 -113c59 0 103 29 111 84c1 7 4 15 16 15zM339 278v46c0 76 -47 117 -114 117
c-64 0 -112 -44 -112 -115v-48h226z" />
    <glyph glyph-name="f" unicode="f" horiz-adv-x="296" 
d="M142 0h-31c-8 0 -15 7 -15 16v419h-70c-9 0 -17 8 -17 17v21c0 9 8 17 17 17h70v50c0 99 42 140 141 140h32c9 0 16 -7 16 -15v-26c0 -8 -7 -15 -16 -15h-24c-65 0 -87 -28 -87 -93v-41h109c9 0 16 -8 16 -17v-21c0 -9 -7 -17 -16 -17h-109v-419c0 -9 -8 -16 -16 -16z
" />
    <glyph glyph-name="g" unicode="g" horiz-adv-x="473" 
d="M237 -184h-38c-8 0 -16 6 -16 15v26c0 9 8 16 16 16h31c66 0 112 31 112 108v74c-25 -34 -66 -63 -134 -63c-92 0 -155 58 -155 168v166c0 105 65 172 164 172c64 0 102 -30 126 -61v37c0 8 7 16 15 16h29c9 0 16 -8 16 -16v-495c0 -103 -64 -163 -166 -163zM342 176v141
c0 81 -50 123 -116 123s-112 -40 -112 -115v-164c0 -74 45 -112 111 -112c69 0 117 45 117 127z" />
    <glyph glyph-name="h" unicode="h" horiz-adv-x="478" 
d="M392 0h-30c-9 0 -15 7 -15 16v313c0 71 -36 112 -102 112c-68 0 -114 -46 -114 -112v-313c0 -9 -7 -16 -16 -16h-30c-9 0 -15 7 -15 16v648c0 8 6 16 15 16h30c9 0 16 -8 16 -16v-232c21 34 61 66 127 66c97 0 150 -63 150 -163v-319c0 -9 -7 -16 -16 -16z" />
    <glyph glyph-name="i" unicode="i" horiz-adv-x="206" 
d="M103 594c-26 0 -47 21 -47 47c0 25 21 47 47 47c25 0 46 -22 46 -47c0 -26 -21 -47 -46 -47zM118 0h-31c-8 0 -15 7 -15 16v458c0 8 7 16 15 16h31c8 0 15 -8 15 -16v-458c0 -9 -7 -16 -15 -16z" />
    <glyph glyph-name="j" unicode="j" horiz-adv-x="201" 
d="M103 594c-26 0 -47 21 -47 47c0 25 21 47 47 47c25 0 46 -22 46 -47c0 -26 -21 -47 -46 -47zM-20 -169v26c0 9 7 16 16 16c54 0 76 23 76 90v511c0 8 7 16 15 16h31c8 0 15 -8 15 -16v-515c0 -99 -37 -143 -137 -143c-8 0 -16 6 -16 15z" />
    <glyph glyph-name="k" unicode="k" horiz-adv-x="419" 
d="M135 248l197 234c5 6 10 8 14 8h33c13 0 20 -16 11 -26l-136 -156c-3 -4 -3 -7 -1 -11l163 -275c6 -10 1 -22 -11 -22h-39c-8 0 -12 3 -16 10l-138 240c-3 6 -8 5 -13 0l-64 -71c-3 -3 -4 -7 -4 -12v-151c0 -9 -7 -16 -16 -16h-30c-9 0 -15 7 -15 16v648c0 8 6 16 15 16
h30c9 0 16 -8 16 -16v-416c0 -4 1 -4 4 0z" />
    <glyph glyph-name="l" unicode="l" horiz-adv-x="206" 
d="M118 0h-31c-8 0 -15 7 -15 16v648c0 8 7 16 15 16h31c8 0 15 -8 15 -16v-648c0 -9 -7 -16 -15 -16z" />
    <glyph glyph-name="m" unicode="m" horiz-adv-x="744" 
d="M654 0h-31c-8 0 -15 7 -15 16v313c0 71 -32 111 -97 111c-67 0 -111 -46 -111 -113v-311c0 -9 -7 -16 -16 -16h-30c-9 0 -15 7 -15 16v313c0 70 -32 111 -98 111c-69 0 -110 -48 -110 -116v-308c0 -9 -7 -16 -16 -16h-30c-9 0 -15 7 -15 16v458c0 8 6 16 15 16h30
c8 0 15 -8 15 -16v-43c21 34 58 67 125 67c68 0 111 -31 131 -85c30 55 74 85 137 85c98 0 146 -63 146 -163v-319c0 -9 -7 -16 -15 -16z" />
    <glyph glyph-name="n" unicode="n" horiz-adv-x="478" 
d="M392 0h-30c-9 0 -15 7 -15 16v313c0 71 -36 112 -102 112c-68 0 -114 -46 -114 -112v-313c0 -9 -7 -16 -16 -16h-30c-9 0 -15 7 -15 16v458c0 8 6 16 15 16h30c8 0 15 -8 15 -16v-43c21 34 61 67 128 67c97 0 150 -63 150 -163v-319c0 -9 -7 -16 -16 -16z" />
    <glyph glyph-name="o" unicode="o" horiz-adv-x="458" 
d="M405 321v-153c0 -110 -76 -176 -178 -176c-99 0 -174 63 -174 176v153c0 110 76 177 177 177c99 0 175 -64 175 -177zM343 165v158c0 74 -50 118 -115 118c-64 0 -114 -44 -114 -118v-158c0 -73 50 -116 114 -116c65 0 115 43 115 116z" />
    <glyph glyph-name="p" unicode="p" horiz-adv-x="473" 
d="M359 164v162c0 75 -44 115 -110 115c-68 0 -118 -44 -118 -125v-151c0 -76 50 -117 117 -117s111 42 111 116zM115 -184h-30c-9 0 -15 7 -15 16v642c0 8 6 16 15 16h30c8 0 15 -8 15 -16v-40c23 33 65 64 133 64c96 0 157 -61 157 -171v-162c0 -111 -73 -173 -166 -173
c-63 0 -101 28 -123 59v-219c0 -9 -7 -16 -16 -16z" />
    <glyph glyph-name="q" unicode="q" horiz-adv-x="473" 
d="M387 -184h-30c-9 0 -15 7 -15 16v223c-25 -34 -66 -63 -134 -63c-92 0 -155 58 -155 168v166c0 105 65 172 164 172c64 0 102 -30 126 -61v37c0 8 7 16 15 16h29c9 0 16 -8 16 -16v-642c0 -9 -7 -16 -16 -16zM342 176v145c0 79 -51 119 -116 119
c-66 0 -112 -40 -112 -115v-164c0 -74 45 -112 111 -112c69 0 117 45 117 127z" />
    <glyph glyph-name="r" unicode="r" horiz-adv-x="325" 
d="M115 0h-30c-9 0 -15 7 -15 16v458c0 8 6 16 15 16h30c8 0 15 -8 15 -16v-46c23 37 59 70 123 70c22 0 41 -3 55 -9c9 -4 14 -12 8 -23l-18 -30c-5 -10 -13 -10 -21 -7c-11 5 -24 8 -38 8c-71 0 -108 -57 -108 -128v-293c0 -9 -7 -16 -16 -16z" />
    <glyph glyph-name="s" unicode="s" horiz-adv-x="410" 
d="M351 358h-32c-13 0 -15 8 -16 12c-9 47 -49 71 -102 71c-57 0 -99 -27 -99 -74c0 -119 274 -64 274 -234c0 -91 -76 -141 -171 -141c-87 0 -156 43 -169 129c-1 6 3 19 15 19h33c11 0 14 -10 15 -15c11 -50 49 -77 110 -77c60 0 103 30 103 79c0 126 -272 67 -272 233
c0 85 73 138 165 138c79 0 147 -35 161 -122c1 -7 -3 -18 -15 -18z" />
    <glyph glyph-name="t" unicode="t" horiz-adv-x="294" 
d="M267 0h-31c-100 0 -141 40 -141 139v296h-71c-9 0 -16 7 -16 16v22c0 9 7 17 16 17h71v108c0 8 6 16 15 16h30c9 0 16 -8 16 -16v-108h109c9 0 17 -8 17 -17v-22c0 -9 -8 -16 -17 -16h-109v-288c0 -65 23 -92 88 -92h23c9 0 17 -8 17 -17v-22c0 -9 -8 -16 -17 -16z" />
    <glyph glyph-name="t.alt" horiz-adv-x="278" 
d="M251 0h-23c-100 0 -141 40 -141 139v296h-63c-9 0 -16 7 -16 16v22c0 9 7 17 16 17h63v108c0 8 6 16 15 16h30c9 0 16 -8 16 -16v-108h101c9 0 17 -8 17 -17v-22c0 -9 -8 -16 -17 -16h-101v-288c0 -65 23 -92 88 -92h15c9 0 17 -8 17 -17v-22c0 -9 -8 -16 -17 -16z" />
    <glyph glyph-name="u" unicode="u" horiz-adv-x="478" 
d="M393 0h-30c-8 0 -15 7 -15 16v42c-21 -34 -61 -66 -128 -66c-98 0 -150 62 -150 162v319c0 9 7 17 16 17h29c9 0 16 -8 16 -17v-313c0 -70 36 -112 102 -112c68 0 114 47 114 112v313c0 9 7 17 16 17h29c9 0 16 -8 16 -17v-457c0 -9 -6 -16 -15 -16z" />
    <glyph glyph-name="v" unicode="v" horiz-adv-x="389" 
d="M212 0h-41c-8 0 -12 6 -14 12l-145 457c-4 12 3 21 13 21h35c8 0 12 -6 14 -14l115 -377c3 -8 6 -8 9 0l119 379c3 8 9 12 15 12h31c12 0 18 -10 15 -21l-151 -457c-3 -9 -9 -12 -15 -12z" />
    <glyph glyph-name="w" unicode="w" horiz-adv-x="610" 
d="M454 0h-42c-7 0 -13 3 -15 12l-91 376c-1 4 -4 4 -5 0l-95 -376c-3 -10 -8 -12 -15 -12h-40c-7 0 -13 4 -15 12l-120 459c-2 9 3 19 13 19h35c8 0 14 -6 16 -15l91 -383c2 -7 5 -7 7 0l95 385c2 8 7 13 15 13h36c7 0 13 -5 15 -14l93 -384c1 -4 4 -4 5 0l94 384
c2 8 8 14 15 14h31c12 0 17 -11 15 -21l-123 -456c-2 -9 -9 -13 -15 -13z" />
    <glyph glyph-name="x" unicode="x" horiz-adv-x="397" 
d="M192 193l-115 -184c-4 -6 -8 -9 -15 -9h-33c-16 0 -18 15 -13 22l134 209c9 14 9 20 0 34l-130 201c-7 10 -1 24 12 24h29c15 0 19 -5 28 -19l109 -171c2 -3 3 -3 5 0l112 181c4 6 9 9 14 9h34c12 0 18 -14 12 -23l-130 -202c-10 -15 -11 -20 -1 -34l137 -209
c7 -10 4 -22 -10 -22h-38c-8 0 -11 1 -17 10l-118 183c-2 3 -4 3 -6 0z" />
    <glyph glyph-name="y" unicode="y" horiz-adv-x="396" 
d="M53 -184h-16c-9 0 -16 6 -16 15v26c0 9 7 16 16 16h10c63 0 82 30 101 91l9 27c5 16 3 26 -2 40l-143 437c-4 12 3 22 13 22h34c8 0 13 -4 16 -13l116 -368c3 -9 6 -9 9 -1l121 368c2 7 7 14 17 14h27c13 0 20 -11 16 -22l-174 -514c-32 -96 -57 -138 -154 -138z" />
    <glyph glyph-name="z" unicode="z" horiz-adv-x="413" 
d="M367 0h-322c-8 0 -16 7 -16 15v28c0 9 3 16 10 26l255 357c4 6 2 9 -4 9h-235c-9 0 -16 7 -16 16v22c0 9 7 17 16 17h304c8 0 16 -8 16 -16v-27c0 -9 -3 -14 -11 -25l-259 -360c-3 -4 -3 -8 4 -8h258c9 0 17 -7 17 -16v-22c0 -9 -8 -16 -17 -16z" />
    <glyph glyph-name="ae" unicode="&#xe6;" horiz-adv-x="731" 
d="M637 148h30c11 0 17 -10 16 -18c-11 -90 -82 -138 -175 -138c-68 0 -122 30 -149 86c-35 -62 -78 -86 -159 -86c-82 0 -155 28 -155 141c0 110 71 145 164 145h127v72c0 65 -43 90 -109 90c-60 0 -106 -22 -106 -76c0 -10 -6 -17 -16 -17h-33c-8 0 -14 7 -14 17
c0 95 74 134 174 134c68 0 118 -20 142 -66c30 42 79 66 138 66c95 0 172 -60 172 -169v-86c0 -9 -7 -15 -16 -15h-271v-66c0 -70 49 -113 113 -113c59 0 103 30 111 84c2 7 5 15 16 15zM623 278v46c0 76 -47 117 -114 117c-65 0 -112 -44 -112 -115v-48h226zM336 151v73
h-123c-66 0 -106 -24 -106 -90c0 -73 52 -87 106 -87c74 0 123 29 123 104z" />
    <glyph glyph-name="oe" unicode="&#x153;" horiz-adv-x="736" 
d="M642 148h30c11 0 17 -10 16 -18c-11 -90 -82 -138 -175 -138c-62 0 -113 27 -141 74c-29 -48 -81 -74 -145 -74c-99 0 -174 63 -174 176v153c0 110 76 177 177 177c63 0 115 -26 143 -75c28 47 80 75 144 75c95 0 172 -60 172 -169v-86c0 -9 -7 -15 -16 -15h-271v-66
c0 -70 49 -113 113 -113c59 0 103 30 111 84c2 7 5 15 16 15zM628 278v46c0 76 -47 117 -114 117c-65 0 -112 -44 -112 -115v-48h226zM343 165v158c0 74 -51 118 -115 118s-114 -44 -114 -118v-158c0 -73 50 -116 114 -116s115 42 115 116z" />
    <glyph glyph-name="lslash" unicode="&#x142;" horiz-adv-x="206" 
d="M118 0h-31c-8 0 -15 7 -15 16v381l-44 -19c-9 -4 -18 1 -21 9l-8 21c-3 8 1 18 9 21l64 25v210c0 8 7 16 15 16h31c8 0 15 -8 15 -16v-188l46 19c9 4 18 -1 21 -9l8 -21c3 -8 -2 -17 -10 -20l-65 -26v-403c0 -9 -7 -16 -15 -16z" />
    <glyph glyph-name="oslash" unicode="&#xf8;" horiz-adv-x="458" 
d="M127 109l173 310c-20 14 -45 22 -72 22c-64 0 -114 -44 -114 -118v-158c0 -22 4 -41 13 -56zM343 165v158c0 22 -5 41 -14 57l-172 -309c19 -14 44 -22 71 -22c65 0 115 43 115 116zM89 -36h-16c-11 0 -18 11 -13 21l34 61c-26 30 -41 71 -41 122v153
c0 110 76 177 177 177c37 0 70 -9 98 -27l29 52c3 6 8 9 14 9h16c12 0 18 -11 13 -21l-37 -68c25 -30 42 -71 42 -122v-153c0 -110 -76 -176 -178 -176c-38 0 -71 8 -98 26l-25 -45c-3 -6 -8 -9 -15 -9z" />
    <glyph glyph-name="eth" unicode="&#xf0;" horiz-adv-x="458" 
d="M405 321v-153c0 -110 -76 -176 -178 -176c-99 0 -174 63 -174 176v153c0 110 76 177 178 177c25 0 42 -7 54 -12c4 -1 5 2 2 7c-16 25 -38 54 -63 81l-57 -35c-7 -4 -17 -2 -21 5l-10 18c-4 7 0 17 7 21l46 29c-13 15 -28 28 -42 42c-9 8 -5 26 10 26h36c7 0 13 -4 15 -6
c10 -9 21 -21 33 -33l51 31c7 4 18 2 22 -6l9 -18c4 -7 0 -17 -7 -21l-39 -25c65 -73 128 -169 128 -281zM343 165v158c0 74 -50 118 -115 118c-64 0 -114 -44 -114 -118v-158c0 -73 50 -116 114 -116c65 0 115 43 115 116z" />
    <glyph glyph-name="thorn" unicode="&#xfe;" horiz-adv-x="473" 
d="M359 164v162c0 75 -44 115 -110 115c-68 0 -118 -44 -118 -125v-151c0 -76 50 -117 117 -117s111 42 111 116zM115 -184h-30c-9 0 -15 7 -15 16v832c0 8 6 16 15 16h30c9 0 16 -8 16 -16v-229c23 33 65 63 132 63c96 0 157 -61 157 -171v-162c0 -111 -73 -173 -166 -173
c-63 0 -101 28 -123 59v-219c0 -9 -7 -16 -16 -16z" />
    <glyph glyph-name="germandbls" unicode="&#xdf;" horiz-adv-x="452" 
d="M206 19v23c0 8 7 16 15 16c75 0 135 62 135 135c0 62 -43 124 -131 124c-9 0 -19 6 -19 15v27c0 8 8 15 16 15c80 0 126 56 126 133c0 74 -38 123 -107 123c-65 0 -110 -47 -110 -132v-482c0 -9 -7 -16 -16 -16h-30c-9 0 -15 7 -15 16v482c0 110 61 190 172 190
c105 0 171 -70 171 -179c0 -81 -45 -132 -91 -157c55 -27 98 -82 98 -157c0 -107 -79 -195 -198 -195c-11 0 -16 9 -16 19z" />
    <glyph glyph-name="dotlessi" unicode="&#x131;" horiz-adv-x="206" 
d="M118 0h-31c-8 0 -15 7 -15 16v458c0 8 7 16 15 16h31c8 0 15 -8 15 -16v-458c0 -9 -7 -16 -15 -16z" />
    <glyph glyph-name="dotlessj" unicode="&#x237;" horiz-adv-x="201" 
d="M-20 -169v26c0 9 7 16 16 16c54 0 76 23 76 90v511c0 8 7 16 15 16h31c8 0 15 -8 15 -16v-515c0 -99 -37 -143 -137 -143c-8 0 -16 6 -16 15z" />
    <glyph glyph-name="longs" unicode="&#x17f;" horiz-adv-x="296" 
d="M142 0h-31c-8 0 -15 7 -15 16v419h-70c-9 0 -17 8 -17 17v21c0 9 8 17 17 17h70v50c0 99 42 140 141 140h32c9 0 16 -7 16 -15v-26c0 -8 -7 -15 -16 -15h-24c-65 0 -87 -28 -87 -93v-515c0 -9 -8 -16 -16 -16z" />
    <glyph glyph-name="f_t.alt" horiz-adv-x="555" 
d="M364 435h-206v-419c0 -9 -8 -16 -16 -16h-31c-8 0 -15 7 -15 16v419h-70c-9 0 -17 8 -17 17v21c0 9 8 17 17 17h70v50c0 99 42 140 141 140h32c9 0 16 -7 16 -15v-26c0 -8 -7 -15 -16 -15h-24c-65 0 -87 -28 -87 -93v-41h206v108c0 8 6 16 15 16h30c9 0 16 -8 16 -16
v-108h101c9 0 17 -8 17 -17v-22c0 -9 -8 -16 -17 -16h-101v-288c0 -65 23 -92 88 -92h15c9 0 17 -8 17 -17v-22c0 -9 -8 -16 -17 -16h-23c-100 0 -141 40 -141 139v296z" />
    <glyph glyph-name="f_f_t.alt" horiz-adv-x="823" 
d="M364 490v50c0 99 42 140 141 140h32c9 0 16 -7 16 -15v-26c0 -8 -7 -15 -16 -15h-24c-65 0 -87 -28 -87 -93v-41h206v108c0 8 6 16 15 16h30c9 0 16 -8 16 -16v-108h101c9 0 17 -8 17 -17v-22c0 -9 -8 -16 -17 -16h-101v-288c0 -65 23 -92 88 -92h15c9 0 17 -8 17 -17
v-22c0 -9 -8 -16 -17 -16h-23c-100 0 -141 40 -141 139v296h-206v-419c0 -9 -8 -16 -16 -16h-31c-8 0 -15 7 -15 16v419h-206v-419c0 -9 -8 -16 -16 -16h-31c-8 0 -15 7 -15 16v419h-70c-9 0 -17 8 -17 17v21c0 9 8 17 17 17h70v50c0 99 42 140 141 140h32c9 0 16 -7 16 -15
v-26c0 -8 -7 -15 -16 -15h-24c-65 0 -87 -28 -87 -93v-41h206z" />
    <glyph glyph-name="Aacute" unicode="&#xc1;" horiz-adv-x="394" 
d="M212 710h-26c-10 0 -17 10 -13 21l36 97c3 8 9 12 16 12h41c11 0 20 -11 14 -22l-52 -98c-4 -7 -10 -10 -16 -10zM279 204l-79 350c-1 4 -4 4 -5 0l-81 -350c-1 -6 2 -10 7 -10h150c6 0 10 3 8 10zM372 0h-37c-7 0 -13 4 -15 12l-25 111c-2 9 -8 14 -18 14h-165
c-9 0 -14 -4 -16 -13l-25 -111c-2 -10 -9 -13 -15 -13h-35c-10 0 -17 6 -14 18l158 650c2 8 7 12 15 12h39c8 0 13 -5 15 -13l152 -648c3 -12 -3 -19 -14 -19z" />
    <glyph glyph-name="Acircumflex" unicode="&#xc2;" horiz-adv-x="394" 
d="M283 710h-13c-5 0 -9 2 -13 6l-51 59c-5 6 -12 6 -17 0l-51 -59c-4 -4 -8 -6 -13 -6h-13c-12 0 -19 11 -12 22l59 99c3 5 9 9 14 9h48c7 0 13 -6 15 -9l59 -99c6 -10 -1 -22 -12 -22zM279 204l-79 350c-1 4 -4 4 -5 0l-81 -350c-1 -6 2 -10 7 -10h150c6 0 10 3 8 10z
M372 0h-37c-7 0 -13 4 -15 12l-25 111c-2 9 -8 14 -18 14h-165c-9 0 -14 -4 -16 -13l-25 -111c-2 -10 -9 -13 -15 -13h-35c-10 0 -17 6 -14 18l158 650c2 8 7 12 15 12h39c8 0 13 -5 15 -13l152 -648c3 -12 -3 -19 -14 -19z" />
    <glyph glyph-name="Adieresis" unicode="&#xc4;" horiz-adv-x="394" 
d="M301 775c0 -23 -19 -42 -43 -42c-22 0 -41 19 -41 42c0 24 19 42 41 42c24 0 43 -18 43 -42zM178 775c0 -23 -19 -42 -42 -42s-42 19 -42 42c0 24 19 42 42 42s42 -18 42 -42zM279 204l-79 350c-1 4 -4 4 -5 0l-81 -350c-1 -6 2 -10 7 -10h150c6 0 10 3 8 10zM372 0h-37
c-7 0 -13 4 -15 12l-25 111c-2 9 -8 14 -18 14h-165c-9 0 -14 -4 -16 -13l-25 -111c-2 -10 -9 -13 -15 -13h-35c-10 0 -17 6 -14 18l158 650c2 8 7 12 15 12h39c8 0 13 -5 15 -13l152 -648c3 -12 -3 -19 -14 -19z" />
    <glyph glyph-name="Agrave" unicode="&#xc0;" horiz-adv-x="394" 
d="M211 710h-27c-6 0 -12 3 -15 10l-52 98c-5 11 3 22 13 22h42c6 0 12 -4 15 -12l36 -97c4 -11 -2 -21 -12 -21zM279 204l-79 350c-1 4 -4 4 -5 0l-81 -350c-1 -6 2 -10 7 -10h150c6 0 10 3 8 10zM372 0h-37c-7 0 -13 4 -15 12l-25 111c-2 9 -8 14 -18 14h-165
c-9 0 -14 -4 -16 -13l-25 -111c-2 -10 -9 -13 -15 -13h-35c-10 0 -17 6 -14 18l158 650c2 8 7 12 15 12h39c8 0 13 -5 15 -13l152 -648c3 -12 -3 -19 -14 -19z" />
    <glyph glyph-name="Aring" unicode="&#xc5;" horiz-adv-x="394" 
d="M282 794c0 -47 -37 -84 -85 -84c-47 0 -84 37 -84 84s37 85 84 85c48 0 85 -38 85 -85zM197 748c24 0 45 20 45 46c0 24 -21 45 -45 45s-43 -21 -43 -45c0 -26 19 -46 43 -46zM279 204l-79 350c-1 4 -4 4 -5 0l-81 -350c-1 -6 2 -10 7 -10h150c6 0 10 3 8 10zM372 0h-37
c-7 0 -13 4 -15 12l-25 111c-2 9 -8 14 -18 14h-165c-9 0 -14 -4 -16 -13l-25 -111c-2 -10 -9 -13 -15 -13h-35c-10 0 -17 6 -14 18l158 650c2 8 7 12 15 12h39c8 0 13 -5 15 -13l152 -648c3 -12 -3 -19 -14 -19z" />
    <glyph glyph-name="Atilde" unicode="&#xc3;" horiz-adv-x="394" 
d="M309 773c-1 -21 -38 -57 -67 -57c-27 0 -78 31 -98 31c-21 0 -25 -35 -49 -22c-6 3 -10 8 -9 15c2 23 36 56 66 56c29 0 81 -31 98 -31c19 0 27 36 50 23c7 -4 9 -9 9 -15zM279 204l-79 350c-1 4 -4 4 -5 0l-81 -350c-1 -6 2 -10 7 -10h150c6 0 10 3 8 10zM372 0h-37
c-7 0 -13 4 -15 12l-25 111c-2 9 -8 14 -18 14h-165c-9 0 -14 -4 -16 -13l-25 -111c-2 -10 -9 -13 -15 -13h-35c-10 0 -17 6 -14 18l158 650c2 8 7 12 15 12h39c8 0 13 -5 15 -13l152 -648c3 -12 -3 -19 -14 -19z" />
    <glyph glyph-name="Abreve" unicode="&#x102;" horiz-adv-x="394" 
d="M271 840h16c13 0 14 -12 14 -19c0 -56 -34 -111 -103 -111s-103 55 -103 111c0 7 1 19 14 19h16c11 0 14 -11 15 -16c5 -41 27 -63 58 -63c30 0 52 22 58 63c0 5 3 16 15 16zM279 204l-79 350c-1 4 -4 4 -5 0l-81 -350c-1 -6 2 -10 7 -10h150c6 0 10 3 8 10zM372 0h-37
c-7 0 -13 4 -15 12l-25 111c-2 9 -8 14 -18 14h-165c-9 0 -14 -4 -16 -13l-25 -111c-2 -10 -9 -13 -15 -13h-35c-10 0 -17 6 -14 18l158 650c2 8 7 12 15 12h39c8 0 13 -5 15 -13l152 -648c3 -12 -3 -19 -14 -19z" />
    <glyph glyph-name="Amacron" unicode="&#x100;" horiz-adv-x="394" 
d="M285 747h-175c-8 0 -16 7 -16 15v21c0 8 8 16 16 16h175c8 0 16 -8 16 -16v-21c0 -8 -8 -15 -16 -15zM279 204l-79 350c-1 4 -4 4 -5 0l-81 -350c-1 -6 2 -10 7 -10h150c6 0 10 3 8 10zM372 0h-37c-7 0 -13 4 -15 12l-25 111c-2 9 -8 14 -18 14h-165c-9 0 -14 -4 -16 -13
l-25 -111c-2 -10 -9 -13 -15 -13h-35c-10 0 -17 6 -14 18l158 650c2 8 7 12 15 12h39c8 0 13 -5 15 -13l152 -648c3 -12 -3 -19 -14 -19z" />
    <glyph glyph-name="Aogonek" unicode="&#x104;" horiz-adv-x="394" 
d="M279 204l-79 350c-1 4 -4 4 -5 0l-81 -350c-1 -6 2 -10 7 -10h150c6 0 10 3 8 10zM372 0h-37c-7 0 -13 4 -15 12l-25 111c-2 9 -8 14 -18 14h-165c-9 0 -14 -4 -16 -13l-25 -111c-2 -10 -9 -13 -15 -13h-35c-10 0 -17 6 -14 18l158 650c2 8 7 12 15 12h39
c8 0 13 -5 15 -13l152 -648c3 -12 -3 -19 -14 -19zM394 -152v-10c0 -11 -7 -14 -15 -16c-18 -5 -31 -6 -41 -6c-59 0 -85 35 -85 65c0 32 29 63 67 86c6 4 10 5 16 5h44c8 0 9 -9 3 -13c-38 -20 -69 -49 -69 -70c0 -18 16 -28 36 -28c7 0 17 1 26 3c8 1 18 0 18 -16z" />
    <glyph glyph-name="Ccedilla" unicode="&#xc7;" horiz-adv-x="450" 
d="M372 189h34c10 0 16 -9 16 -18c0 -108 -82 -179 -183 -179c-98 0 -181 72 -181 178v339c0 103 84 179 183 179c101 0 182 -70 182 -178c0 -9 -6 -18 -16 -18h-34c-8 0 -15 8 -15 16c0 72 -52 120 -119 120c-63 0 -115 -50 -115 -117v-308c0 -80 29 -151 116 -151
c64 0 117 49 117 121c0 8 7 16 15 16zM193 -162v10c0 16 10 17 17 16c9 -2 19 -3 27 -3c20 0 36 10 36 28c0 21 -32 50 -69 70c-6 4 -5 13 2 13h44c6 0 11 -1 17 -5c38 -23 66 -54 66 -86c0 -30 -26 -65 -84 -65c-10 0 -24 1 -42 6c-7 2 -14 5 -14 16z" />
    <glyph glyph-name="Cacute" unicode="&#x106;" horiz-adv-x="450" 
d="M255 710h-26c-10 0 -17 10 -13 21l36 97c3 8 9 12 16 12h41c11 0 20 -11 14 -22l-52 -98c-4 -7 -10 -10 -16 -10zM372 189h34c10 0 16 -9 16 -18c0 -108 -82 -179 -183 -179c-98 0 -181 72 -181 178v339c0 103 84 179 183 179c101 0 182 -70 182 -178
c0 -9 -6 -18 -16 -18h-34c-8 0 -15 8 -15 16c0 72 -52 120 -119 120c-63 0 -115 -50 -115 -117v-308c0 -80 29 -151 116 -151c64 0 117 49 117 121c0 8 7 16 15 16z" />
    <glyph glyph-name="Ccaron" unicode="&#x10c;" horiz-adv-x="450" 
d="M264 710h-48c-5 0 -11 3 -14 9l-59 98c-7 11 0 23 12 23h13c5 0 9 -2 13 -7l51 -59c5 -6 11 -6 17 0l51 59c4 5 8 7 13 7h13c11 0 18 -12 12 -23l-59 -98c-4 -6 -9 -9 -15 -9zM372 189h34c10 0 16 -9 16 -18c0 -108 -82 -179 -183 -179c-98 0 -181 72 -181 178v339
c0 103 84 179 183 179c101 0 182 -70 182 -178c0 -9 -6 -18 -16 -18h-34c-8 0 -15 8 -15 16c0 72 -52 120 -119 120c-63 0 -115 -50 -115 -117v-308c0 -80 29 -151 116 -151c64 0 117 49 117 121c0 8 7 16 15 16z" />
    <glyph glyph-name="Ccircumflex" unicode="&#x108;" horiz-adv-x="450" 
d="M326 710h-13c-5 0 -9 2 -13 6l-51 59c-5 6 -12 6 -17 0l-51 -59c-4 -4 -8 -6 -13 -6h-13c-12 0 -19 11 -12 22l59 99c3 5 9 9 14 9h48c7 0 13 -6 15 -9l59 -99c6 -10 -1 -22 -12 -22zM372 189h34c10 0 16 -9 16 -18c0 -108 -82 -179 -183 -179c-98 0 -181 72 -181 178
v339c0 103 84 179 183 179c101 0 182 -70 182 -178c0 -9 -6 -18 -16 -18h-34c-8 0 -15 8 -15 16c0 72 -52 120 -119 120c-63 0 -115 -50 -115 -117v-308c0 -80 29 -151 116 -151c64 0 117 49 117 121c0 8 7 16 15 16z" />
    <glyph glyph-name="Cdotaccent" unicode="&#x10a;" horiz-adv-x="450" 
d="M287 775c0 -26 -21 -46 -47 -46s-46 20 -46 46s20 47 46 47s47 -21 47 -47zM372 189h34c10 0 16 -9 16 -18c0 -108 -82 -179 -183 -179c-98 0 -181 72 -181 178v339c0 103 84 179 183 179c101 0 182 -70 182 -178c0 -9 -6 -18 -16 -18h-34c-8 0 -15 8 -15 16
c0 72 -52 120 -119 120c-63 0 -115 -50 -115 -117v-308c0 -80 29 -151 116 -151c64 0 117 49 117 121c0 8 7 16 15 16z" />
    <glyph glyph-name="Dcaron" unicode="&#x10e;" horiz-adv-x="494" 
d="M267 710h-48c-5 0 -11 3 -14 9l-59 98c-7 11 0 23 12 23h13c5 0 9 -2 13 -7l51 -59c5 -6 11 -6 17 0l51 59c4 5 8 7 13 7h13c11 0 18 -12 12 -23l-59 -98c-4 -6 -9 -9 -15 -9zM253 0h-161c-8 0 -15 7 -15 16v648c0 8 7 16 15 16h161c102 0 182 -71 182 -179v-322
c0 -110 -78 -179 -182 -179zM370 173v330c0 68 -53 120 -118 120h-93c-9 0 -16 -8 -16 -17v-534c0 -8 7 -15 16 -15h93c65 0 118 47 118 116z" />
    <glyph glyph-name="Dcroat" unicode="&#x110;" horiz-adv-x="494" 
d="M253 0h-161c-8 0 -15 7 -15 16v307h-36c-9 0 -17 6 -17 15v23c0 8 8 15 17 15h36v288c0 8 7 16 15 16h161c102 0 182 -71 182 -179v-322c0 -110 -78 -179 -182 -179zM370 173v330c0 68 -53 120 -118 120h-93c-9 0 -16 -8 -16 -17v-230h119c8 0 16 -7 16 -15v-23
c0 -9 -8 -15 -16 -15h-119v-251c0 -8 7 -15 16 -15h93c65 0 118 47 118 116z" />
    <glyph glyph-name="Eacute" unicode="&#xc9;" horiz-adv-x="405" 
d="M256 710h-26c-10 0 -17 10 -13 21l36 97c3 8 9 12 16 12h41c11 0 20 -11 14 -22l-52 -98c-4 -7 -10 -10 -16 -10zM372 0h-280c-8 0 -15 7 -15 16v648c0 8 7 16 15 16h280c9 0 17 -8 17 -17v-25c0 -9 -8 -16 -17 -16h-213c-9 0 -16 -8 -16 -16v-214c0 -10 5 -16 16 -16
h114c9 0 17 -8 17 -17v-25c0 -9 -8 -16 -17 -16h-114c-9 0 -16 -8 -16 -16v-228c0 -9 5 -16 16 -16h213c9 0 17 -8 17 -17v-25c0 -9 -8 -16 -17 -16z" />
    <glyph glyph-name="Ecircumflex" unicode="&#xca;" horiz-adv-x="405" 
d="M327 710h-13c-5 0 -9 2 -13 6l-51 59c-5 6 -12 6 -17 0l-51 -59c-4 -4 -8 -6 -13 -6h-13c-12 0 -19 11 -12 22l59 99c3 5 9 9 14 9h48c7 0 13 -6 15 -9l59 -99c6 -10 -1 -22 -12 -22zM372 0h-280c-8 0 -15 7 -15 16v648c0 8 7 16 15 16h280c9 0 17 -8 17 -17v-25
c0 -9 -8 -16 -17 -16h-213c-9 0 -16 -8 -16 -16v-214c0 -10 5 -16 16 -16h114c9 0 17 -8 17 -17v-25c0 -9 -8 -16 -17 -16h-114c-9 0 -16 -8 -16 -16v-228c0 -9 5 -16 16 -16h213c9 0 17 -8 17 -17v-25c0 -9 -8 -16 -17 -16z" />
    <glyph glyph-name="Edieresis" unicode="&#xcb;" horiz-adv-x="405" 
d="M345 775c0 -23 -19 -42 -43 -42c-22 0 -41 19 -41 42c0 24 19 42 41 42c24 0 43 -18 43 -42zM222 775c0 -23 -19 -42 -42 -42s-42 19 -42 42c0 24 19 42 42 42s42 -18 42 -42zM372 0h-280c-8 0 -15 7 -15 16v648c0 8 7 16 15 16h280c9 0 17 -8 17 -17v-25
c0 -9 -8 -16 -17 -16h-213c-9 0 -16 -8 -16 -16v-214c0 -10 5 -16 16 -16h114c9 0 17 -8 17 -17v-25c0 -9 -8 -16 -17 -16h-114c-9 0 -16 -8 -16 -16v-228c0 -9 5 -16 16 -16h213c9 0 17 -8 17 -17v-25c0 -9 -8 -16 -17 -16z" />
    <glyph glyph-name="Egrave" unicode="&#xc8;" horiz-adv-x="405" 
d="M255 710h-27c-6 0 -12 3 -15 10l-52 98c-5 11 3 22 13 22h42c6 0 12 -4 15 -12l36 -97c4 -11 -2 -21 -12 -21zM372 0h-280c-8 0 -15 7 -15 16v648c0 8 7 16 15 16h280c9 0 17 -8 17 -17v-25c0 -9 -8 -16 -17 -16h-213c-9 0 -16 -8 -16 -16v-214c0 -10 5 -16 16 -16h114
c9 0 17 -8 17 -17v-25c0 -9 -8 -16 -17 -16h-114c-9 0 -16 -8 -16 -16v-228c0 -9 5 -16 16 -16h213c9 0 17 -8 17 -17v-25c0 -9 -8 -16 -17 -16z" />
    <glyph glyph-name="Ebreve" unicode="&#x114;" horiz-adv-x="405" 
d="M315 840h16c13 0 14 -12 14 -19c0 -56 -34 -111 -103 -111s-103 55 -103 111c0 7 1 19 14 19h16c11 0 14 -11 15 -16c5 -41 27 -63 58 -63c30 0 52 22 58 63c0 5 3 16 15 16zM372 0h-280c-8 0 -15 7 -15 16v648c0 8 7 16 15 16h280c9 0 17 -8 17 -17v-25
c0 -9 -8 -16 -17 -16h-213c-9 0 -16 -8 -16 -16v-214c0 -10 5 -16 16 -16h114c9 0 17 -8 17 -17v-25c0 -9 -8 -16 -17 -16h-114c-9 0 -16 -8 -16 -16v-228c0 -9 5 -16 16 -16h213c9 0 17 -8 17 -17v-25c0 -9 -8 -16 -17 -16z" />
    <glyph glyph-name="Ecaron" unicode="&#x11a;" horiz-adv-x="405" 
d="M265 710h-48c-5 0 -11 3 -14 9l-59 98c-7 11 0 23 12 23h13c5 0 9 -2 13 -7l51 -59c5 -6 11 -6 17 0l51 59c4 5 8 7 13 7h13c11 0 18 -12 12 -23l-59 -98c-4 -6 -9 -9 -15 -9zM372 0h-280c-8 0 -15 7 -15 16v648c0 8 7 16 15 16h280c9 0 17 -8 17 -17v-25
c0 -9 -8 -16 -17 -16h-213c-9 0 -16 -8 -16 -16v-214c0 -10 5 -16 16 -16h114c9 0 17 -8 17 -17v-25c0 -9 -8 -16 -17 -16h-114c-9 0 -16 -8 -16 -16v-228c0 -9 5 -16 16 -16h213c9 0 17 -8 17 -17v-25c0 -9 -8 -16 -17 -16z" />
    <glyph glyph-name="Edotaccent" unicode="&#x116;" horiz-adv-x="405" 
d="M288 775c0 -26 -21 -46 -47 -46s-46 20 -46 46s20 47 46 47s47 -21 47 -47zM372 0h-280c-8 0 -15 7 -15 16v648c0 8 7 16 15 16h280c9 0 17 -8 17 -17v-25c0 -9 -8 -16 -17 -16h-213c-9 0 -16 -8 -16 -16v-214c0 -10 5 -16 16 -16h114c9 0 17 -8 17 -17v-25
c0 -9 -8 -16 -17 -16h-114c-9 0 -16 -8 -16 -16v-228c0 -9 5 -16 16 -16h213c9 0 17 -8 17 -17v-25c0 -9 -8 -16 -17 -16z" />
    <glyph glyph-name="Emacron" unicode="&#x112;" horiz-adv-x="405" 
d="M329 747h-175c-8 0 -16 7 -16 15v21c0 8 8 16 16 16h175c8 0 16 -8 16 -16v-21c0 -8 -8 -15 -16 -15zM372 0h-280c-8 0 -15 7 -15 16v648c0 8 7 16 15 16h280c9 0 17 -8 17 -17v-25c0 -9 -8 -16 -17 -16h-213c-9 0 -16 -8 -16 -16v-214c0 -10 5 -16 16 -16h114
c9 0 17 -8 17 -17v-25c0 -9 -8 -16 -17 -16h-114c-9 0 -16 -8 -16 -16v-228c0 -9 5 -16 16 -16h213c9 0 17 -8 17 -17v-25c0 -9 -8 -16 -17 -16z" />
    <glyph glyph-name="Eogonek" unicode="&#x118;" horiz-adv-x="405" 
d="M372 0h-280c-8 0 -15 7 -15 16v648c0 8 7 16 15 16h280c9 0 17 -8 17 -17v-25c0 -9 -8 -16 -17 -16h-213c-9 0 -16 -8 -16 -16v-214c0 -10 5 -16 16 -16h114c9 0 17 -8 17 -17v-25c0 -9 -8 -16 -17 -16h-114c-9 0 -16 -8 -16 -16v-228c0 -9 5 -16 16 -16h213
c9 0 17 -8 17 -17v-25c0 -9 -8 -16 -17 -16zM378 -152v-10c0 -11 -7 -14 -15 -16c-18 -5 -31 -6 -41 -6c-59 0 -85 35 -85 65c0 32 29 63 67 86c6 4 10 5 16 5h44c8 0 9 -9 3 -13c-38 -20 -69 -49 -69 -70c0 -18 16 -28 36 -28c7 0 17 1 26 3c8 1 18 0 18 -16z" />
    <glyph glyph-name="Gbreve" unicode="&#x11e;" horiz-adv-x="486" 
d="M319 840h16c13 0 14 -12 14 -19c0 -56 -34 -111 -103 -111s-103 55 -103 111c0 7 1 19 14 19h16c11 0 14 -11 15 -16c5 -41 27 -63 58 -63c30 0 52 22 58 63c0 5 3 16 15 16zM365 168v97c0 8 -4 13 -11 13h-91c-9 0 -16 7 -16 16v25c0 9 7 17 16 17h151c9 0 15 -8 15 -16
v-150c0 -109 -88 -178 -187 -178c-97 0 -184 70 -184 178v339c0 103 87 179 186 179c105 0 185 -70 185 -180c0 -8 -7 -16 -15 -16h-34c-9 0 -15 9 -15 17c0 71 -58 119 -122 119c-63 0 -119 -49 -119 -117v-312c0 -80 35 -147 119 -147c64 0 122 49 122 116z" />
    <glyph glyph-name="Gcircumflex" unicode="&#x11c;" horiz-adv-x="486" 
d="M331 710h-13c-5 0 -9 2 -13 6l-51 59c-5 6 -12 6 -17 0l-51 -59c-4 -4 -8 -6 -13 -6h-13c-12 0 -19 11 -12 22l59 99c3 5 9 9 14 9h48c7 0 13 -6 15 -9l59 -99c6 -10 -1 -22 -12 -22zM365 168v97c0 8 -4 13 -11 13h-91c-9 0 -16 7 -16 16v25c0 9 7 17 16 17h151
c9 0 15 -8 15 -16v-150c0 -109 -88 -178 -187 -178c-97 0 -184 70 -184 178v339c0 103 87 179 186 179c105 0 185 -70 185 -180c0 -8 -7 -16 -15 -16h-34c-9 0 -15 9 -15 17c0 71 -58 119 -122 119c-63 0 -119 -49 -119 -117v-312c0 -80 35 -147 119 -147
c64 0 122 49 122 116z" />
    <glyph glyph-name="Gcommaaccent" unicode="&#x122;" horiz-adv-x="486" 
d="M365 168v97c0 8 -4 13 -11 13h-91c-9 0 -16 7 -16 16v25c0 9 7 17 16 17h151c9 0 15 -8 15 -16v-150c0 -109 -88 -178 -187 -178c-97 0 -184 70 -184 178v339c0 103 87 179 186 179c105 0 185 -70 185 -180c0 -8 -7 -16 -15 -16h-34c-9 0 -15 9 -15 17
c0 71 -58 119 -122 119c-63 0 -119 -49 -119 -117v-312c0 -80 35 -147 119 -147c64 0 122 49 122 116zM205 -166h-26c-10 0 -16 10 -13 21l36 97c3 8 9 12 16 12h41c11 0 19 -11 14 -22l-52 -98c-4 -7 -10 -10 -16 -10z" />
    <glyph glyph-name="Gdotaccent" unicode="&#x120;" horiz-adv-x="486" 
d="M292 775c0 -26 -21 -46 -47 -46s-46 20 -46 46s20 47 46 47s47 -21 47 -47zM365 168v97c0 8 -4 13 -11 13h-91c-9 0 -16 7 -16 16v25c0 9 7 17 16 17h151c9 0 15 -8 15 -16v-150c0 -109 -88 -178 -187 -178c-97 0 -184 70 -184 178v339c0 103 87 179 186 179
c105 0 185 -70 185 -180c0 -8 -7 -16 -15 -16h-34c-9 0 -15 9 -15 17c0 71 -58 119 -122 119c-63 0 -119 -49 -119 -117v-312c0 -80 35 -147 119 -147c64 0 122 49 122 116z" />
    <glyph glyph-name="Hbar" unicode="&#x126;" horiz-adv-x="508" 
d="M366 394v96h-224v-96c0 -8 7 -16 15 -16h193c8 0 16 8 16 16zM415 0h-34c-9 0 -15 7 -15 16v288c0 8 -8 16 -16 16h-193c-8 0 -15 -8 -15 -16v-288c0 -9 -7 -16 -16 -16h-34c-8 0 -15 7 -15 16v474h-36c-9 0 -17 6 -17 15v22c0 9 8 16 17 16h36v121c0 8 7 16 15 16h34
c9 0 16 -8 16 -16v-121h224v121c0 8 6 16 15 16h34c8 0 16 -8 16 -16v-121h36c9 0 16 -7 16 -16v-22c0 -9 -7 -15 -16 -15h-36v-474c0 -9 -8 -16 -16 -16z" />
    <glyph glyph-name="Hcircumflex" unicode="&#x124;" horiz-adv-x="508" 
d="M338 710h-13c-5 0 -9 2 -13 6l-51 59c-5 6 -12 6 -17 0l-51 -59c-4 -4 -8 -6 -13 -6h-13c-12 0 -19 11 -12 22l59 99c3 5 9 9 14 9h48c7 0 13 -6 15 -9l59 -99c6 -10 -1 -22 -12 -22zM414 0h-32c-9 0 -16 7 -16 16v288c0 12 -7 16 -15 16h-194c-8 0 -15 -8 -15 -16v-288
c0 -9 -7 -16 -16 -16h-33c-9 0 -16 7 -16 16v647c0 9 7 17 16 17h33c9 0 16 -8 16 -17v-269c0 -8 7 -16 15 -16h193c8 0 16 8 16 16v269c0 9 7 17 16 17h32c9 0 17 -8 17 -17v-647c0 -9 -8 -16 -17 -16z" />
    <glyph glyph-name="Iacute" unicode="&#xcd;" horiz-adv-x="222" 
d="M126 710h-26c-10 0 -17 10 -13 21l36 97c3 8 9 12 16 12h41c11 0 20 -11 14 -22l-52 -98c-4 -7 -10 -10 -16 -10zM127 0h-32c-9 0 -16 7 -16 16v647c0 9 7 17 16 17h32c9 0 17 -8 17 -17v-647c0 -9 -8 -16 -17 -16z" />
    <glyph glyph-name="Icircumflex" unicode="&#xce;" horiz-adv-x="222" 
d="M197 710h-13c-5 0 -9 2 -13 6l-51 59c-5 6 -12 6 -17 0l-51 -59c-4 -4 -8 -6 -13 -6h-13c-12 0 -19 11 -12 22l59 99c3 5 9 9 14 9h48c7 0 13 -6 15 -9l59 -99c6 -10 -1 -22 -12 -22zM127 0h-32c-9 0 -16 7 -16 16v647c0 9 7 17 16 17h32c9 0 17 -8 17 -17v-647
c0 -9 -8 -16 -17 -16z" />
    <glyph glyph-name="Idieresis" unicode="&#xcf;" horiz-adv-x="222" 
d="M215 775c0 -23 -19 -42 -43 -42c-22 0 -41 19 -41 42c0 24 19 42 41 42c24 0 43 -18 43 -42zM92 775c0 -23 -19 -42 -42 -42s-42 19 -42 42c0 24 19 42 42 42s42 -18 42 -42zM127 0h-32c-9 0 -16 7 -16 16v647c0 9 7 17 16 17h32c9 0 17 -8 17 -17v-647
c0 -9 -8 -16 -17 -16z" />
    <glyph glyph-name="Igrave" unicode="&#xcc;" horiz-adv-x="222" 
d="M125 710h-27c-6 0 -12 3 -15 10l-52 98c-5 11 3 22 13 22h42c6 0 12 -4 15 -12l36 -97c4 -11 -2 -21 -12 -21zM127 0h-32c-9 0 -16 7 -16 16v647c0 9 7 17 16 17h32c9 0 17 -8 17 -17v-647c0 -9 -8 -16 -17 -16z" />
    <glyph glyph-name="Ibreve" unicode="&#x12c;" horiz-adv-x="222" 
d="M185 840h16c13 0 14 -12 14 -19c0 -56 -34 -111 -103 -111s-103 55 -103 111c0 7 1 19 14 19h16c11 0 14 -11 15 -16c5 -41 27 -63 58 -63c30 0 52 22 58 63c0 5 3 16 15 16zM127 0h-32c-9 0 -16 7 -16 16v647c0 9 7 17 16 17h32c9 0 17 -8 17 -17v-647
c0 -9 -8 -16 -17 -16z" />
    <glyph glyph-name="Idotaccent" unicode="&#x130;" horiz-adv-x="222" 
d="M158 775c0 -26 -21 -46 -47 -46s-46 20 -46 46s20 47 46 47s47 -21 47 -47zM127 0h-32c-9 0 -16 7 -16 16v647c0 9 7 17 16 17h32c9 0 17 -8 17 -17v-647c0 -9 -8 -16 -17 -16z" />
    <glyph glyph-name="Imacron" unicode="&#x12a;" horiz-adv-x="222" 
d="M199 747h-175c-8 0 -16 7 -16 15v21c0 8 8 16 16 16h175c8 0 16 -8 16 -16v-21c0 -8 -8 -15 -16 -15zM127 0h-32c-9 0 -16 7 -16 16v647c0 9 7 17 16 17h32c9 0 17 -8 17 -17v-647c0 -9 -8 -16 -17 -16z" />
    <glyph glyph-name="Iogonek" unicode="&#x12e;" horiz-adv-x="222" 
d="M127 0h-32c-9 0 -16 7 -16 16v647c0 9 7 17 16 17h32c9 0 17 -8 17 -17v-647c0 -9 -8 -16 -17 -16zM150 -152v-10c0 -11 -7 -14 -15 -16c-18 -5 -31 -6 -41 -6c-59 0 -85 35 -85 65c0 32 29 63 67 86c6 4 10 5 16 5h44c8 0 9 -9 3 -13c-38 -20 -69 -49 -69 -70
c0 -18 16 -28 36 -28c7 0 17 1 26 3c8 1 18 0 18 -16z" />
    <glyph glyph-name="Itilde" unicode="&#x128;" horiz-adv-x="222" 
d="M223 773c-1 -21 -38 -57 -67 -57c-27 0 -78 31 -98 31c-21 0 -25 -35 -49 -22c-6 3 -10 8 -9 15c2 23 36 56 66 56c29 0 81 -31 98 -31c19 0 27 36 50 23c7 -4 9 -9 9 -15zM127 0h-32c-9 0 -16 7 -16 16v647c0 9 7 17 16 17h32c9 0 17 -8 17 -17v-647
c0 -9 -8 -16 -17 -16z" />
    <glyph glyph-name="Jcircumflex" unicode="&#x134;" horiz-adv-x="414" 
d="M393 710h-13c-5 0 -9 2 -13 6l-51 59c-5 6 -12 6 -17 0l-51 -59c-4 -4 -8 -6 -13 -6h-13c-12 0 -19 11 -12 22l59 99c3 5 9 9 14 9h48c7 0 13 -6 15 -9l59 -99c6 -10 -1 -22 -12 -22zM275 175v489c0 8 7 16 15 16h34c9 0 16 -8 16 -16v-486c0 -108 -66 -186 -167 -186
c-104 0 -165 71 -165 179v5c0 9 7 16 15 16h34c8 0 16 -7 16 -16v-10c0 -66 37 -114 101 -114c65 0 101 51 101 123z" />
    <glyph glyph-name="IJ" unicode="&#x132;" horiz-adv-x="637" 
d="M127 0h-32c-9 0 -16 7 -16 16v647c0 9 7 17 16 17h32c9 0 17 -8 17 -17v-647c0 -9 -8 -16 -17 -16zM497 175v489c0 8 7 16 15 16h34c9 0 16 -8 16 -16v-486c0 -108 -66 -186 -167 -186c-104 0 -165 71 -165 179v5c0 9 7 16 15 16h34c8 0 16 -7 16 -16v-10
c0 -66 37 -114 101 -114c65 0 101 51 101 123z" />
    <glyph glyph-name="kgreenlandic.case" horiz-adv-x="497" 
d="M491 550h-41c-11 0 -19 11 -14 22l52 98c4 7 10 10 16 10h26c10 0 16 -10 13 -21l-36 -97c-3 -8 -9 -12 -16 -12zM436 0h-44c-8 0 -11 3 -17 10l-229 311c-3 4 -4 2 -4 0v-305c0 -9 -7 -16 -16 -16h-34c-8 0 -15 7 -15 16v648c0 8 7 16 15 16h34c9 0 16 -8 16 -16v-292
c0 -3 2 -5 5 -1l220 301c4 5 7 8 14 8h38c11 0 18 -14 10 -25l-220 -294c-3 -4 -3 -7 1 -13l237 -324c8 -11 0 -24 -11 -24z" />
    <glyph glyph-name="Kcommaaccent" unicode="&#x136;" horiz-adv-x="447" 
d="M436 0h-44c-8 0 -11 3 -17 10l-229 311c-3 4 -4 2 -4 0v-305c0 -9 -7 -16 -16 -16h-34c-8 0 -15 7 -15 16v648c0 8 7 16 15 16h34c9 0 16 -8 16 -16v-292c0 -3 2 -5 5 -1l220 301c4 5 7 8 14 8h38c11 0 18 -14 10 -25l-220 -294c-3 -4 -3 -7 1 -13l237 -324
c8 -11 0 -24 -11 -24zM203 -166h-26c-10 0 -16 10 -13 21l36 97c3 8 9 12 16 12h41c11 0 19 -11 14 -22l-52 -98c-4 -7 -10 -10 -16 -10z" />
    <glyph glyph-name="Lacute" unicode="&#x139;" horiz-adv-x="399" 
d="M121 710h-26c-10 0 -17 10 -13 21l36 97c3 8 9 12 16 12h41c11 0 20 -11 14 -22l-52 -98c-4 -7 -10 -10 -16 -10zM371 0h-279c-8 0 -15 7 -15 16v648c0 8 7 16 15 16h34c9 0 17 -8 17 -17v-589c0 -12 4 -16 14 -16h214c9 0 16 -8 16 -17v-25c0 -9 -7 -16 -16 -16z" />
    <glyph glyph-name="Lcaron" unicode="&#x13d;" horiz-adv-x="399" 
d="M223 550h-16c-10 0 -17 9 -17 21v96c0 8 5 13 12 13h43c11 0 17 -11 15 -22l-22 -98c-3 -7 -9 -10 -15 -10zM371 0h-279c-8 0 -15 7 -15 16v648c0 8 7 16 15 16h34c9 0 17 -8 17 -17v-589c0 -12 4 -16 14 -16h214c9 0 16 -8 16 -17v-25c0 -9 -7 -16 -16 -16z" />
    <glyph glyph-name="Lcommaaccent" unicode="&#x13b;" horiz-adv-x="399" 
d="M371 0h-279c-8 0 -15 7 -15 16v648c0 8 7 16 15 16h34c9 0 17 -8 17 -17v-589c0 -12 4 -16 14 -16h214c9 0 16 -8 16 -17v-25c0 -9 -7 -16 -16 -16zM194 -166h-26c-10 0 -16 10 -13 21l36 97c3 8 9 12 16 12h41c11 0 19 -11 14 -22l-52 -98c-4 -7 -10 -10 -16 -10z" />
    <glyph glyph-name="Ldot" unicode="&#x13f;" horiz-adv-x="399" 
d="M371 0h-279c-8 0 -15 7 -15 16v648c0 8 7 16 15 16h34c9 0 17 -8 17 -17v-589c0 -12 4 -16 14 -16h214c9 0 16 -8 16 -17v-25c0 -9 -7 -16 -16 -16zM315 350c0 -28 -23 -50 -52 -50s-51 22 -51 50c0 30 22 53 51 53s52 -23 52 -53z" />
    <glyph glyph-name="Eng" unicode="&#x14a;" horiz-adv-x="504" 
d="M272 -169v26c0 9 8 16 16 16c54 0 76 23 76 90v9c0 11 -5 26 -9 38l-212 527c-2 3 -4 3 -4 0v-521c0 -9 -8 -16 -16 -16h-31c-8 0 -15 7 -15 16v648c0 8 7 16 15 16h44c6 0 13 -3 16 -11l209 -512c1 -2 3 -2 3 0v507c0 8 7 16 15 16h31c8 0 16 -8 16 -16v-705
c0 -99 -38 -143 -138 -143c-8 0 -16 6 -16 15z" />
    <glyph glyph-name="napostrophe.case" horiz-adv-x="504" 
d="M121 710h-26c-10 0 -16 10 -13 21l36 97c3 8 9 12 16 12h41c11 0 19 -11 14 -22l-52 -98c-4 -7 -10 -10 -16 -10zM410 0h-41c-6 0 -11 3 -14 10l-212 527c-2 4 -4 4 -4 -1v-520c0 -9 -8 -16 -16 -16h-31c-8 0 -15 7 -15 16v648c0 8 7 16 15 16h44c6 0 12 -2 16 -11
l209 -512c1 -3 3 -2 3 0v507c0 8 7 16 15 16h31c8 0 16 -8 16 -16v-648c0 -9 -8 -16 -16 -16z" />
    <glyph glyph-name="Ntilde" unicode="&#xd1;" horiz-adv-x="504" 
d="M365 773c-1 -21 -38 -57 -67 -57c-27 0 -78 31 -98 31c-21 0 -25 -35 -49 -22c-6 3 -10 8 -9 15c2 23 36 56 66 56c29 0 81 -31 98 -31c19 0 27 36 50 23c7 -4 9 -9 9 -15zM410 0h-41c-6 0 -11 3 -14 10l-212 527c-2 4 -4 4 -4 -1v-520c0 -9 -8 -16 -16 -16h-31
c-8 0 -15 7 -15 16v648c0 8 7 16 15 16h44c6 0 12 -2 16 -11l209 -512c1 -3 3 -2 3 0v507c0 8 7 16 15 16h31c8 0 16 -8 16 -16v-648c0 -9 -8 -16 -16 -16z" />
    <glyph glyph-name="Nacute" unicode="&#x143;" horiz-adv-x="504" 
d="M268 710h-26c-10 0 -17 10 -13 21l36 97c3 8 9 12 16 12h41c11 0 20 -11 14 -22l-52 -98c-4 -7 -10 -10 -16 -10zM410 0h-41c-6 0 -11 3 -14 10l-212 527c-2 4 -4 4 -4 -1v-520c0 -9 -8 -16 -16 -16h-31c-8 0 -15 7 -15 16v648c0 8 7 16 15 16h44c6 0 12 -2 16 -11
l209 -512c1 -3 3 -2 3 0v507c0 8 7 16 15 16h31c8 0 16 -8 16 -16v-648c0 -9 -8 -16 -16 -16z" />
    <glyph glyph-name="Ncaron" unicode="&#x147;" horiz-adv-x="504" 
d="M277 710h-48c-5 0 -11 3 -14 9l-59 98c-7 11 0 23 12 23h13c5 0 9 -2 13 -7l51 -59c5 -6 11 -6 17 0l51 59c4 5 8 7 13 7h13c11 0 18 -12 12 -23l-59 -98c-4 -6 -9 -9 -15 -9zM410 0h-41c-6 0 -11 3 -14 10l-212 527c-2 4 -4 4 -4 -1v-520c0 -9 -8 -16 -16 -16h-31
c-8 0 -15 7 -15 16v648c0 8 7 16 15 16h44c6 0 12 -2 16 -11l209 -512c1 -3 3 -2 3 0v507c0 8 7 16 15 16h31c8 0 16 -8 16 -16v-648c0 -9 -8 -16 -16 -16z" />
    <glyph glyph-name="Ncommaaccent" unicode="&#x145;" horiz-adv-x="504" 
d="M410 0h-41c-6 0 -11 3 -14 10l-212 527c-2 4 -4 4 -4 -1v-520c0 -9 -8 -16 -16 -16h-31c-8 0 -15 7 -15 16v648c0 8 7 16 15 16h44c6 0 12 -2 16 -11l209 -512c1 -3 3 -2 3 0v507c0 8 7 16 15 16h31c8 0 16 -8 16 -16v-648c0 -9 -8 -16 -16 -16zM203 -166h-26
c-10 0 -16 10 -13 21l36 97c3 8 9 12 16 12h41c11 0 19 -11 14 -22l-52 -98c-4 -7 -10 -10 -16 -10z" />
    <glyph glyph-name="Oacute" unicode="&#xd3;" horiz-adv-x="486" 
d="M257 710h-26c-10 0 -17 10 -13 21l36 97c3 8 9 12 16 12h41c11 0 20 -11 14 -22l-52 -98c-4 -7 -10 -10 -16 -10zM427 509v-338c0 -107 -86 -179 -185 -179c-98 0 -184 71 -184 179v338c0 107 87 179 185 179c99 0 184 -71 184 -179zM362 170v339c0 71 -56 119 -119 119
c-64 0 -119 -49 -119 -119v-339c0 -69 55 -119 119 -119s119 50 119 119z" />
    <glyph glyph-name="Ocircumflex" unicode="&#xd4;" horiz-adv-x="486" 
d="M328 710h-13c-5 0 -9 2 -13 6l-51 59c-5 6 -12 6 -17 0l-51 -59c-4 -4 -8 -6 -13 -6h-13c-12 0 -19 11 -12 22l59 99c3 5 9 9 14 9h48c7 0 13 -6 15 -9l59 -99c6 -10 -1 -22 -12 -22zM427 509v-338c0 -107 -86 -179 -185 -179c-98 0 -184 71 -184 179v338
c0 107 87 179 185 179c99 0 184 -71 184 -179zM362 170v339c0 71 -56 119 -119 119c-64 0 -119 -49 -119 -119v-339c0 -69 55 -119 119 -119s119 50 119 119z" />
    <glyph glyph-name="Odieresis" unicode="&#xd6;" horiz-adv-x="486" 
d="M346 775c0 -23 -19 -42 -43 -42c-22 0 -41 19 -41 42c0 24 19 42 41 42c24 0 43 -18 43 -42zM223 775c0 -23 -19 -42 -42 -42s-42 19 -42 42c0 24 19 42 42 42s42 -18 42 -42zM427 509v-338c0 -107 -86 -179 -185 -179c-98 0 -184 71 -184 179v338c0 107 87 179 185 179
c99 0 184 -71 184 -179zM362 170v339c0 71 -56 119 -119 119c-64 0 -119 -49 -119 -119v-339c0 -69 55 -119 119 -119s119 50 119 119z" />
    <glyph glyph-name="Ograve" unicode="&#xd2;" horiz-adv-x="486" 
d="M256 710h-27c-6 0 -12 3 -15 10l-52 98c-5 11 3 22 13 22h42c6 0 12 -4 15 -12l36 -97c4 -11 -2 -21 -12 -21zM427 509v-338c0 -107 -86 -179 -185 -179c-98 0 -184 71 -184 179v338c0 107 87 179 185 179c99 0 184 -71 184 -179zM362 170v339c0 71 -56 119 -119 119
c-64 0 -119 -49 -119 -119v-339c0 -69 55 -119 119 -119s119 50 119 119z" />
    <glyph glyph-name="Otilde" unicode="&#xd5;" horiz-adv-x="486" 
d="M354 773c-1 -21 -38 -57 -67 -57c-27 0 -78 31 -98 31c-21 0 -25 -35 -49 -22c-6 3 -10 8 -9 15c2 23 36 56 66 56c29 0 81 -31 98 -31c19 0 27 36 50 23c7 -4 9 -9 9 -15zM427 509v-338c0 -107 -86 -179 -185 -179c-98 0 -184 71 -184 179v338c0 107 87 179 185 179
c99 0 184 -71 184 -179zM362 170v339c0 71 -56 119 -119 119c-64 0 -119 -49 -119 -119v-339c0 -69 55 -119 119 -119s119 50 119 119z" />
    <glyph glyph-name="Obreve" unicode="&#x14e;" horiz-adv-x="486" 
d="M316 840h16c13 0 14 -12 14 -19c0 -56 -34 -111 -103 -111s-103 55 -103 111c0 7 1 19 14 19h16c11 0 14 -11 15 -16c5 -41 27 -63 58 -63c30 0 52 22 58 63c0 5 3 16 15 16zM427 509v-338c0 -107 -86 -179 -185 -179c-98 0 -184 71 -184 179v338c0 107 87 179 185 179
c99 0 184 -71 184 -179zM362 170v339c0 71 -56 119 -119 119c-64 0 -119 -49 -119 -119v-339c0 -69 55 -119 119 -119s119 50 119 119z" />
    <glyph glyph-name="Ohungarumlaut" unicode="&#x150;" horiz-adv-x="486" 
d="M299 710h-15c-10 0 -17 10 -13 21l36 97c3 8 9 12 16 12h30c11 0 19 -11 14 -22l-52 -98c-4 -7 -10 -10 -16 -10zM195 710h-16c-10 0 -16 10 -13 21l37 97c3 8 8 12 15 12h31c11 0 19 -11 13 -22l-52 -98c-3 -7 -9 -10 -15 -10zM427 509v-338c0 -107 -86 -179 -185 -179
c-98 0 -184 71 -184 179v338c0 107 87 179 185 179c99 0 184 -71 184 -179zM362 170v339c0 71 -56 119 -119 119c-64 0 -119 -49 -119 -119v-339c0 -69 55 -119 119 -119s119 50 119 119z" />
    <glyph glyph-name="Omacron" unicode="&#x14c;" horiz-adv-x="486" 
d="M330 747h-175c-8 0 -16 7 -16 15v21c0 8 8 16 16 16h175c8 0 16 -8 16 -16v-21c0 -8 -8 -15 -16 -15zM427 509v-338c0 -107 -86 -179 -185 -179c-98 0 -184 71 -184 179v338c0 107 87 179 185 179c99 0 184 -71 184 -179zM362 170v339c0 71 -56 119 -119 119
c-64 0 -119 -49 -119 -119v-339c0 -69 55 -119 119 -119s119 50 119 119z" />
    <glyph glyph-name="Racute" unicode="&#x154;" horiz-adv-x="456" 
d="M247 710h-26c-10 0 -17 10 -13 21l36 97c3 8 9 12 16 12h41c11 0 20 -11 14 -22l-52 -98c-4 -7 -10 -10 -16 -10zM159 373h76c69 0 125 45 125 125c0 73 -46 124 -125 124h-76c-9 0 -15 -7 -15 -16v-217c0 -8 6 -16 15 -16zM418 0h-41c-8 0 -12 4 -15 11l-116 293
c-3 8 -9 12 -17 12h-70c-9 0 -15 -7 -15 -16v-284c0 -9 -8 -16 -16 -16h-34c-9 0 -15 7 -15 16v648c0 8 6 16 15 16h149c112 0 186 -73 186 -178c0 -78 -44 -137 -112 -167c-9 -4 -10 -11 -7 -19l121 -294c6 -14 -4 -22 -13 -22z" />
    <glyph glyph-name="Rcaron" unicode="&#x158;" horiz-adv-x="456" 
d="M256 710h-48c-5 0 -11 3 -14 9l-59 98c-7 11 0 23 12 23h13c5 0 9 -2 13 -7l51 -59c5 -6 11 -6 17 0l51 59c4 5 8 7 13 7h13c11 0 18 -12 12 -23l-59 -98c-4 -6 -9 -9 -15 -9zM159 373h76c69 0 125 45 125 125c0 73 -46 124 -125 124h-76c-9 0 -15 -7 -15 -16v-217
c0 -8 6 -16 15 -16zM418 0h-41c-8 0 -12 4 -15 11l-116 293c-3 8 -9 12 -17 12h-70c-9 0 -15 -7 -15 -16v-284c0 -9 -8 -16 -16 -16h-34c-9 0 -15 7 -15 16v648c0 8 6 16 15 16h149c112 0 186 -73 186 -178c0 -78 -44 -137 -112 -167c-9 -4 -10 -11 -7 -19l121 -294
c6 -14 -4 -22 -13 -22z" />
    <glyph glyph-name="Rcommaaccent" unicode="&#x156;" horiz-adv-x="456" 
d="M159 373h76c69 0 125 45 125 125c0 73 -46 124 -125 124h-76c-9 0 -15 -7 -15 -16v-217c0 -8 6 -16 15 -16zM418 0h-41c-8 0 -12 4 -15 11l-116 293c-3 8 -9 12 -17 12h-70c-9 0 -15 -7 -15 -16v-284c0 -9 -8 -16 -16 -16h-34c-9 0 -15 7 -15 16v648c0 8 6 16 15 16h149
c112 0 186 -73 186 -178c0 -78 -44 -137 -112 -167c-9 -4 -10 -11 -7 -19l121 -294c6 -14 -4 -22 -13 -22zM216 -166h-26c-10 0 -16 10 -13 21l36 97c3 8 9 12 16 12h41c11 0 19 -11 14 -22l-52 -98c-4 -7 -10 -10 -16 -10z" />
    <glyph glyph-name="Scaron" unicode="&#x160;" horiz-adv-x="414" 
d="M235 710h-48c-5 0 -11 3 -14 9l-59 98c-7 11 0 23 12 23h13c5 0 9 -2 13 -7l51 -59c5 -6 11 -6 17 0l51 59c4 5 8 7 13 7h13c11 0 18 -12 12 -23l-59 -98c-4 -6 -9 -9 -15 -9zM362 492h-31c-9 0 -15 8 -15 16c0 78 -50 121 -113 121c-62 0 -105 -39 -105 -97
c0 -140 287 -203 287 -372c0 -100 -78 -168 -182 -168c-92 0 -173 55 -173 172c0 10 0 25 15 25h33c8 0 15 -8 15 -16c0 -82 52 -121 114 -121c61 0 111 38 111 106c0 132 -285 199 -285 369c0 98 78 161 175 161c90 0 170 -53 170 -175c0 -9 -4 -21 -16 -21z" />
    <glyph glyph-name="Sacute" unicode="&#x15a;" horiz-adv-x="414" 
d="M226 710h-26c-10 0 -17 10 -13 21l36 97c3 8 9 12 16 12h41c11 0 20 -11 14 -22l-52 -98c-4 -7 -10 -10 -16 -10zM362 492h-31c-9 0 -15 8 -15 16c0 78 -50 121 -113 121c-62 0 -105 -39 -105 -97c0 -140 287 -203 287 -372c0 -100 -78 -168 -182 -168
c-92 0 -173 55 -173 172c0 10 0 25 15 25h33c8 0 15 -8 15 -16c0 -82 52 -121 114 -121c61 0 111 38 111 106c0 132 -285 199 -285 369c0 98 78 161 175 161c90 0 170 -53 170 -175c0 -9 -4 -21 -16 -21z" />
    <glyph glyph-name="Scedilla" unicode="&#x15e;" horiz-adv-x="414" 
d="M362 492h-31c-9 0 -15 8 -15 16c0 78 -50 121 -113 121c-62 0 -105 -39 -105 -97c0 -140 287 -203 287 -372c0 -100 -78 -168 -182 -168c-92 0 -173 55 -173 172c0 10 0 25 15 25h33c8 0 15 -8 15 -16c0 -82 52 -121 114 -121c61 0 111 38 111 106
c0 132 -285 199 -285 369c0 98 78 161 175 161c90 0 170 -53 170 -175c0 -9 -4 -21 -16 -21zM155 -168v10c0 16 10 17 17 16c9 -2 19 -3 27 -3c20 0 36 10 36 28c0 21 -32 50 -69 70c-6 4 -5 13 2 13h44c6 0 11 -1 17 -5c38 -23 66 -54 66 -86c0 -30 -26 -65 -84 -65
c-10 0 -24 1 -42 6c-7 2 -14 5 -14 16z" />
    <glyph glyph-name="Scircumflex" unicode="&#x15c;" horiz-adv-x="414" 
d="M297 710h-13c-5 0 -9 2 -13 6l-51 59c-5 6 -12 6 -17 0l-51 -59c-4 -4 -8 -6 -13 -6h-13c-12 0 -19 11 -12 22l59 99c3 5 9 9 14 9h48c7 0 13 -6 15 -9l59 -99c6 -10 -1 -22 -12 -22zM362 492h-31c-9 0 -15 8 -15 16c0 78 -50 121 -113 121c-62 0 -105 -39 -105 -97
c0 -140 287 -203 287 -372c0 -100 -78 -168 -182 -168c-92 0 -173 55 -173 172c0 10 0 25 15 25h33c8 0 15 -8 15 -16c0 -82 52 -121 114 -121c61 0 111 38 111 106c0 132 -285 199 -285 369c0 98 78 161 175 161c90 0 170 -53 170 -175c0 -9 -4 -21 -16 -21z" />
    <glyph glyph-name="Scommaaccent" unicode="&#x218;" horiz-adv-x="414" 
d="M362 492h-31c-9 0 -15 8 -15 16c0 78 -50 121 -113 121c-62 0 -105 -39 -105 -97c0 -140 287 -203 287 -372c0 -100 -78 -168 -182 -168c-92 0 -173 55 -173 172c0 10 0 25 15 25h33c8 0 15 -8 15 -16c0 -82 52 -121 114 -121c61 0 111 38 111 106
c0 132 -285 199 -285 369c0 98 78 161 175 161c90 0 170 -53 170 -175c0 -9 -4 -21 -16 -21zM179 -166h-26c-10 0 -16 10 -13 21l36 97c3 8 9 12 16 12h41c11 0 19 -11 14 -22l-52 -98c-4 -7 -10 -10 -16 -10z" />
    <glyph glyph-name="Tbar" unicode="&#x166;" horiz-adv-x="409" 
d="M222 0h-35c-8 0 -16 7 -16 16v307h-77c-8 0 -16 6 -16 15v23c0 8 8 15 16 15h77v230c0 9 -7 16 -16 16h-123c-9 0 -17 7 -17 16v26c0 9 8 16 17 16h344c9 0 17 -7 17 -16v-26c0 -9 -8 -16 -17 -16h-123c-9 0 -16 -7 -16 -16v-230h79c8 0 16 -7 16 -15v-23
c0 -9 -8 -15 -16 -15h-79v-307c0 -9 -7 -16 -15 -16z" />
    <glyph glyph-name="Tcaron" unicode="&#x164;" horiz-adv-x="409" 
d="M230 710h-48c-5 0 -11 3 -14 9l-59 98c-7 11 0 23 12 23h13c5 0 9 -2 13 -7l51 -59c5 -6 11 -6 17 0l51 59c4 5 8 7 13 7h13c11 0 18 -12 12 -23l-59 -98c-4 -6 -9 -9 -15 -9zM222 0h-35c-8 0 -16 7 -16 16v590c0 9 -7 16 -16 16h-123c-9 0 -17 7 -17 16v26
c0 9 8 16 17 16h344c9 0 17 -7 17 -16v-26c0 -9 -8 -16 -17 -16h-123c-9 0 -16 -7 -16 -16v-590c0 -9 -7 -16 -15 -16z" />
    <glyph glyph-name="uni0162" unicode="&#x162;" horiz-adv-x="409" 
d="M222 0h-35c-8 0 -16 7 -16 16v590c0 9 -7 16 -16 16h-123c-9 0 -17 7 -17 16v26c0 9 8 16 17 16h344c9 0 17 -7 17 -16v-26c0 -9 -8 -16 -17 -16h-123c-9 0 -16 -7 -16 -16v-590c0 -9 -7 -16 -15 -16zM167 -166h-26c-10 0 -16 10 -13 21l36 97c3 8 9 12 16 12h41
c11 0 19 -11 14 -22l-52 -98c-4 -7 -10 -10 -16 -10z" />
    <glyph glyph-name="uni021A" unicode="&#x21a;" horiz-adv-x="409" 
d="M222 0h-35c-8 0 -16 7 -16 16v590c0 9 -7 16 -16 16h-123c-9 0 -17 7 -17 16v26c0 9 8 16 17 16h344c9 0 17 -7 17 -16v-26c0 -9 -8 -16 -17 -16h-123c-9 0 -16 -7 -16 -16v-590c0 -9 -7 -16 -15 -16zM170 -166h-26c-10 0 -16 10 -13 21l36 97c3 8 9 12 16 12h41
c11 0 19 -11 14 -22l-52 -98c-4 -7 -10 -10 -16 -10z" />
    <glyph glyph-name="Uacute" unicode="&#xda;" horiz-adv-x="499" 
d="M264 710h-26c-10 0 -17 10 -13 21l36 97c3 8 9 12 16 12h41c11 0 20 -11 14 -22l-52 -98c-4 -7 -10 -10 -16 -10zM359 169v494c0 9 7 17 16 17h33c9 0 16 -8 16 -17v-492c0 -104 -75 -179 -175 -179s-175 75 -175 179v492c0 9 7 17 16 17h33c9 0 16 -8 16 -17v-494
c0 -65 45 -117 110 -117c64 0 110 52 110 117z" />
    <glyph glyph-name="Ucircumflex" unicode="&#xdb;" horiz-adv-x="499" 
d="M335 710h-13c-5 0 -9 2 -13 6l-51 59c-5 6 -12 6 -17 0l-51 -59c-4 -4 -8 -6 -13 -6h-13c-12 0 -19 11 -12 22l59 99c3 5 9 9 14 9h48c7 0 13 -6 15 -9l59 -99c6 -10 -1 -22 -12 -22zM359 169v494c0 9 7 17 16 17h33c9 0 16 -8 16 -17v-492c0 -104 -75 -179 -175 -179
s-175 75 -175 179v492c0 9 7 17 16 17h33c9 0 16 -8 16 -17v-494c0 -65 45 -117 110 -117c64 0 110 52 110 117z" />
    <glyph glyph-name="Udieresis" unicode="&#xdc;" horiz-adv-x="499" 
d="M353 775c0 -23 -19 -42 -43 -42c-22 0 -41 19 -41 42c0 24 19 42 41 42c24 0 43 -18 43 -42zM230 775c0 -23 -19 -42 -42 -42s-42 19 -42 42c0 24 19 42 42 42s42 -18 42 -42zM359 169v494c0 9 7 17 16 17h33c9 0 16 -8 16 -17v-492c0 -104 -75 -179 -175 -179
s-175 75 -175 179v492c0 9 7 17 16 17h33c9 0 16 -8 16 -17v-494c0 -65 45 -117 110 -117c64 0 110 52 110 117z" />
    <glyph glyph-name="Ugrave" unicode="&#xd9;" horiz-adv-x="499" 
d="M263 710h-27c-6 0 -12 3 -15 10l-52 98c-5 11 3 22 13 22h42c6 0 12 -4 15 -12l36 -97c4 -11 -2 -21 -12 -21zM359 169v494c0 9 7 17 16 17h33c9 0 16 -8 16 -17v-492c0 -104 -75 -179 -175 -179s-175 75 -175 179v492c0 9 7 17 16 17h33c9 0 16 -8 16 -17v-494
c0 -65 45 -117 110 -117c64 0 110 52 110 117z" />
    <glyph glyph-name="Ubreve" unicode="&#x16c;" horiz-adv-x="499" 
d="M323 840h16c13 0 14 -12 14 -19c0 -56 -34 -111 -103 -111s-103 55 -103 111c0 7 1 19 14 19h16c11 0 14 -11 15 -16c5 -41 27 -63 58 -63c30 0 52 22 58 63c0 5 3 16 15 16zM359 169v494c0 9 7 17 16 17h33c9 0 16 -8 16 -17v-492c0 -104 -75 -179 -175 -179
s-175 75 -175 179v492c0 9 7 17 16 17h33c9 0 16 -8 16 -17v-494c0 -65 45 -117 110 -117c64 0 110 52 110 117z" />
    <glyph glyph-name="Uhungarumlaut" unicode="&#x170;" horiz-adv-x="499" 
d="M306 710h-15c-10 0 -17 10 -13 21l36 97c3 8 9 12 16 12h30c11 0 19 -11 14 -22l-52 -98c-4 -7 -10 -10 -16 -10zM202 710h-16c-10 0 -16 10 -13 21l37 97c3 8 8 12 15 12h31c11 0 19 -11 13 -22l-52 -98c-3 -7 -9 -10 -15 -10zM359 169v494c0 9 7 17 16 17h33
c9 0 16 -8 16 -17v-492c0 -104 -75 -179 -175 -179s-175 75 -175 179v492c0 9 7 17 16 17h33c9 0 16 -8 16 -17v-494c0 -65 45 -117 110 -117c64 0 110 52 110 117z" />
    <glyph glyph-name="Umacron" unicode="&#x16a;" horiz-adv-x="499" 
d="M337 747h-175c-8 0 -16 7 -16 15v21c0 8 8 16 16 16h175c8 0 16 -8 16 -16v-21c0 -8 -8 -15 -16 -15zM359 169v494c0 9 7 17 16 17h33c9 0 16 -8 16 -17v-492c0 -104 -75 -179 -175 -179s-175 75 -175 179v492c0 9 7 17 16 17h33c9 0 16 -8 16 -17v-494
c0 -65 45 -117 110 -117c64 0 110 52 110 117z" />
    <glyph glyph-name="Uogonek" unicode="&#x172;" horiz-adv-x="499" 
d="M359 169v494c0 9 7 17 16 17h33c9 0 16 -8 16 -17v-492c0 -104 -75 -179 -175 -179s-175 75 -175 179v492c0 9 7 17 16 17h33c9 0 16 -8 16 -17v-494c0 -65 45 -117 110 -117c64 0 110 52 110 117zM287 -152v-10c0 -11 -7 -14 -15 -16c-18 -5 -31 -6 -41 -6
c-59 0 -85 35 -85 65c0 32 29 63 67 86c6 4 10 5 16 5h44c8 0 9 -9 3 -13c-38 -20 -69 -49 -69 -70c0 -18 16 -28 36 -28c7 0 17 1 26 3c8 1 18 0 18 -16z" />
    <glyph glyph-name="Uring" unicode="&#x16e;" horiz-adv-x="499" 
d="M334 794c0 -47 -37 -84 -85 -84c-47 0 -84 37 -84 84s37 85 84 85c48 0 85 -38 85 -85zM249 748c24 0 45 20 45 46c0 24 -21 45 -45 45s-43 -21 -43 -45c0 -26 19 -46 43 -46zM359 169v494c0 9 7 17 16 17h33c9 0 16 -8 16 -17v-492c0 -104 -75 -179 -175 -179
s-175 75 -175 179v492c0 9 7 17 16 17h33c9 0 16 -8 16 -17v-494c0 -65 45 -117 110 -117c64 0 110 52 110 117z" />
    <glyph glyph-name="Utilde" unicode="&#x168;" horiz-adv-x="499" 
d="M361 773c-1 -21 -38 -57 -67 -57c-27 0 -78 31 -98 31c-21 0 -25 -35 -49 -22c-6 3 -10 8 -9 15c2 23 36 56 66 56c29 0 81 -31 98 -31c19 0 27 36 50 23c7 -4 9 -9 9 -15zM359 169v494c0 9 7 17 16 17h33c9 0 16 -8 16 -17v-492c0 -104 -75 -179 -175 -179
s-175 75 -175 179v492c0 9 7 17 16 17h33c9 0 16 -8 16 -17v-494c0 -65 45 -117 110 -117c64 0 110 52 110 117z" />
    <glyph glyph-name="Wacute" unicode="&#x1e82;" horiz-adv-x="627" 
d="M331 710h-26c-10 0 -17 10 -13 21l36 97c3 8 9 12 16 12h41c11 0 20 -11 14 -22l-52 -98c-4 -7 -10 -10 -16 -10zM467 0h-37c-8 0 -13 5 -15 14l-100 516c-1 4 -5 4 -6 0l-102 -518c-2 -8 -7 -12 -13 -12h-40c-7 0 -13 5 -15 13l-125 648c-2 9 4 19 14 19h37
c7 0 14 -5 16 -14l95 -534c1 -5 4 -5 5 0l104 534c2 8 7 14 15 14h29c8 0 14 -7 15 -14l102 -534c1 -5 4 -5 5 0l97 534c1 8 7 14 15 14h33c10 0 18 -7 16 -19l-129 -648c-1 -7 -8 -13 -16 -13z" />
    <glyph glyph-name="Wcircumflex" unicode="&#x174;" horiz-adv-x="627" 
d="M402 710h-13c-5 0 -9 2 -13 6l-51 59c-5 6 -12 6 -17 0l-51 -59c-4 -4 -8 -6 -13 -6h-13c-12 0 -19 11 -12 22l59 99c3 5 9 9 14 9h48c7 0 13 -6 15 -9l59 -99c6 -10 -1 -22 -12 -22zM467 0h-37c-8 0 -13 5 -15 14l-100 516c-1 4 -5 4 -6 0l-102 -518
c-2 -8 -7 -12 -13 -12h-40c-7 0 -13 5 -15 13l-125 648c-2 9 4 19 14 19h37c7 0 14 -5 16 -14l95 -534c1 -5 4 -5 5 0l104 534c2 8 7 14 15 14h29c8 0 14 -7 15 -14l102 -534c1 -5 4 -5 5 0l97 534c1 8 7 14 15 14h33c10 0 18 -7 16 -19l-129 -648c-1 -7 -8 -13 -16 -13z
" />
    <glyph glyph-name="Wdieresis" unicode="&#x1e84;" horiz-adv-x="627" 
d="M420 775c0 -23 -19 -42 -43 -42c-22 0 -41 19 -41 42c0 24 19 42 41 42c24 0 43 -18 43 -42zM297 775c0 -23 -19 -42 -42 -42s-42 19 -42 42c0 24 19 42 42 42s42 -18 42 -42zM467 0h-37c-8 0 -13 5 -15 14l-100 516c-1 4 -5 4 -6 0l-102 -518c-2 -8 -7 -12 -13 -12h-40
c-7 0 -13 5 -15 13l-125 648c-2 9 4 19 14 19h37c7 0 14 -5 16 -14l95 -534c1 -5 4 -5 5 0l104 534c2 8 7 14 15 14h29c8 0 14 -7 15 -14l102 -534c1 -5 4 -5 5 0l97 534c1 8 7 14 15 14h33c10 0 18 -7 16 -19l-129 -648c-1 -7 -8 -13 -16 -13z" />
    <glyph glyph-name="Wgrave" unicode="&#x1e80;" horiz-adv-x="627" 
d="M330 710h-27c-6 0 -12 3 -15 10l-52 98c-5 11 3 22 13 22h42c6 0 12 -4 15 -12l36 -97c4 -11 -2 -21 -12 -21zM467 0h-37c-8 0 -13 5 -15 14l-100 516c-1 4 -5 4 -6 0l-102 -518c-2 -8 -7 -12 -13 -12h-40c-7 0 -13 5 -15 13l-125 648c-2 9 4 19 14 19h37
c7 0 14 -5 16 -14l95 -534c1 -5 4 -5 5 0l104 534c2 8 7 14 15 14h29c8 0 14 -7 15 -14l102 -534c1 -5 4 -5 5 0l97 534c1 8 7 14 15 14h33c10 0 18 -7 16 -19l-129 -648c-1 -7 -8 -13 -16 -13z" />
    <glyph glyph-name="Yacute" unicode="&#xdd;" horiz-adv-x="398" 
d="M223 710h-26c-10 0 -17 10 -13 21l36 97c3 8 9 12 16 12h41c11 0 20 -11 14 -22l-52 -98c-4 -7 -10 -10 -16 -10zM214 0h-34c-8 0 -15 7 -15 16v242c0 10 -3 21 -7 31l-147 369c-4 10 3 22 13 22h38c7 0 12 -4 15 -11l118 -307c3 -7 6 -7 9 0l120 307c3 7 9 11 15 11h33
c11 0 17 -12 14 -21l-150 -369c-4 -11 -6 -21 -6 -32v-242c0 -9 -8 -16 -16 -16z" />
    <glyph glyph-name="Ydieresis" unicode="&#x178;" horiz-adv-x="398" 
d="M312 775c0 -23 -19 -42 -43 -42c-22 0 -41 19 -41 42c0 24 19 42 41 42c24 0 43 -18 43 -42zM189 775c0 -23 -19 -42 -42 -42s-42 19 -42 42c0 24 19 42 42 42s42 -18 42 -42zM214 0h-34c-8 0 -15 7 -15 16v242c0 10 -3 21 -7 31l-147 369c-4 10 3 22 13 22h38
c7 0 12 -4 15 -11l118 -307c3 -7 6 -7 9 0l120 307c3 7 9 11 15 11h33c11 0 17 -12 14 -21l-150 -369c-4 -11 -6 -21 -6 -32v-242c0 -9 -8 -16 -16 -16z" />
    <glyph glyph-name="Ycircumflex" unicode="&#x176;" horiz-adv-x="398" 
d="M294 710h-13c-5 0 -9 2 -13 6l-51 59c-5 6 -12 6 -17 0l-51 -59c-4 -4 -8 -6 -13 -6h-13c-12 0 -19 11 -12 22l59 99c3 5 9 9 14 9h48c7 0 13 -6 15 -9l59 -99c6 -10 -1 -22 -12 -22zM214 0h-34c-8 0 -15 7 -15 16v242c0 10 -3 21 -7 31l-147 369c-4 10 3 22 13 22h38
c7 0 12 -4 15 -11l118 -307c3 -7 6 -7 9 0l120 307c3 7 9 11 15 11h33c11 0 17 -12 14 -21l-150 -369c-4 -11 -6 -21 -6 -32v-242c0 -9 -8 -16 -16 -16z" />
    <glyph glyph-name="Ygrave" unicode="&#x1ef2;" horiz-adv-x="398" 
d="M222 710h-27c-6 0 -12 3 -15 10l-52 98c-5 11 3 22 13 22h42c6 0 12 -4 15 -12l36 -97c4 -11 -2 -21 -12 -21zM214 0h-34c-8 0 -15 7 -15 16v242c0 10 -3 21 -7 31l-147 369c-4 10 3 22 13 22h38c7 0 12 -4 15 -11l118 -307c3 -7 6 -7 9 0l120 307c3 7 9 11 15 11h33
c11 0 17 -12 14 -21l-150 -369c-4 -11 -6 -21 -6 -32v-242c0 -9 -8 -16 -16 -16z" />
    <glyph glyph-name="Zcaron" unicode="&#x17d;" horiz-adv-x="395" 
d="M227 710h-48c-5 0 -11 3 -14 9l-59 98c-7 11 0 23 12 23h13c5 0 9 -2 13 -7l51 -59c5 -6 11 -6 17 0l51 59c4 5 8 7 13 7h13c11 0 18 -12 12 -23l-59 -98c-4 -6 -9 -9 -15 -9zM357 0h-319c-8 0 -16 6 -16 15v27c0 10 3 18 7 27l261 543c3 7 2 10 -4 10h-242
c-9 0 -16 6 -16 15v27c0 8 7 16 16 16h308c9 0 17 -7 17 -16v-23c0 -7 -3 -15 -7 -24l-265 -549c-3 -6 -2 -10 4 -10h256c9 0 16 -7 16 -16v-27c0 -9 -7 -15 -16 -15z" />
    <glyph glyph-name="Zacute" unicode="&#x179;" horiz-adv-x="395" 
d="M218 710h-26c-10 0 -17 10 -13 21l36 97c3 8 9 12 16 12h41c11 0 20 -11 14 -22l-52 -98c-4 -7 -10 -10 -16 -10zM357 0h-319c-8 0 -16 6 -16 15v27c0 10 3 18 7 27l261 543c3 7 2 10 -4 10h-242c-9 0 -16 6 -16 15v27c0 8 7 16 16 16h308c9 0 17 -7 17 -16v-23
c0 -7 -3 -15 -7 -24l-265 -549c-3 -6 -2 -10 4 -10h256c9 0 16 -7 16 -16v-27c0 -9 -7 -15 -16 -15z" />
    <glyph glyph-name="Zdotaccent" unicode="&#x17b;" horiz-adv-x="395" 
d="M250 775c0 -26 -21 -46 -47 -46s-46 20 -46 46s20 47 46 47s47 -21 47 -47zM357 0h-319c-8 0 -16 6 -16 15v27c0 10 3 18 7 27l261 543c3 7 2 10 -4 10h-242c-9 0 -16 6 -16 15v27c0 8 7 16 16 16h308c9 0 17 -7 17 -16v-23c0 -7 -3 -15 -7 -24l-265 -549
c-3 -6 -2 -10 4 -10h256c9 0 16 -7 16 -16v-27c0 -9 -7 -15 -16 -15z" />
    <glyph glyph-name="aacute" unicode="&#xe1;" horiz-adv-x="473" 
d="M249 550h-26c-10 0 -17 10 -13 21l36 97c3 8 9 12 16 12h41c11 0 20 -11 14 -22l-52 -98c-4 -7 -10 -10 -16 -10zM342 177v141c0 81 -50 123 -116 123s-112 -40 -112 -115v-165c0 -74 45 -113 111 -113c69 0 117 47 117 129zM387 0h-29c-8 0 -15 7 -15 16v40
c-24 -34 -66 -64 -135 -64c-92 0 -155 58 -155 168v166c0 105 65 172 164 172c64 0 102 -30 126 -61v37c0 8 7 16 15 16h29c9 0 16 -8 16 -16v-458c0 -9 -7 -16 -16 -16z" />
    <glyph glyph-name="acircumflex" unicode="&#xe2;" horiz-adv-x="473" 
d="M320 550h-13c-5 0 -9 2 -13 6l-51 59c-5 6 -12 6 -17 0l-51 -59c-4 -4 -8 -6 -13 -6h-13c-12 0 -19 11 -12 22l59 99c3 5 9 9 14 9h48c7 0 13 -6 15 -9l59 -99c6 -10 -1 -22 -12 -22zM342 177v141c0 81 -50 123 -116 123s-112 -40 -112 -115v-165c0 -74 45 -113 111 -113
c69 0 117 47 117 129zM387 0h-29c-8 0 -15 7 -15 16v40c-24 -34 -66 -64 -135 -64c-92 0 -155 58 -155 168v166c0 105 65 172 164 172c64 0 102 -30 126 -61v37c0 8 7 16 15 16h29c9 0 16 -8 16 -16v-458c0 -9 -7 -16 -16 -16z" />
    <glyph glyph-name="adieresis" unicode="&#xe4;" horiz-adv-x="473" 
d="M338 615c0 -23 -19 -42 -43 -42c-22 0 -41 19 -41 42c0 24 19 42 41 42c24 0 43 -18 43 -42zM215 615c0 -23 -19 -42 -42 -42s-42 19 -42 42c0 24 19 42 42 42s42 -18 42 -42zM342 177v141c0 81 -50 123 -116 123s-112 -40 -112 -115v-165c0 -74 45 -113 111 -113
c69 0 117 47 117 129zM387 0h-29c-8 0 -15 7 -15 16v40c-24 -34 -66 -64 -135 -64c-92 0 -155 58 -155 168v166c0 105 65 172 164 172c64 0 102 -30 126 -61v37c0 8 7 16 15 16h29c9 0 16 -8 16 -16v-458c0 -9 -7 -16 -16 -16z" />
    <glyph glyph-name="agrave" unicode="&#xe0;" horiz-adv-x="473" 
d="M248 550h-27c-6 0 -12 3 -15 10l-52 98c-5 11 3 22 13 22h42c6 0 12 -4 15 -12l36 -97c4 -11 -2 -21 -12 -21zM342 177v141c0 81 -50 123 -116 123s-112 -40 -112 -115v-165c0 -74 45 -113 111 -113c69 0 117 47 117 129zM387 0h-29c-8 0 -15 7 -15 16v40
c-24 -34 -66 -64 -135 -64c-92 0 -155 58 -155 168v166c0 105 65 172 164 172c64 0 102 -30 126 -61v37c0 8 7 16 15 16h29c9 0 16 -8 16 -16v-458c0 -9 -7 -16 -16 -16z" />
    <glyph glyph-name="aring" unicode="&#xe5;" horiz-adv-x="473" 
d="M319 634c0 -47 -37 -84 -85 -84c-47 0 -84 37 -84 84s37 85 84 85c48 0 85 -38 85 -85zM234 588c24 0 45 20 45 46c0 24 -21 45 -45 45s-43 -21 -43 -45c0 -26 19 -46 43 -46zM342 177v141c0 81 -50 123 -116 123s-112 -40 -112 -115v-165c0 -74 45 -113 111 -113
c69 0 117 47 117 129zM387 0h-29c-8 0 -15 7 -15 16v40c-24 -34 -66 -64 -135 -64c-92 0 -155 58 -155 168v166c0 105 65 172 164 172c64 0 102 -30 126 -61v37c0 8 7 16 15 16h29c9 0 16 -8 16 -16v-458c0 -9 -7 -16 -16 -16z" />
    <glyph glyph-name="atilde" unicode="&#xe3;" horiz-adv-x="473" 
d="M346 613c-1 -21 -38 -57 -67 -57c-27 0 -78 31 -98 31c-21 0 -25 -35 -49 -22c-6 3 -10 8 -9 15c2 23 36 56 66 56c29 0 81 -31 98 -31c19 0 27 36 50 23c7 -4 9 -9 9 -15zM342 177v141c0 81 -50 123 -116 123s-112 -40 -112 -115v-165c0 -74 45 -113 111 -113
c69 0 117 47 117 129zM387 0h-29c-8 0 -15 7 -15 16v40c-24 -34 -66 -64 -135 -64c-92 0 -155 58 -155 168v166c0 105 65 172 164 172c64 0 102 -30 126 -61v37c0 8 7 16 15 16h29c9 0 16 -8 16 -16v-458c0 -9 -7 -16 -16 -16z" />
    <glyph glyph-name="abreve" unicode="&#x103;" horiz-adv-x="473" 
d="M308 680h16c13 0 14 -12 14 -19c0 -56 -34 -111 -103 -111s-103 55 -103 111c0 7 1 19 14 19h16c11 0 14 -11 15 -16c5 -41 27 -63 58 -63c30 0 52 22 58 63c0 5 3 16 15 16zM342 177v141c0 81 -50 123 -116 123s-112 -40 -112 -115v-165c0 -74 45 -113 111 -113
c69 0 117 47 117 129zM387 0h-29c-8 0 -15 7 -15 16v40c-24 -34 -66 -64 -135 -64c-92 0 -155 58 -155 168v166c0 105 65 172 164 172c64 0 102 -30 126 -61v37c0 8 7 16 15 16h29c9 0 16 -8 16 -16v-458c0 -9 -7 -16 -16 -16z" />
    <glyph glyph-name="amacron" unicode="&#x101;" horiz-adv-x="473" 
d="M322 587h-175c-8 0 -16 7 -16 15v21c0 8 8 16 16 16h175c8 0 16 -8 16 -16v-21c0 -8 -8 -15 -16 -15zM342 177v141c0 81 -50 123 -116 123s-112 -40 -112 -115v-165c0 -74 45 -113 111 -113c69 0 117 47 117 129zM387 0h-29c-8 0 -15 7 -15 16v40
c-24 -34 -66 -64 -135 -64c-92 0 -155 58 -155 168v166c0 105 65 172 164 172c64 0 102 -30 126 -61v37c0 8 7 16 15 16h29c9 0 16 -8 16 -16v-458c0 -9 -7 -16 -16 -16z" />
    <glyph glyph-name="aogonek" unicode="&#x105;" horiz-adv-x="473" 
d="M342 177v141c0 81 -50 123 -116 123s-112 -40 -112 -115v-165c0 -74 45 -113 111 -113c69 0 117 47 117 129zM387 0h-29c-8 0 -15 7 -15 16v40c-24 -34 -66 -64 -135 -64c-92 0 -155 58 -155 168v166c0 105 65 172 164 172c64 0 102 -30 126 -61v37c0 8 7 16 15 16h29
c9 0 16 -8 16 -16v-458c0 -9 -7 -16 -16 -16zM408 -152v-10c0 -11 -7 -14 -15 -16c-18 -5 -31 -6 -41 -6c-59 0 -85 35 -85 65c0 32 29 63 67 86c6 4 10 5 16 5h44c8 0 9 -9 3 -13c-38 -20 -69 -49 -69 -70c0 -18 16 -28 36 -28c7 0 17 1 26 3c8 1 18 0 18 -16z" />
    <glyph glyph-name="aacute.alt" horiz-adv-x="468" 
d="M246 550h-26c-10 0 -17 10 -13 21l36 97c3 8 9 12 16 12h41c11 0 20 -11 14 -22l-52 -98c-4 -7 -10 -10 -16 -10zM336 151v73h-123c-66 0 -106 -24 -106 -90c0 -73 52 -87 106 -87c74 0 123 29 123 104zM383 0h-30c-9 0 -15 7 -15 15v39c-26 -39 -67 -62 -138 -62
c-82 0 -155 28 -155 141c0 110 71 145 164 145h127v72c0 65 -43 90 -109 90c-60 0 -106 -22 -106 -76c0 -10 -6 -17 -16 -17h-33c-8 0 -14 7 -14 17c0 95 74 134 174 134s166 -41 166 -143v-340c0 -8 -7 -15 -15 -15z" />
    <glyph glyph-name="acircumflex.alt" horiz-adv-x="468" 
d="M317 550h-13c-5 0 -9 2 -13 6l-51 59c-5 6 -12 6 -17 0l-51 -59c-4 -4 -8 -6 -13 -6h-13c-12 0 -19 11 -12 22l59 99c3 5 9 9 14 9h48c7 0 13 -6 15 -9l59 -99c6 -10 -1 -22 -12 -22zM336 151v73h-123c-66 0 -106 -24 -106 -90c0 -73 52 -87 106 -87c74 0 123 29 123 104
zM383 0h-30c-9 0 -15 7 -15 15v39c-26 -39 -67 -62 -138 -62c-82 0 -155 28 -155 141c0 110 71 145 164 145h127v72c0 65 -43 90 -109 90c-60 0 -106 -22 -106 -76c0 -10 -6 -17 -16 -17h-33c-8 0 -14 7 -14 17c0 95 74 134 174 134s166 -41 166 -143v-340
c0 -8 -7 -15 -15 -15z" />
    <glyph glyph-name="adieresis.alt" horiz-adv-x="468" 
d="M335 615c0 -23 -19 -42 -43 -42c-22 0 -41 19 -41 42c0 24 19 42 41 42c24 0 43 -18 43 -42zM212 615c0 -23 -19 -42 -42 -42s-42 19 -42 42c0 24 19 42 42 42s42 -18 42 -42zM336 151v73h-123c-66 0 -106 -24 -106 -90c0 -73 52 -87 106 -87c74 0 123 29 123 104zM383 0
h-30c-9 0 -15 7 -15 15v39c-26 -39 -67 -62 -138 -62c-82 0 -155 28 -155 141c0 110 71 145 164 145h127v72c0 65 -43 90 -109 90c-60 0 -106 -22 -106 -76c0 -10 -6 -17 -16 -17h-33c-8 0 -14 7 -14 17c0 95 74 134 174 134s166 -41 166 -143v-340c0 -8 -7 -15 -15 -15z
" />
    <glyph glyph-name="agrave.alt" horiz-adv-x="468" 
d="M245 550h-27c-6 0 -12 3 -15 10l-52 98c-5 11 3 22 13 22h42c6 0 12 -4 15 -12l36 -97c4 -11 -2 -21 -12 -21zM336 151v73h-123c-66 0 -106 -24 -106 -90c0 -73 52 -87 106 -87c74 0 123 29 123 104zM383 0h-30c-9 0 -15 7 -15 15v39c-26 -39 -67 -62 -138 -62
c-82 0 -155 28 -155 141c0 110 71 145 164 145h127v72c0 65 -43 90 -109 90c-60 0 -106 -22 -106 -76c0 -10 -6 -17 -16 -17h-33c-8 0 -14 7 -14 17c0 95 74 134 174 134s166 -41 166 -143v-340c0 -8 -7 -15 -15 -15z" />
    <glyph glyph-name="aring.alt" horiz-adv-x="468" 
d="M316 634c0 -47 -37 -84 -85 -84c-47 0 -84 37 -84 84s37 85 84 85c48 0 85 -38 85 -85zM231 588c24 0 45 20 45 46c0 24 -21 45 -45 45s-43 -21 -43 -45c0 -26 19 -46 43 -46zM336 151v73h-123c-66 0 -106 -24 -106 -90c0 -73 52 -87 106 -87c74 0 123 29 123 104zM383 0
h-30c-9 0 -15 7 -15 15v39c-26 -39 -67 -62 -138 -62c-82 0 -155 28 -155 141c0 110 71 145 164 145h127v72c0 65 -43 90 -109 90c-60 0 -106 -22 -106 -76c0 -10 -6 -17 -16 -17h-33c-8 0 -14 7 -14 17c0 95 74 134 174 134s166 -41 166 -143v-340c0 -8 -7 -15 -15 -15z
" />
    <glyph glyph-name="atilde.alt" horiz-adv-x="468" 
d="M343 613c-1 -21 -38 -57 -67 -57c-27 0 -78 31 -98 31c-21 0 -25 -35 -49 -22c-6 3 -10 8 -9 15c2 23 36 56 66 56c29 0 81 -31 98 -31c19 0 27 36 50 23c7 -4 9 -9 9 -15zM336 151v73h-123c-66 0 -106 -24 -106 -90c0 -73 52 -87 106 -87c74 0 123 29 123 104zM383 0
h-30c-9 0 -15 7 -15 15v39c-26 -39 -67 -62 -138 -62c-82 0 -155 28 -155 141c0 110 71 145 164 145h127v72c0 65 -43 90 -109 90c-60 0 -106 -22 -106 -76c0 -10 -6 -17 -16 -17h-33c-8 0 -14 7 -14 17c0 95 74 134 174 134s166 -41 166 -143v-340c0 -8 -7 -15 -15 -15z
" />
    <glyph glyph-name="abreve.alt" horiz-adv-x="468" 
d="M305 680h16c13 0 14 -12 14 -19c0 -56 -34 -111 -103 -111s-103 55 -103 111c0 7 1 19 14 19h16c11 0 14 -11 15 -16c5 -41 27 -63 58 -63c30 0 52 22 58 63c0 5 3 16 15 16zM336 151v73h-123c-66 0 -106 -24 -106 -90c0 -73 52 -87 106 -87c74 0 123 29 123 104zM383 0
h-30c-9 0 -15 7 -15 15v39c-26 -39 -67 -62 -138 -62c-82 0 -155 28 -155 141c0 110 71 145 164 145h127v72c0 65 -43 90 -109 90c-60 0 -106 -22 -106 -76c0 -10 -6 -17 -16 -17h-33c-8 0 -14 7 -14 17c0 95 74 134 174 134s166 -41 166 -143v-340c0 -8 -7 -15 -15 -15z
" />
    <glyph glyph-name="amacron.alt" horiz-adv-x="468" 
d="M319 587h-175c-8 0 -16 7 -16 15v21c0 8 8 16 16 16h175c8 0 16 -8 16 -16v-21c0 -8 -8 -15 -16 -15zM336 151v73h-123c-66 0 -106 -24 -106 -90c0 -73 52 -87 106 -87c74 0 123 29 123 104zM383 0h-30c-9 0 -15 7 -15 15v39c-26 -39 -67 -62 -138 -62
c-82 0 -155 28 -155 141c0 110 71 145 164 145h127v72c0 65 -43 90 -109 90c-60 0 -106 -22 -106 -76c0 -10 -6 -17 -16 -17h-33c-8 0 -14 7 -14 17c0 95 74 134 174 134s166 -41 166 -143v-340c0 -8 -7 -15 -15 -15z" />
    <glyph glyph-name="aogonek.alt" horiz-adv-x="468" 
d="M336 151v73h-123c-66 0 -106 -24 -106 -90c0 -73 52 -87 106 -87c74 0 123 29 123 104zM383 0h-30c-9 0 -15 7 -15 15v39c-26 -39 -67 -62 -138 -62c-82 0 -155 28 -155 141c0 110 71 145 164 145h127v72c0 65 -43 90 -109 90c-60 0 -106 -22 -106 -76
c0 -10 -6 -17 -16 -17h-33c-8 0 -14 7 -14 17c0 95 74 134 174 134s166 -41 166 -143v-340c0 -8 -7 -15 -15 -15zM405 -152v-10c0 -11 -7 -14 -15 -16c-18 -5 -31 -6 -41 -6c-59 0 -85 35 -85 65c0 32 29 63 67 86c6 4 10 5 16 5h44c8 0 9 -9 3 -13c-38 -20 -69 -49 -69 -70
c0 -18 16 -28 36 -28c7 0 17 1 26 3c8 1 18 0 18 -16z" />
    <glyph glyph-name="ccedilla" unicode="&#xe7;" horiz-adv-x="429" 
d="M345 164h31c10 0 16 -9 16 -16c0 -97 -76 -156 -170 -156c-100 0 -170 68 -170 170v163c0 104 72 173 173 173c95 0 167 -58 167 -155c0 -8 -6 -16 -15 -16h-30c-9 0 -16 5 -16 15c0 64 -48 99 -108 99c-66 0 -109 -45 -109 -113v-168c0 -68 44 -111 110 -111
c59 0 106 33 106 99c0 11 8 16 15 16zM177 -162v10c0 16 10 17 17 16c9 -2 19 -3 27 -3c20 0 36 10 36 28c0 21 -32 50 -69 70c-6 4 -5 13 2 13h44c6 0 11 -1 17 -5c38 -23 66 -54 66 -86c0 -30 -26 -65 -84 -65c-10 0 -24 1 -42 6c-7 2 -14 5 -14 16z" />
    <glyph glyph-name="cacute" unicode="&#x107;" horiz-adv-x="429" 
d="M240 550h-26c-10 0 -17 10 -13 21l36 97c3 8 9 12 16 12h41c11 0 20 -11 14 -22l-52 -98c-4 -7 -10 -10 -16 -10zM345 164h31c10 0 16 -9 16 -16c0 -97 -76 -156 -170 -156c-100 0 -170 68 -170 170v163c0 104 72 173 173 173c95 0 167 -58 167 -155c0 -8 -6 -16 -15 -16
h-30c-9 0 -16 5 -16 15c0 64 -48 99 -108 99c-66 0 -109 -45 -109 -113v-168c0 -68 44 -111 110 -111c59 0 106 33 106 99c0 11 8 16 15 16z" />
    <glyph glyph-name="ccaron" unicode="&#x10d;" horiz-adv-x="429" 
d="M249 550h-48c-5 0 -11 3 -14 9l-59 98c-7 11 0 23 12 23h13c5 0 9 -2 13 -7l51 -59c5 -6 11 -6 17 0l51 59c4 5 8 7 13 7h13c11 0 18 -12 12 -23l-59 -98c-4 -6 -9 -9 -15 -9zM345 164h31c10 0 16 -9 16 -16c0 -97 -76 -156 -170 -156c-100 0 -170 68 -170 170v163
c0 104 72 173 173 173c95 0 167 -58 167 -155c0 -8 -6 -16 -15 -16h-30c-9 0 -16 5 -16 15c0 64 -48 99 -108 99c-66 0 -109 -45 -109 -113v-168c0 -68 44 -111 110 -111c59 0 106 33 106 99c0 11 8 16 15 16z" />
    <glyph glyph-name="ccircumflex" unicode="&#x109;" horiz-adv-x="429" 
d="M311 550h-13c-5 0 -9 2 -13 6l-51 59c-5 6 -12 6 -17 0l-51 -59c-4 -4 -8 -6 -13 -6h-13c-12 0 -19 11 -12 22l59 99c3 5 9 9 14 9h48c7 0 13 -6 15 -9l59 -99c6 -10 -1 -22 -12 -22zM345 164h31c10 0 16 -9 16 -16c0 -97 -76 -156 -170 -156c-100 0 -170 68 -170 170
v163c0 104 72 173 173 173c95 0 167 -58 167 -155c0 -8 -6 -16 -15 -16h-30c-9 0 -16 5 -16 15c0 64 -48 99 -108 99c-66 0 -109 -45 -109 -113v-168c0 -68 44 -111 110 -111c59 0 106 33 106 99c0 11 8 16 15 16z" />
    <glyph glyph-name="cdotaccent" unicode="&#x10b;" horiz-adv-x="429" 
d="M272 615c0 -26 -21 -46 -47 -46s-46 20 -46 46s20 47 46 47s47 -21 47 -47zM345 164h31c10 0 16 -9 16 -16c0 -97 -76 -156 -170 -156c-100 0 -170 68 -170 170v163c0 104 72 173 173 173c95 0 167 -58 167 -155c0 -8 -6 -16 -15 -16h-30c-9 0 -16 5 -16 15
c0 64 -48 99 -108 99c-66 0 -109 -45 -109 -113v-168c0 -68 44 -111 110 -111c59 0 106 33 106 99c0 11 8 16 15 16z" />
    <glyph glyph-name="dcaron" unicode="&#x10f;" horiz-adv-x="473" 
d="M477 550h-16c-10 0 -17 9 -17 21v96c0 8 5 13 12 13h43c11 0 17 -11 15 -22l-22 -98c-3 -7 -9 -10 -15 -10zM342 174v148c0 78 -51 119 -116 119c-66 0 -112 -40 -112 -115v-165c0 -74 45 -113 111 -113c68 0 115 46 117 126zM387 0h-29c-8 0 -15 7 -15 16v40
c-24 -34 -66 -64 -135 -64c-92 0 -155 58 -155 168v166c0 105 65 172 164 172c63 0 102 -30 125 -61v227c0 8 6 16 15 16h30c9 0 16 -8 16 -16v-648c0 -9 -7 -16 -16 -16z" />
    <glyph glyph-name="dcroat" unicode="&#x111;" horiz-adv-x="473" 
d="M342 174v148c0 78 -51 119 -116 119c-66 0 -112 -40 -112 -115v-165c0 -74 45 -113 111 -113c68 0 115 46 117 126zM387 0h-29c-8 0 -15 7 -15 16v40c-24 -34 -66 -64 -135 -64c-92 0 -155 58 -155 168v166c0 105 65 172 164 172c63 0 102 -30 125 -61v116h-134
c-9 0 -16 7 -16 15v20c0 8 7 16 16 16h134v60c0 8 6 16 15 16h30c9 0 16 -8 16 -16v-60h34c8 0 16 -8 16 -16v-20c0 -8 -8 -15 -16 -15h-34v-537c0 -9 -7 -16 -16 -16z" />
    <glyph glyph-name="eacute" unicode="&#xe9;" horiz-adv-x="447" 
d="M247 550h-26c-10 0 -17 10 -13 21l36 97c3 8 9 12 16 12h41c11 0 20 -11 14 -22l-52 -98c-4 -7 -10 -10 -16 -10zM354 148h29c11 0 16 -10 16 -18c-6 -86 -79 -138 -174 -138c-99 0 -173 68 -173 171v161c0 106 76 174 176 174c95 0 172 -60 172 -169v-86
c0 -9 -7 -15 -15 -15h-272v-66c0 -70 49 -113 114 -113c59 0 103 29 111 84c1 7 4 15 16 15zM339 278v46c0 76 -47 117 -114 117c-64 0 -112 -44 -112 -115v-48h226z" />
    <glyph glyph-name="ecircumflex" unicode="&#xea;" horiz-adv-x="447" 
d="M318 550h-13c-5 0 -9 2 -13 6l-51 59c-5 6 -12 6 -17 0l-51 -59c-4 -4 -8 -6 -13 -6h-13c-12 0 -19 11 -12 22l59 99c3 5 9 9 14 9h48c7 0 13 -6 15 -9l59 -99c6 -10 -1 -22 -12 -22zM354 148h29c11 0 16 -10 16 -18c-6 -86 -79 -138 -174 -138c-99 0 -173 68 -173 171
v161c0 106 76 174 176 174c95 0 172 -60 172 -169v-86c0 -9 -7 -15 -15 -15h-272v-66c0 -70 49 -113 114 -113c59 0 103 29 111 84c1 7 4 15 16 15zM339 278v46c0 76 -47 117 -114 117c-64 0 -112 -44 -112 -115v-48h226z" />
    <glyph glyph-name="edieresis" unicode="&#xeb;" horiz-adv-x="447" 
d="M336 615c0 -23 -19 -42 -43 -42c-22 0 -41 19 -41 42c0 24 19 42 41 42c24 0 43 -18 43 -42zM213 615c0 -23 -19 -42 -42 -42s-42 19 -42 42c0 24 19 42 42 42s42 -18 42 -42zM354 148h29c11 0 16 -10 16 -18c-6 -86 -79 -138 -174 -138c-99 0 -173 68 -173 171v161
c0 106 76 174 176 174c95 0 172 -60 172 -169v-86c0 -9 -7 -15 -15 -15h-272v-66c0 -70 49 -113 114 -113c59 0 103 29 111 84c1 7 4 15 16 15zM339 278v46c0 76 -47 117 -114 117c-64 0 -112 -44 -112 -115v-48h226z" />
    <glyph glyph-name="egrave" unicode="&#xe8;" horiz-adv-x="447" 
d="M246 550h-27c-6 0 -12 3 -15 10l-52 98c-5 11 3 22 13 22h42c6 0 12 -4 15 -12l36 -97c4 -11 -2 -21 -12 -21zM354 148h29c11 0 16 -10 16 -18c-6 -86 -79 -138 -174 -138c-99 0 -173 68 -173 171v161c0 106 76 174 176 174c95 0 172 -60 172 -169v-86
c0 -9 -7 -15 -15 -15h-272v-66c0 -70 49 -113 114 -113c59 0 103 29 111 84c1 7 4 15 16 15zM339 278v46c0 76 -47 117 -114 117c-64 0 -112 -44 -112 -115v-48h226z" />
    <glyph glyph-name="ebreve" unicode="&#x115;" horiz-adv-x="447" 
d="M306 680h16c13 0 14 -12 14 -19c0 -56 -34 -111 -103 -111s-103 55 -103 111c0 7 1 19 14 19h16c11 0 14 -11 15 -16c5 -41 27 -63 58 -63c30 0 52 22 58 63c0 5 3 16 15 16zM354 148h29c11 0 16 -10 16 -18c-6 -86 -79 -138 -174 -138c-99 0 -173 68 -173 171v161
c0 106 76 174 176 174c95 0 172 -60 172 -169v-86c0 -9 -7 -15 -15 -15h-272v-66c0 -70 49 -113 114 -113c59 0 103 29 111 84c1 7 4 15 16 15zM339 278v46c0 76 -47 117 -114 117c-64 0 -112 -44 -112 -115v-48h226z" />
    <glyph glyph-name="ecaron" unicode="&#x11b;" horiz-adv-x="447" 
d="M256 550h-48c-5 0 -11 3 -14 9l-59 98c-7 11 0 23 12 23h13c5 0 9 -2 13 -7l51 -59c5 -6 11 -6 17 0l51 59c4 5 8 7 13 7h13c11 0 18 -12 12 -23l-59 -98c-4 -6 -9 -9 -15 -9zM354 148h29c11 0 16 -10 16 -18c-6 -86 -79 -138 -174 -138c-99 0 -173 68 -173 171v161
c0 106 76 174 176 174c95 0 172 -60 172 -169v-86c0 -9 -7 -15 -15 -15h-272v-66c0 -70 49 -113 114 -113c59 0 103 29 111 84c1 7 4 15 16 15zM339 278v46c0 76 -47 117 -114 117c-64 0 -112 -44 -112 -115v-48h226z" />
    <glyph glyph-name="edotaccent" unicode="&#x117;" horiz-adv-x="447" 
d="M279 615c0 -26 -21 -46 -47 -46s-46 20 -46 46s20 47 46 47s47 -21 47 -47zM354 148h29c11 0 16 -10 16 -18c-6 -86 -79 -138 -174 -138c-99 0 -173 68 -173 171v161c0 106 76 174 176 174c95 0 172 -60 172 -169v-86c0 -9 -7 -15 -15 -15h-272v-66
c0 -70 49 -113 114 -113c59 0 103 29 111 84c1 7 4 15 16 15zM339 278v46c0 76 -47 117 -114 117c-64 0 -112 -44 -112 -115v-48h226z" />
    <glyph glyph-name="emacron" unicode="&#x113;" horiz-adv-x="447" 
d="M320 587h-175c-8 0 -16 7 -16 15v21c0 8 8 16 16 16h175c8 0 16 -8 16 -16v-21c0 -8 -8 -15 -16 -15zM354 148h29c11 0 16 -10 16 -18c-6 -86 -79 -138 -174 -138c-99 0 -173 68 -173 171v161c0 106 76 174 176 174c95 0 172 -60 172 -169v-86c0 -9 -7 -15 -15 -15h-272
v-66c0 -70 49 -113 114 -113c59 0 103 29 111 84c1 7 4 15 16 15zM339 278v46c0 76 -47 117 -114 117c-64 0 -112 -44 -112 -115v-48h226z" />
    <glyph glyph-name="eogonek" unicode="&#x119;" horiz-adv-x="447" 
d="M354 148h29c11 0 16 -10 16 -18c-6 -86 -79 -138 -174 -138c-99 0 -173 68 -173 171v161c0 106 76 174 176 174c95 0 172 -60 172 -169v-86c0 -9 -7 -15 -15 -15h-272v-66c0 -70 49 -113 114 -113c59 0 103 29 111 84c1 7 4 15 16 15zM339 278v46c0 76 -47 117 -114 117
c-64 0 -112 -44 -112 -115v-48h226zM264 -152v-10c0 -11 -7 -14 -15 -16c-18 -5 -31 -6 -41 -6c-59 0 -85 35 -85 65c0 32 29 63 67 86c6 4 10 5 16 5h44c8 0 9 -9 3 -13c-38 -20 -69 -49 -69 -70c0 -18 16 -28 36 -28c7 0 17 1 26 3c8 1 18 0 18 -16z" />
    <glyph glyph-name="gbreve" unicode="&#x11f;" horiz-adv-x="473" 
d="M309 680h16c13 0 14 -12 14 -19c0 -56 -34 -111 -103 -111s-103 55 -103 111c0 7 1 19 14 19h16c11 0 14 -11 15 -16c5 -41 27 -63 58 -63c30 0 52 22 58 63c0 5 3 16 15 16zM237 -184h-38c-8 0 -16 6 -16 15v26c0 9 8 16 16 16h31c66 0 112 31 112 108v74
c-25 -34 -66 -63 -134 -63c-92 0 -155 58 -155 168v166c0 105 65 172 164 172c64 0 102 -30 126 -61v37c0 8 7 16 15 16h29c9 0 16 -8 16 -16v-495c0 -103 -64 -163 -166 -163zM342 176v141c0 81 -50 123 -116 123s-112 -40 -112 -115v-164c0 -74 45 -112 111 -112
c69 0 117 45 117 127z" />
    <glyph glyph-name="gcircumflex" unicode="&#x11d;" horiz-adv-x="473" 
d="M321 550h-13c-5 0 -9 2 -13 6l-51 59c-5 6 -12 6 -17 0l-51 -59c-4 -4 -8 -6 -13 -6h-13c-12 0 -19 11 -12 22l59 99c3 5 9 9 14 9h48c7 0 13 -6 15 -9l59 -99c6 -10 -1 -22 -12 -22zM237 -184h-38c-8 0 -16 6 -16 15v26c0 9 8 16 16 16h31c66 0 112 31 112 108v74
c-25 -34 -66 -63 -134 -63c-92 0 -155 58 -155 168v166c0 105 65 172 164 172c64 0 102 -30 126 -61v37c0 8 7 16 15 16h29c9 0 16 -8 16 -16v-495c0 -103 -64 -163 -166 -163zM342 176v141c0 81 -50 123 -116 123s-112 -40 -112 -115v-164c0 -74 45 -112 111 -112
c69 0 117 45 117 127z" />
    <glyph glyph-name="gcommaaccent" unicode="&#x123;" horiz-adv-x="473" 
d="M251 550h-41c-11 0 -19 11 -14 22l52 98c4 7 10 10 16 10h26c10 0 16 -10 13 -21l-36 -97c-3 -8 -9 -12 -16 -12zM237 -184h-38c-8 0 -16 6 -16 15v26c0 9 8 16 16 16h31c66 0 112 31 112 108v74c-25 -34 -66 -63 -134 -63c-92 0 -155 58 -155 168v166
c0 105 65 172 164 172c64 0 102 -30 126 -61v37c0 8 7 16 15 16h29c9 0 16 -8 16 -16v-495c0 -103 -64 -163 -166 -163zM342 176v141c0 81 -50 123 -116 123s-112 -40 -112 -115v-164c0 -74 45 -112 111 -112c69 0 117 45 117 127z" />
    <glyph glyph-name="gdotaccent" unicode="&#x121;" horiz-adv-x="473" 
d="M282 615c0 -26 -21 -46 -47 -46s-46 20 -46 46s20 47 46 47s47 -21 47 -47zM237 -184h-38c-8 0 -16 6 -16 15v26c0 9 8 16 16 16h31c66 0 112 31 112 108v74c-25 -34 -66 -63 -134 -63c-92 0 -155 58 -155 168v166c0 105 65 172 164 172c64 0 102 -30 126 -61v37
c0 8 7 16 15 16h29c9 0 16 -8 16 -16v-495c0 -103 -64 -163 -166 -163zM342 176v141c0 81 -50 123 -116 123s-112 -40 -112 -115v-164c0 -74 45 -112 111 -112c69 0 117 45 117 127z" />
    <glyph glyph-name="hbar" unicode="&#x127;" horiz-adv-x="478" 
d="M392 0h-30c-9 0 -15 7 -15 16v313c0 71 -36 112 -102 112c-68 0 -114 -46 -114 -112v-313c0 -9 -7 -16 -16 -16h-30c-9 0 -15 7 -15 16v537h-35c-8 0 -16 7 -16 15v20c0 8 8 16 16 16h35v60c0 8 6 16 15 16h30c9 0 16 -8 16 -16v-60h133c9 0 16 -8 16 -16v-20
c0 -8 -7 -15 -16 -15h-133v-121c21 34 61 66 127 66c97 0 150 -63 150 -163v-319c0 -9 -7 -16 -16 -16z" />
    <glyph glyph-name="hcircumflex" unicode="&#x125;" horiz-adv-x="478" 
d="M186 705h-13c-5 0 -9 2 -13 6l-51 59c-5 6 -12 6 -17 0l-51 -59c-4 -4 -8 -6 -13 -6h-13c-12 0 -19 11 -12 22l59 99c3 5 9 9 14 9h48c7 0 13 -6 15 -9l59 -99c6 -10 -1 -22 -12 -22zM392 0h-30c-9 0 -15 7 -15 16v313c0 71 -36 112 -102 112c-68 0 -114 -46 -114 -112
v-313c0 -9 -7 -16 -16 -16h-30c-9 0 -15 7 -15 16v648c0 8 6 16 15 16h30c9 0 16 -8 16 -16v-232c21 34 61 66 127 66c97 0 150 -63 150 -163v-319c0 -9 -7 -16 -16 -16z" />
    <glyph glyph-name="iacute" unicode="&#xed;" horiz-adv-x="206" 
d="M118 550h-26c-10 0 -17 10 -13 21l36 97c3 8 9 12 16 12h41c11 0 20 -11 14 -22l-52 -98c-4 -7 -10 -10 -16 -10zM118 0h-31c-8 0 -15 7 -15 16v458c0 8 7 16 15 16h31c8 0 15 -8 15 -16v-458c0 -9 -7 -16 -15 -16z" />
    <glyph glyph-name="icircumflex" unicode="&#xee;" horiz-adv-x="206" 
d="M189 550h-13c-5 0 -9 2 -13 6l-51 59c-5 6 -12 6 -17 0l-51 -59c-4 -4 -8 -6 -13 -6h-13c-12 0 -19 11 -12 22l59 99c3 5 9 9 14 9h48c7 0 13 -6 15 -9l59 -99c6 -10 -1 -22 -12 -22zM118 0h-31c-8 0 -15 7 -15 16v458c0 8 7 16 15 16h31c8 0 15 -8 15 -16v-458
c0 -9 -7 -16 -15 -16z" />
    <glyph glyph-name="idieresis" unicode="&#xef;" horiz-adv-x="206" 
d="M207 615c0 -23 -19 -42 -43 -42c-22 0 -41 19 -41 42c0 24 19 42 41 42c24 0 43 -18 43 -42zM84 615c0 -23 -19 -42 -42 -42s-42 19 -42 42c0 24 19 42 42 42s42 -18 42 -42zM118 0h-31c-8 0 -15 7 -15 16v458c0 8 7 16 15 16h31c8 0 15 -8 15 -16v-458
c0 -9 -7 -16 -15 -16z" />
    <glyph glyph-name="igrave" unicode="&#xec;" horiz-adv-x="206" 
d="M117 550h-27c-6 0 -12 3 -15 10l-52 98c-5 11 3 22 13 22h42c6 0 12 -4 15 -12l36 -97c4 -11 -2 -21 -12 -21zM118 0h-31c-8 0 -15 7 -15 16v458c0 8 7 16 15 16h31c8 0 15 -8 15 -16v-458c0 -9 -7 -16 -15 -16z" />
    <glyph glyph-name="ibreve" unicode="&#x12d;" horiz-adv-x="206" 
d="M177 680h16c13 0 14 -12 14 -19c0 -56 -34 -111 -103 -111s-103 55 -103 111c0 7 1 19 14 19h16c11 0 14 -11 15 -16c5 -41 27 -63 58 -63c30 0 52 22 58 63c0 5 3 16 15 16zM118 0h-31c-8 0 -15 7 -15 16v458c0 8 7 16 15 16h31c8 0 15 -8 15 -16v-458
c0 -9 -7 -16 -15 -16z" />
    <glyph glyph-name="i.dot" horiz-adv-x="206" 
d="M103 594c-26 0 -47 21 -47 47c0 25 21 47 47 47c25 0 46 -22 46 -47c0 -26 -21 -47 -46 -47zM118 0h-31c-8 0 -15 7 -15 16v458c0 8 7 16 15 16h31c8 0 15 -8 15 -16v-458c0 -9 -7 -16 -15 -16z" />
    <glyph glyph-name="imacron" unicode="&#x12b;" horiz-adv-x="206" 
d="M191 587h-175c-8 0 -16 7 -16 15v21c0 8 8 16 16 16h175c8 0 16 -8 16 -16v-21c0 -8 -8 -15 -16 -15zM118 0h-31c-8 0 -15 7 -15 16v458c0 8 7 16 15 16h31c8 0 15 -8 15 -16v-458c0 -9 -7 -16 -15 -16z" />
    <glyph glyph-name="iogonek" unicode="&#x12f;" horiz-adv-x="206" 
d="M103 594c-26 0 -47 21 -47 47c0 25 21 47 47 47c25 0 46 -22 46 -47c0 -26 -21 -47 -46 -47zM118 0h-31c-8 0 -15 7 -15 16v458c0 8 7 16 15 16h31c8 0 15 -8 15 -16v-458c0 -9 -7 -16 -15 -16zM137 -152v-10c0 -11 -7 -14 -15 -16c-18 -5 -31 -6 -41 -6
c-59 0 -85 35 -85 65c0 32 29 63 67 86c6 4 10 5 16 5h44c8 0 9 -9 3 -13c-38 -20 -69 -49 -69 -70c0 -18 16 -28 36 -28c7 0 17 1 26 3c8 1 18 0 18 -16z" />
    <glyph glyph-name="itilde" unicode="&#x129;" horiz-adv-x="206" 
d="M215 613c-1 -21 -38 -57 -67 -57c-27 0 -78 31 -98 31c-21 0 -25 -35 -49 -22c-6 3 -10 8 -9 15c2 23 36 56 66 56c29 0 81 -31 98 -31c19 0 27 36 50 23c7 -4 9 -9 9 -15zM118 0h-31c-8 0 -15 7 -15 16v458c0 8 7 16 15 16h31c8 0 15 -8 15 -16v-458
c0 -9 -7 -16 -15 -16z" />
    <glyph glyph-name="jcircumflex" unicode="&#x135;" horiz-adv-x="201" 
d="M189 550h-13c-5 0 -9 2 -13 6l-51 59c-5 6 -12 6 -17 0l-51 -59c-4 -4 -8 -6 -13 -6h-13c-12 0 -19 11 -12 22l59 99c3 5 9 9 14 9h48c7 0 13 -6 15 -9l59 -99c6 -10 -1 -22 -12 -22zM-20 -169v26c0 9 7 16 16 16c54 0 76 23 76 90v511c0 8 7 16 15 16h31
c8 0 15 -8 15 -16v-515c0 -99 -37 -143 -137 -143c-8 0 -16 6 -16 15z" />
    <glyph glyph-name="ij" unicode="&#x133;" horiz-adv-x="408" 
d="M309 594c-26 0 -47 21 -47 47c0 25 21 47 47 47c25 0 46 -22 46 -47c0 -26 -21 -47 -46 -47zM103 594c-26 0 -47 21 -47 47c0 25 21 47 47 47c25 0 46 -22 46 -47c0 -26 -21 -47 -46 -47zM186 -169v26c0 9 7 16 16 16c54 0 76 23 76 90v511c0 8 7 16 15 16h31
c8 0 15 -8 15 -16v-515c0 -99 -37 -143 -137 -143c-8 0 -16 6 -16 15zM118 0h-31c-8 0 -15 7 -15 16v458c0 8 7 16 15 16h31c8 0 15 -8 15 -16v-458c0 -9 -7 -16 -15 -16z" />
    <glyph glyph-name="kgreenlandic" unicode="&#x138;" horiz-adv-x="419" 
d="M135 248l197 234c5 6 10 8 14 8h33c13 0 20 -16 11 -26l-136 -156c-3 -4 -3 -7 -1 -11l163 -275c7 -12 -2 -22 -13 -22h-37c-8 0 -12 3 -16 10l-138 240c-3 6 -8 5 -13 0l-64 -71c-3 -3 -4 -7 -4 -12v-151c0 -9 -7 -16 -16 -16h-30c-9 0 -15 7 -15 16v458c0 8 6 16 15 16
h30c9 0 16 -8 16 -16v-226c0 -4 1 -4 4 0z" />
    <glyph glyph-name="kcommaaccent" unicode="&#x137;" horiz-adv-x="419" 
d="M135 248l197 234c5 6 10 8 14 8h33c13 0 20 -16 11 -26l-136 -156c-3 -4 -3 -7 -1 -11l163 -275c6 -10 1 -22 -11 -22h-39c-8 0 -12 3 -16 10l-138 240c-3 6 -8 5 -13 0l-64 -71c-3 -3 -4 -7 -4 -12v-151c0 -9 -7 -16 -16 -16h-30c-9 0 -15 7 -15 16v648c0 8 6 16 15 16
h30c9 0 16 -8 16 -16v-416c0 -4 1 -4 4 0zM196 -166h-26c-10 0 -16 10 -13 21l36 97c3 8 9 12 16 12h41c11 0 19 -11 14 -22l-52 -98c-4 -7 -10 -10 -16 -10z" />
    <glyph glyph-name="lacute" unicode="&#x13a;" horiz-adv-x="206" 
d="M118 705h-26c-10 0 -17 10 -13 21l36 97c3 8 9 12 16 12h41c11 0 20 -11 14 -22l-52 -98c-4 -7 -10 -10 -16 -10zM118 0h-31c-8 0 -15 7 -15 16v648c0 8 7 16 15 16h31c8 0 15 -8 15 -16v-648c0 -9 -7 -16 -15 -16z" />
    <glyph glyph-name="lcaron" unicode="&#x13e;" horiz-adv-x="206" 
d="M205 550h-16c-10 0 -17 9 -17 21v96c0 8 5 13 12 13h43c11 0 17 -11 15 -22l-22 -98c-3 -7 -9 -10 -15 -10zM118 0h-31c-8 0 -15 7 -15 16v648c0 8 7 16 15 16h31c8 0 15 -8 15 -16v-648c0 -9 -7 -16 -15 -16z" />
    <glyph glyph-name="lcommaaccent" unicode="&#x13c;" horiz-adv-x="206" 
d="M118 0h-31c-8 0 -15 7 -15 16v648c0 8 7 16 15 16h31c8 0 15 -8 15 -16v-648c0 -9 -7 -16 -15 -16zM68 -166h-26c-10 0 -16 10 -13 21l36 97c3 8 9 12 16 12h41c11 0 19 -11 14 -22l-52 -98c-4 -7 -10 -10 -16 -10z" />
    <glyph glyph-name="ldot" unicode="&#x140;" horiz-adv-x="251" 
d="M118 0h-31c-8 0 -15 7 -15 16v648c0 8 7 16 15 16h31c8 0 15 -8 15 -16v-648c0 -9 -7 -16 -15 -16zM273 351c0 -28 -23 -50 -52 -50s-51 22 -51 50c0 30 22 53 51 53s52 -23 52 -53z" />
    <glyph glyph-name="eng" unicode="&#x14b;" horiz-adv-x="478" 
d="M255 -169v26c0 9 7 16 16 16c54 0 76 23 76 90v366c0 71 -36 112 -102 112c-68 0 -114 -46 -114 -112v-313c0 -9 -7 -16 -16 -16h-30c-9 0 -15 7 -15 16v458c0 8 6 16 15 16h30c8 0 15 -8 15 -16v-43c21 34 61 67 128 67c97 0 150 -63 150 -163v-376
c0 -99 -37 -143 -137 -143c-8 0 -16 6 -16 15z" />
    <glyph glyph-name="napostrophe" unicode="&#x149;" horiz-adv-x="478" 
d="M118 550h-26c-10 0 -16 10 -13 21l36 97c3 8 9 12 16 12h41c11 0 19 -11 14 -22l-52 -98c-4 -7 -10 -10 -16 -10zM392 0h-30c-9 0 -15 7 -15 16v313c0 71 -36 112 -102 112c-68 0 -114 -46 -114 -112v-313c0 -9 -7 -16 -16 -16h-30c-9 0 -15 7 -15 16v458c0 8 6 16 15 16
h30c8 0 15 -8 15 -16v-43c21 34 61 67 128 67c97 0 150 -63 150 -163v-319c0 -9 -7 -16 -16 -16z" />
    <glyph glyph-name="ntilde" unicode="&#xf1;" horiz-adv-x="478" 
d="M356 613c-1 -21 -38 -57 -67 -57c-27 0 -78 31 -98 31c-21 0 -25 -35 -49 -22c-6 3 -10 8 -9 15c2 23 36 56 66 56c29 0 81 -31 98 -31c19 0 27 36 50 23c7 -4 9 -9 9 -15zM392 0h-30c-9 0 -15 7 -15 16v313c0 71 -36 112 -102 112c-68 0 -114 -46 -114 -112v-313
c0 -9 -7 -16 -16 -16h-30c-9 0 -15 7 -15 16v458c0 8 6 16 15 16h30c8 0 15 -8 15 -16v-43c21 34 61 67 128 67c97 0 150 -63 150 -163v-319c0 -9 -7 -16 -16 -16z" />
    <glyph glyph-name="nacute" unicode="&#x144;" horiz-adv-x="478" 
d="M259 550h-26c-10 0 -17 10 -13 21l36 97c3 8 9 12 16 12h41c11 0 20 -11 14 -22l-52 -98c-4 -7 -10 -10 -16 -10zM392 0h-30c-9 0 -15 7 -15 16v313c0 71 -36 112 -102 112c-68 0 -114 -46 -114 -112v-313c0 -9 -7 -16 -16 -16h-30c-9 0 -15 7 -15 16v458c0 8 6 16 15 16
h30c8 0 15 -8 15 -16v-43c21 34 61 67 128 67c97 0 150 -63 150 -163v-319c0 -9 -7 -16 -16 -16z" />
    <glyph glyph-name="ncaron" unicode="&#x148;" horiz-adv-x="478" 
d="M268 550h-48c-5 0 -11 3 -14 9l-59 98c-7 11 0 23 12 23h13c5 0 9 -2 13 -7l51 -59c5 -6 11 -6 17 0l51 59c4 5 8 7 13 7h13c11 0 18 -12 12 -23l-59 -98c-4 -6 -9 -9 -15 -9zM392 0h-30c-9 0 -15 7 -15 16v313c0 71 -36 112 -102 112c-68 0 -114 -46 -114 -112v-313
c0 -9 -7 -16 -16 -16h-30c-9 0 -15 7 -15 16v458c0 8 6 16 15 16h30c8 0 15 -8 15 -16v-43c21 34 61 67 128 67c97 0 150 -63 150 -163v-319c0 -9 -7 -16 -16 -16z" />
    <glyph glyph-name="ncommaaccent" unicode="&#x146;" horiz-adv-x="478" 
d="M392 0h-30c-9 0 -15 7 -15 16v313c0 71 -36 112 -102 112c-68 0 -114 -46 -114 -112v-313c0 -9 -7 -16 -16 -16h-30c-9 0 -15 7 -15 16v458c0 8 6 16 15 16h30c8 0 15 -8 15 -16v-43c21 34 61 67 128 67c97 0 150 -63 150 -163v-319c0 -9 -7 -16 -16 -16zM205 -166h-26
c-10 0 -16 10 -13 21l36 97c3 8 9 12 16 12h41c11 0 19 -11 14 -22l-52 -98c-4 -7 -10 -10 -16 -10z" />
    <glyph glyph-name="oacute" unicode="&#xf3;" horiz-adv-x="458" 
d="M244 550h-26c-10 0 -17 10 -13 21l36 97c3 8 9 12 16 12h41c11 0 20 -11 14 -22l-52 -98c-4 -7 -10 -10 -16 -10zM405 321v-153c0 -110 -76 -176 -178 -176c-99 0 -174 63 -174 176v153c0 110 76 177 177 177c99 0 175 -64 175 -177zM343 165v158c0 74 -50 118 -115 118
c-64 0 -114 -44 -114 -118v-158c0 -73 50 -116 114 -116c65 0 115 43 115 116z" />
    <glyph glyph-name="ocircumflex" unicode="&#xf4;" horiz-adv-x="458" 
d="M315 550h-13c-5 0 -9 2 -13 6l-51 59c-5 6 -12 6 -17 0l-51 -59c-4 -4 -8 -6 -13 -6h-13c-12 0 -19 11 -12 22l59 99c3 5 9 9 14 9h48c7 0 13 -6 15 -9l59 -99c6 -10 -1 -22 -12 -22zM405 321v-153c0 -110 -76 -176 -178 -176c-99 0 -174 63 -174 176v153
c0 110 76 177 177 177c99 0 175 -64 175 -177zM343 165v158c0 74 -50 118 -115 118c-64 0 -114 -44 -114 -118v-158c0 -73 50 -116 114 -116c65 0 115 43 115 116z" />
    <glyph glyph-name="odieresis" unicode="&#xf6;" horiz-adv-x="458" 
d="M333 615c0 -23 -19 -42 -43 -42c-22 0 -41 19 -41 42c0 24 19 42 41 42c24 0 43 -18 43 -42zM210 615c0 -23 -19 -42 -42 -42s-42 19 -42 42c0 24 19 42 42 42s42 -18 42 -42zM405 321v-153c0 -110 -76 -176 -178 -176c-99 0 -174 63 -174 176v153c0 110 76 177 177 177
c99 0 175 -64 175 -177zM343 165v158c0 74 -50 118 -115 118c-64 0 -114 -44 -114 -118v-158c0 -73 50 -116 114 -116c65 0 115 43 115 116z" />
    <glyph glyph-name="ograve" unicode="&#xf2;" horiz-adv-x="458" 
d="M243 550h-27c-6 0 -12 3 -15 10l-52 98c-5 11 3 22 13 22h42c6 0 12 -4 15 -12l36 -97c4 -11 -2 -21 -12 -21zM405 321v-153c0 -110 -76 -176 -178 -176c-99 0 -174 63 -174 176v153c0 110 76 177 177 177c99 0 175 -64 175 -177zM343 165v158c0 74 -50 118 -115 118
c-64 0 -114 -44 -114 -118v-158c0 -73 50 -116 114 -116c65 0 115 43 115 116z" />
    <glyph glyph-name="otilde" unicode="&#xf5;" horiz-adv-x="458" 
d="M341 613c-1 -21 -38 -57 -67 -57c-27 0 -78 31 -98 31c-21 0 -25 -35 -49 -22c-6 3 -10 8 -9 15c2 23 36 56 66 56c29 0 81 -31 98 -31c19 0 27 36 50 23c7 -4 9 -9 9 -15zM405 321v-153c0 -110 -76 -176 -178 -176c-99 0 -174 63 -174 176v153c0 110 76 177 177 177
c99 0 175 -64 175 -177zM343 165v158c0 74 -50 118 -115 118c-64 0 -114 -44 -114 -118v-158c0 -73 50 -116 114 -116c65 0 115 43 115 116z" />
    <glyph glyph-name="obreve" unicode="&#x14f;" horiz-adv-x="458" 
d="M303 680h16c13 0 14 -12 14 -19c0 -56 -34 -111 -103 -111s-103 55 -103 111c0 7 1 19 14 19h16c11 0 14 -11 15 -16c5 -41 27 -63 58 -63c30 0 52 22 58 63c0 5 3 16 15 16zM405 321v-153c0 -110 -76 -176 -178 -176c-99 0 -174 63 -174 176v153c0 110 76 177 177 177
c99 0 175 -64 175 -177zM343 165v158c0 74 -50 118 -115 118c-64 0 -114 -44 -114 -118v-158c0 -73 50 -116 114 -116c65 0 115 43 115 116z" />
    <glyph glyph-name="ohungarumlaut" unicode="&#x151;" horiz-adv-x="458" 
d="M286 550h-15c-10 0 -17 10 -13 21l36 97c3 8 9 12 16 12h30c11 0 19 -11 14 -22l-52 -98c-4 -7 -10 -10 -16 -10zM182 550h-16c-10 0 -16 10 -13 21l37 97c3 8 8 12 15 12h31c11 0 19 -11 13 -22l-52 -98c-3 -7 -9 -10 -15 -10zM405 321v-153c0 -110 -76 -176 -178 -176
c-99 0 -174 63 -174 176v153c0 110 76 177 177 177c99 0 175 -64 175 -177zM343 165v158c0 74 -50 118 -115 118c-64 0 -114 -44 -114 -118v-158c0 -73 50 -116 114 -116c65 0 115 43 115 116z" />
    <glyph glyph-name="omacron" unicode="&#x14d;" horiz-adv-x="458" 
d="M317 587h-175c-8 0 -16 7 -16 15v21c0 8 8 16 16 16h175c8 0 16 -8 16 -16v-21c0 -8 -8 -15 -16 -15zM405 321v-153c0 -110 -76 -176 -178 -176c-99 0 -174 63 -174 176v153c0 110 76 177 177 177c99 0 175 -64 175 -177zM343 165v158c0 74 -50 118 -115 118
c-64 0 -114 -44 -114 -118v-158c0 -73 50 -116 114 -116c65 0 115 43 115 116z" />
    <glyph glyph-name="racute" unicode="&#x155;" horiz-adv-x="325" 
d="M199 550h-26c-10 0 -17 10 -13 21l36 97c3 8 9 12 16 12h41c11 0 20 -11 14 -22l-52 -98c-4 -7 -10 -10 -16 -10zM115 0h-30c-9 0 -15 7 -15 16v458c0 8 6 16 15 16h30c8 0 15 -8 15 -16v-46c23 37 59 70 123 70c22 0 41 -3 55 -9c9 -4 14 -12 8 -23l-18 -30
c-5 -10 -13 -10 -21 -7c-11 5 -24 8 -38 8c-71 0 -108 -57 -108 -128v-293c0 -9 -7 -16 -16 -16z" />
    <glyph glyph-name="rcaron" unicode="&#x159;" horiz-adv-x="325" 
d="M208 550h-48c-5 0 -11 3 -14 9l-59 98c-7 11 0 23 12 23h13c5 0 9 -2 13 -7l51 -59c5 -6 11 -6 17 0l51 59c4 5 8 7 13 7h13c11 0 18 -12 12 -23l-59 -98c-4 -6 -9 -9 -15 -9zM115 0h-30c-9 0 -15 7 -15 16v458c0 8 6 16 15 16h30c8 0 15 -8 15 -16v-46
c23 37 59 70 123 70c22 0 41 -3 55 -9c9 -4 14 -12 8 -23l-18 -30c-5 -10 -13 -10 -21 -7c-11 5 -24 8 -38 8c-71 0 -108 -57 -108 -128v-293c0 -9 -7 -16 -16 -16z" />
    <glyph glyph-name="rcommaaccent" unicode="&#x157;" horiz-adv-x="325" 
d="M115 0h-30c-9 0 -15 7 -15 16v458c0 8 6 16 15 16h30c8 0 15 -8 15 -16v-46c23 37 59 70 123 70c22 0 41 -3 55 -9c9 -4 14 -12 8 -23l-18 -30c-5 -10 -13 -10 -21 -7c-11 5 -24 8 -38 8c-71 0 -108 -57 -108 -128v-293c0 -9 -7 -16 -16 -16zM64 -166h-26
c-10 0 -16 10 -13 21l36 97c3 8 9 12 16 12h41c11 0 19 -11 14 -22l-52 -98c-4 -7 -10 -10 -16 -10z" />
    <glyph glyph-name="scaron" unicode="&#x161;" horiz-adv-x="410" 
d="M231 550h-48c-5 0 -11 3 -14 9l-59 98c-7 11 0 23 12 23h13c5 0 9 -2 13 -7l51 -59c5 -6 11 -6 17 0l51 59c4 5 8 7 13 7h13c11 0 18 -12 12 -23l-59 -98c-4 -6 -9 -9 -15 -9zM351 358h-32c-13 0 -15 8 -16 12c-9 47 -49 71 -102 71c-57 0 -99 -27 -99 -74
c0 -119 274 -64 274 -234c0 -91 -76 -141 -171 -141c-87 0 -156 43 -169 129c-1 6 3 19 15 19h33c11 0 14 -10 15 -15c11 -50 49 -77 110 -77c60 0 103 30 103 79c0 126 -272 67 -272 233c0 85 73 138 165 138c79 0 147 -35 161 -122c1 -7 -3 -18 -15 -18z" />
    <glyph glyph-name="sacute" unicode="&#x15b;" horiz-adv-x="410" 
d="M222 550h-26c-10 0 -17 10 -13 21l36 97c3 8 9 12 16 12h41c11 0 20 -11 14 -22l-52 -98c-4 -7 -10 -10 -16 -10zM351 358h-32c-13 0 -15 8 -16 12c-9 47 -49 71 -102 71c-57 0 -99 -27 -99 -74c0 -119 274 -64 274 -234c0 -91 -76 -141 -171 -141
c-87 0 -156 43 -169 129c-1 6 3 19 15 19h33c11 0 14 -10 15 -15c11 -50 49 -77 110 -77c60 0 103 30 103 79c0 126 -272 67 -272 233c0 85 73 138 165 138c79 0 147 -35 161 -122c1 -7 -3 -18 -15 -18z" />
    <glyph glyph-name="scedilla" unicode="&#x15f;" horiz-adv-x="410" 
d="M351 358h-32c-13 0 -15 8 -16 12c-9 47 -49 71 -102 71c-57 0 -99 -27 -99 -74c0 -119 274 -64 274 -234c0 -91 -76 -141 -171 -141c-87 0 -156 43 -169 129c-1 6 3 19 15 19h33c11 0 14 -10 15 -15c11 -50 49 -77 110 -77c60 0 103 30 103 79c0 126 -272 67 -272 233
c0 85 73 138 165 138c79 0 147 -35 161 -122c1 -7 -3 -18 -15 -18zM153 -162v10c0 16 10 17 17 16c9 -2 19 -3 27 -3c20 0 36 10 36 28c0 21 -32 50 -69 70c-6 4 -5 13 2 13h44c6 0 11 -1 17 -5c38 -23 66 -54 66 -86c0 -30 -26 -65 -84 -65c-10 0 -24 1 -42 6
c-7 2 -14 5 -14 16z" />
    <glyph glyph-name="scircumflex" unicode="&#x15d;" horiz-adv-x="410" 
d="M293 550h-13c-5 0 -9 2 -13 6l-51 59c-5 6 -12 6 -17 0l-51 -59c-4 -4 -8 -6 -13 -6h-13c-12 0 -19 11 -12 22l59 99c3 5 9 9 14 9h48c7 0 13 -6 15 -9l59 -99c6 -10 -1 -22 -12 -22zM351 358h-32c-13 0 -15 8 -16 12c-9 47 -49 71 -102 71c-57 0 -99 -27 -99 -74
c0 -119 274 -64 274 -234c0 -91 -76 -141 -171 -141c-87 0 -156 43 -169 129c-1 6 3 19 15 19h33c11 0 14 -10 15 -15c11 -50 49 -77 110 -77c60 0 103 30 103 79c0 126 -272 67 -272 233c0 85 73 138 165 138c79 0 147 -35 161 -122c1 -7 -3 -18 -15 -18z" />
    <glyph glyph-name="scommaaccent" unicode="&#x219;" horiz-adv-x="410" 
d="M351 358h-32c-13 0 -15 8 -16 12c-9 47 -49 71 -102 71c-57 0 -99 -27 -99 -74c0 -119 274 -64 274 -234c0 -91 -76 -141 -171 -141c-87 0 -156 43 -169 129c-1 6 3 19 15 19h33c11 0 14 -10 15 -15c11 -50 49 -77 110 -77c60 0 103 30 103 79c0 126 -272 67 -272 233
c0 85 73 138 165 138c79 0 147 -35 161 -122c1 -7 -3 -18 -15 -18zM158 -166h-26c-10 0 -16 10 -13 21l36 97c3 8 9 12 16 12h41c11 0 19 -11 14 -22l-52 -98c-4 -7 -10 -10 -16 -10z" />
    <glyph glyph-name="tbar" unicode="&#x167;" horiz-adv-x="294" 
d="M95 290v145h-71c-9 0 -16 7 -16 16v22c0 9 7 17 16 17h71v108c0 8 6 16 15 16h30c9 0 16 -8 16 -16v-108h109c9 0 17 -8 17 -17v-22c0 -9 -8 -16 -17 -16h-109v-145h109c9 0 17 -8 17 -17v-22c0 -9 -8 -16 -17 -16h-109v-88c0 -65 23 -92 88 -92h23c9 0 17 -8 17 -17v-22
c0 -9 -8 -16 -17 -16h-31c-100 0 -141 40 -141 139v96h-71c-9 0 -16 7 -16 16v22c0 9 7 17 16 17h71z" />
    <glyph glyph-name="tbar.alt" horiz-adv-x="278" 
d="M87 290v145h-63c-9 0 -16 7 -16 16v22c0 9 7 17 16 17h63v108c0 8 6 16 15 16h30c9 0 16 -8 16 -16v-108h101c9 0 17 -8 17 -17v-22c0 -9 -8 -16 -17 -16h-101v-145h101c9 0 17 -8 17 -17v-22c0 -9 -8 -16 -17 -16h-101v-88c0 -65 23 -92 88 -92h15c9 0 17 -8 17 -17v-22
c0 -9 -8 -16 -17 -16h-23c-100 0 -141 40 -141 139v96h-63c-9 0 -16 7 -16 16v22c0 9 7 17 16 17h63z" />
    <glyph glyph-name="tcaron" unicode="&#x165;" horiz-adv-x="292" 
d="M228 550h-16c-10 0 -17 9 -17 21v96c0 8 5 13 12 13h43c11 0 17 -11 15 -22l-22 -98c-3 -7 -9 -10 -15 -10zM267 0h-31c-100 0 -141 40 -141 139v296h-71c-9 0 -16 7 -16 16v22c0 9 7 17 16 17h71v108c0 8 6 16 15 16h30c9 0 16 -8 16 -16v-108h109c9 0 17 -8 17 -17v-22
c0 -9 -8 -16 -17 -16h-109v-288c0 -65 23 -92 88 -92h23c9 0 17 -8 17 -17v-22c0 -9 -8 -16 -17 -16z" />
    <glyph glyph-name="tcaron.alt" horiz-adv-x="276" 
d="M219 550h-16c-10 0 -17 9 -17 21v96c0 8 5 13 12 13h43c11 0 17 -11 15 -22l-22 -98c-3 -7 -9 -10 -15 -10zM251 0h-23c-100 0 -141 40 -141 139v296h-63c-9 0 -16 7 -16 16v22c0 9 7 17 16 17h63v108c0 8 6 16 15 16h30c9 0 16 -8 16 -16v-108h101c9 0 17 -8 17 -17v-22
c0 -9 -8 -16 -17 -16h-101v-288c0 -65 23 -92 88 -92h15c9 0 17 -8 17 -17v-22c0 -9 -8 -16 -17 -16z" />
    <glyph glyph-name="tcommaaccent" unicode="&#x163;" horiz-adv-x="294" 
d="M267 0h-31c-100 0 -141 40 -141 139v296h-71c-9 0 -16 7 -16 16v22c0 9 7 17 16 17h71v108c0 8 6 16 15 16h30c9 0 16 -8 16 -16v-108h109c9 0 17 -8 17 -17v-22c0 -9 -8 -16 -17 -16h-109v-288c0 -65 23 -92 88 -92h23c9 0 17 -8 17 -17v-22c0 -9 -8 -16 -17 -16z
M128 -166h-26c-10 0 -16 10 -13 21l36 97c3 8 9 12 16 12h41c11 0 19 -11 14 -22l-52 -98c-4 -7 -10 -10 -16 -10z" />
    <glyph glyph-name="tcommaaccent.alt" horiz-adv-x="278" 
d="M251 0h-23c-100 0 -141 40 -141 139v296h-63c-9 0 -16 7 -16 16v22c0 9 7 17 16 17h63v108c0 8 6 16 15 16h30c9 0 16 -8 16 -16v-108h101c9 0 17 -8 17 -17v-22c0 -9 -8 -16 -17 -16h-101v-288c0 -65 23 -92 88 -92h15c9 0 17 -8 17 -17v-22c0 -9 -8 -16 -17 -16z
M120 -166h-26c-10 0 -16 10 -13 21l36 97c3 8 9 12 16 12h41c11 0 19 -11 14 -22l-52 -98c-4 -7 -10 -10 -16 -10z" />
    <glyph glyph-name="uni021B" unicode="&#x21b;" horiz-adv-x="294" 
d="M267 0h-31c-100 0 -141 40 -141 139v296h-71c-9 0 -16 7 -16 16v22c0 9 7 17 16 17h71v108c0 8 6 16 15 16h30c9 0 16 -8 16 -16v-108h109c9 0 17 -8 17 -17v-22c0 -9 -8 -16 -17 -16h-109v-288c0 -65 23 -92 88 -92h23c9 0 17 -8 17 -17v-22c0 -9 -8 -16 -17 -16z
M128 -166h-26c-10 0 -16 10 -13 21l36 97c3 8 9 12 16 12h41c11 0 19 -11 14 -22l-52 -98c-4 -7 -10 -10 -16 -10z" />
    <glyph glyph-name="uni021B.alt" horiz-adv-x="278" 
d="M251 0h-23c-100 0 -141 40 -141 139v296h-63c-9 0 -16 7 -16 16v22c0 9 7 17 16 17h63v108c0 8 6 16 15 16h30c9 0 16 -8 16 -16v-108h101c9 0 17 -8 17 -17v-22c0 -9 -8 -16 -17 -16h-101v-288c0 -65 23 -92 88 -92h15c9 0 17 -8 17 -17v-22c0 -9 -8 -16 -17 -16z
M120 -166h-26c-10 0 -16 10 -13 21l36 97c3 8 9 12 16 12h41c11 0 19 -11 14 -22l-52 -98c-4 -7 -10 -10 -16 -10z" />
    <glyph glyph-name="uacute" unicode="&#xfa;" horiz-adv-x="478" 
d="M261 550h-26c-10 0 -17 10 -13 21l36 97c3 8 9 12 16 12h41c11 0 20 -11 14 -22l-52 -98c-4 -7 -10 -10 -16 -10zM393 0h-30c-8 0 -15 7 -15 16v42c-21 -34 -61 -66 -128 -66c-98 0 -150 62 -150 162v319c0 9 7 17 16 17h29c9 0 16 -8 16 -17v-313
c0 -70 36 -112 102 -112c68 0 114 47 114 112v313c0 9 7 17 16 17h29c9 0 16 -8 16 -17v-457c0 -9 -6 -16 -15 -16z" />
    <glyph glyph-name="ucircumflex" unicode="&#xfb;" horiz-adv-x="478" 
d="M332 550h-13c-5 0 -9 2 -13 6l-51 59c-5 6 -12 6 -17 0l-51 -59c-4 -4 -8 -6 -13 -6h-13c-12 0 -19 11 -12 22l59 99c3 5 9 9 14 9h48c7 0 13 -6 15 -9l59 -99c6 -10 -1 -22 -12 -22zM393 0h-30c-8 0 -15 7 -15 16v42c-21 -34 -61 -66 -128 -66c-98 0 -150 62 -150 162
v319c0 9 7 17 16 17h29c9 0 16 -8 16 -17v-313c0 -70 36 -112 102 -112c68 0 114 47 114 112v313c0 9 7 17 16 17h29c9 0 16 -8 16 -17v-457c0 -9 -6 -16 -15 -16z" />
    <glyph glyph-name="udieresis" unicode="&#xfc;" horiz-adv-x="478" 
d="M350 615c0 -23 -19 -42 -43 -42c-22 0 -41 19 -41 42c0 24 19 42 41 42c24 0 43 -18 43 -42zM227 615c0 -23 -19 -42 -42 -42s-42 19 -42 42c0 24 19 42 42 42s42 -18 42 -42zM393 0h-30c-8 0 -15 7 -15 16v42c-21 -34 -61 -66 -128 -66c-98 0 -150 62 -150 162v319
c0 9 7 17 16 17h29c9 0 16 -8 16 -17v-313c0 -70 36 -112 102 -112c68 0 114 47 114 112v313c0 9 7 17 16 17h29c9 0 16 -8 16 -17v-457c0 -9 -6 -16 -15 -16z" />
    <glyph glyph-name="ugrave" unicode="&#xf9;" horiz-adv-x="478" 
d="M260 550h-27c-6 0 -12 3 -15 10l-52 98c-5 11 3 22 13 22h42c6 0 12 -4 15 -12l36 -97c4 -11 -2 -21 -12 -21zM393 0h-30c-8 0 -15 7 -15 16v42c-21 -34 -61 -66 -128 -66c-98 0 -150 62 -150 162v319c0 9 7 17 16 17h29c9 0 16 -8 16 -17v-313c0 -70 36 -112 102 -112
c68 0 114 47 114 112v313c0 9 7 17 16 17h29c9 0 16 -8 16 -17v-457c0 -9 -6 -16 -15 -16z" />
    <glyph glyph-name="ubreve" unicode="&#x16d;" horiz-adv-x="478" 
d="M320 680h16c13 0 14 -12 14 -19c0 -56 -34 -111 -103 -111s-103 55 -103 111c0 7 1 19 14 19h16c11 0 14 -11 15 -16c5 -41 27 -63 58 -63c30 0 52 22 58 63c0 5 3 16 15 16zM393 0h-30c-8 0 -15 7 -15 16v42c-21 -34 -61 -66 -128 -66c-98 0 -150 62 -150 162v319
c0 9 7 17 16 17h29c9 0 16 -8 16 -17v-313c0 -70 36 -112 102 -112c68 0 114 47 114 112v313c0 9 7 17 16 17h29c9 0 16 -8 16 -17v-457c0 -9 -6 -16 -15 -16z" />
    <glyph glyph-name="uhungarumlaut" unicode="&#x171;" horiz-adv-x="478" 
d="M303 550h-15c-10 0 -17 10 -13 21l36 97c3 8 9 12 16 12h30c11 0 19 -11 14 -22l-52 -98c-4 -7 -10 -10 -16 -10zM199 550h-16c-10 0 -16 10 -13 21l37 97c3 8 8 12 15 12h31c11 0 19 -11 13 -22l-52 -98c-3 -7 -9 -10 -15 -10zM393 0h-30c-8 0 -15 7 -15 16v42
c-21 -34 -61 -66 -128 -66c-98 0 -150 62 -150 162v319c0 9 7 17 16 17h29c9 0 16 -8 16 -17v-313c0 -70 36 -112 102 -112c68 0 114 47 114 112v313c0 9 7 17 16 17h29c9 0 16 -8 16 -17v-457c0 -9 -6 -16 -15 -16z" />
    <glyph glyph-name="umacron" unicode="&#x16b;" horiz-adv-x="478" 
d="M334 587h-175c-8 0 -16 7 -16 15v21c0 8 8 16 16 16h175c8 0 16 -8 16 -16v-21c0 -8 -8 -15 -16 -15zM393 0h-30c-8 0 -15 7 -15 16v42c-21 -34 -61 -66 -128 -66c-98 0 -150 62 -150 162v319c0 9 7 17 16 17h29c9 0 16 -8 16 -17v-313c0 -70 36 -112 102 -112
c68 0 114 47 114 112v313c0 9 7 17 16 17h29c9 0 16 -8 16 -17v-457c0 -9 -6 -16 -15 -16z" />
    <glyph glyph-name="uogonek" unicode="&#x173;" horiz-adv-x="478" 
d="M393 0h-30c-8 0 -15 7 -15 16v42c-21 -34 -61 -66 -128 -66c-98 0 -150 62 -150 162v319c0 9 7 17 16 17h29c9 0 16 -8 16 -17v-313c0 -70 36 -112 102 -112c68 0 114 47 114 112v313c0 9 7 17 16 17h29c9 0 16 -8 16 -17v-457c0 -9 -6 -16 -15 -16zM420 -152v-10
c0 -11 -7 -14 -15 -16c-18 -5 -31 -6 -41 -6c-59 0 -85 35 -85 65c0 32 29 63 67 86c6 4 10 5 16 5h44c8 0 9 -9 3 -13c-38 -20 -69 -49 -69 -70c0 -18 16 -28 36 -28c7 0 17 1 26 3c8 1 18 0 18 -16z" />
    <glyph glyph-name="uring" unicode="&#x16f;" horiz-adv-x="478" 
d="M331 634c0 -47 -37 -84 -85 -84c-47 0 -84 37 -84 84s37 85 84 85c48 0 85 -38 85 -85zM246 588c24 0 45 20 45 46c0 24 -21 45 -45 45s-43 -21 -43 -45c0 -26 19 -46 43 -46zM393 0h-30c-8 0 -15 7 -15 16v42c-21 -34 -61 -66 -128 -66c-98 0 -150 62 -150 162v319
c0 9 7 17 16 17h29c9 0 16 -8 16 -17v-313c0 -70 36 -112 102 -112c68 0 114 47 114 112v313c0 9 7 17 16 17h29c9 0 16 -8 16 -17v-457c0 -9 -6 -16 -15 -16z" />
    <glyph glyph-name="utilde" unicode="&#x169;" horiz-adv-x="478" 
d="M358 613c-1 -21 -38 -57 -67 -57c-27 0 -78 31 -98 31c-21 0 -25 -35 -49 -22c-6 3 -10 8 -9 15c2 23 36 56 66 56c29 0 81 -31 98 -31c19 0 27 36 50 23c7 -4 9 -9 9 -15zM393 0h-30c-8 0 -15 7 -15 16v42c-21 -34 -61 -66 -128 -66c-98 0 -150 62 -150 162v319
c0 9 7 17 16 17h29c9 0 16 -8 16 -17v-313c0 -70 36 -112 102 -112c68 0 114 47 114 112v313c0 9 7 17 16 17h29c9 0 16 -8 16 -17v-457c0 -9 -6 -16 -15 -16z" />
    <glyph glyph-name="wacute" unicode="&#x1e83;" horiz-adv-x="610" 
d="M321 550h-26c-10 0 -17 10 -13 21l36 97c3 8 9 12 16 12h41c11 0 20 -11 14 -22l-52 -98c-4 -7 -10 -10 -16 -10zM454 0h-42c-7 0 -13 3 -15 12l-91 376c-1 4 -4 4 -5 0l-95 -376c-3 -10 -8 -12 -15 -12h-40c-7 0 -13 4 -15 12l-120 459c-2 9 3 19 13 19h35
c8 0 14 -6 16 -15l91 -383c2 -7 5 -7 7 0l95 385c2 8 7 13 15 13h36c7 0 13 -5 15 -14l93 -384c1 -4 4 -4 5 0l94 384c2 8 8 14 15 14h31c12 0 17 -11 15 -21l-123 -456c-2 -9 -9 -13 -15 -13z" />
    <glyph glyph-name="wcircumflex" unicode="&#x175;" horiz-adv-x="610" 
d="M392 550h-13c-5 0 -9 2 -13 6l-51 59c-5 6 -12 6 -17 0l-51 -59c-4 -4 -8 -6 -13 -6h-13c-12 0 -19 11 -12 22l59 99c3 5 9 9 14 9h48c7 0 13 -6 15 -9l59 -99c6 -10 -1 -22 -12 -22zM454 0h-42c-7 0 -13 3 -15 12l-91 376c-1 4 -4 4 -5 0l-95 -376
c-3 -10 -8 -12 -15 -12h-40c-7 0 -13 4 -15 12l-120 459c-2 9 3 19 13 19h35c8 0 14 -6 16 -15l91 -383c2 -7 5 -7 7 0l95 385c2 8 7 13 15 13h36c7 0 13 -5 15 -14l93 -384c1 -4 4 -4 5 0l94 384c2 8 8 14 15 14h31c12 0 17 -11 15 -21l-123 -456c-2 -9 -9 -13 -15 -13z
" />
    <glyph glyph-name="wdieresis" unicode="&#x1e85;" horiz-adv-x="610" 
d="M410 615c0 -23 -19 -42 -43 -42c-22 0 -41 19 -41 42c0 24 19 42 41 42c24 0 43 -18 43 -42zM287 615c0 -23 -19 -42 -42 -42s-42 19 -42 42c0 24 19 42 42 42s42 -18 42 -42zM454 0h-42c-7 0 -13 3 -15 12l-91 376c-1 4 -4 4 -5 0l-95 -376c-3 -10 -8 -12 -15 -12h-40
c-7 0 -13 4 -15 12l-120 459c-2 9 3 19 13 19h35c8 0 14 -6 16 -15l91 -383c2 -7 5 -7 7 0l95 385c2 8 7 13 15 13h36c7 0 13 -5 15 -14l93 -384c1 -4 4 -4 5 0l94 384c2 8 8 14 15 14h31c12 0 17 -11 15 -21l-123 -456c-2 -9 -9 -13 -15 -13z" />
    <glyph glyph-name="wgrave" unicode="&#x1e81;" horiz-adv-x="610" 
d="M320 550h-27c-6 0 -12 3 -15 10l-52 98c-5 11 3 22 13 22h42c6 0 12 -4 15 -12l36 -97c4 -11 -2 -21 -12 -21zM454 0h-42c-7 0 -13 3 -15 12l-91 376c-1 4 -4 4 -5 0l-95 -376c-3 -10 -8 -12 -15 -12h-40c-7 0 -13 4 -15 12l-120 459c-2 9 3 19 13 19h35
c8 0 14 -6 16 -15l91 -383c2 -7 5 -7 7 0l95 385c2 8 7 13 15 13h36c7 0 13 -5 15 -14l93 -384c1 -4 4 -4 5 0l94 384c2 8 8 14 15 14h31c12 0 17 -11 15 -21l-123 -456c-2 -9 -9 -13 -15 -13z" />
    <glyph glyph-name="yacute" unicode="&#xfd;" horiz-adv-x="396" 
d="M232 550h-26c-10 0 -17 10 -13 21l36 97c3 8 9 12 16 12h41c11 0 20 -11 14 -22l-52 -98c-4 -7 -10 -10 -16 -10zM53 -184h-16c-9 0 -16 6 -16 15v26c0 9 7 16 16 16h10c63 0 82 30 101 91l9 27c5 16 3 26 -2 40l-143 437c-4 12 3 22 13 22h34c8 0 13 -4 16 -13l116 -368
c3 -9 6 -9 9 -1l121 368c2 7 7 14 17 14h27c13 0 20 -11 16 -22l-174 -514c-32 -96 -57 -138 -154 -138z" />
    <glyph glyph-name="ydieresis" unicode="&#xff;" horiz-adv-x="396" 
d="M303 615c0 -23 -19 -42 -43 -42c-22 0 -41 19 -41 42c0 24 19 42 41 42c24 0 43 -18 43 -42zM180 615c0 -23 -19 -42 -42 -42s-42 19 -42 42c0 24 19 42 42 42s42 -18 42 -42zM53 -184h-16c-9 0 -16 6 -16 15v26c0 9 7 16 16 16h10c63 0 82 30 101 91l9 27
c5 16 3 26 -2 40l-143 437c-4 12 3 22 13 22h34c8 0 13 -4 16 -13l116 -368c3 -9 6 -9 9 -1l121 368c2 7 7 14 17 14h27c13 0 20 -11 16 -22l-174 -514c-32 -96 -57 -138 -154 -138z" />
    <glyph glyph-name="ycircumflex" unicode="&#x177;" horiz-adv-x="396" 
d="M285 550h-13c-5 0 -9 2 -13 6l-51 59c-5 6 -12 6 -17 0l-51 -59c-4 -4 -8 -6 -13 -6h-13c-12 0 -19 11 -12 22l59 99c3 5 9 9 14 9h48c7 0 13 -6 15 -9l59 -99c6 -10 -1 -22 -12 -22zM53 -184h-16c-9 0 -16 6 -16 15v26c0 9 7 16 16 16h10c63 0 82 30 101 91l9 27
c5 16 3 26 -2 40l-143 437c-4 12 3 22 13 22h34c8 0 13 -4 16 -13l116 -368c3 -9 6 -9 9 -1l121 368c2 7 7 14 17 14h27c13 0 20 -11 16 -22l-174 -514c-32 -96 -57 -138 -154 -138z" />
    <glyph glyph-name="ygrave" unicode="&#x1ef3;" horiz-adv-x="396" 
d="M213 550h-27c-6 0 -12 3 -15 10l-52 98c-5 11 3 22 13 22h42c6 0 12 -4 15 -12l36 -97c4 -11 -2 -21 -12 -21zM53 -184h-16c-9 0 -16 6 -16 15v26c0 9 7 16 16 16h10c63 0 82 30 101 91l9 27c5 16 3 26 -2 40l-143 437c-4 12 3 22 13 22h34c8 0 13 -4 16 -13l116 -368
c3 -9 6 -9 9 -1l121 368c2 7 7 14 17 14h27c13 0 20 -11 16 -22l-174 -514c-32 -96 -57 -138 -154 -138z" />
    <glyph glyph-name="zcaron" unicode="&#x17e;" horiz-adv-x="413" 
d="M224 550h-48c-5 0 -11 3 -14 9l-59 98c-7 11 0 23 12 23h13c5 0 9 -2 13 -7l51 -59c5 -6 11 -6 17 0l51 59c4 5 8 7 13 7h13c11 0 18 -12 12 -23l-59 -98c-4 -6 -9 -9 -15 -9zM367 0h-322c-8 0 -16 7 -16 15v28c0 9 3 16 10 26l255 357c4 6 2 9 -4 9h-235
c-9 0 -16 7 -16 16v22c0 9 7 17 16 17h304c8 0 16 -8 16 -16v-27c0 -9 -3 -14 -11 -25l-259 -360c-3 -4 -3 -8 4 -8h258c9 0 17 -7 17 -16v-22c0 -9 -8 -16 -17 -16z" />
    <glyph glyph-name="zacute" unicode="&#x17a;" horiz-adv-x="413" 
d="M215 550h-26c-10 0 -17 10 -13 21l36 97c3 8 9 12 16 12h41c11 0 20 -11 14 -22l-52 -98c-4 -7 -10 -10 -16 -10zM367 0h-322c-8 0 -16 7 -16 15v28c0 9 3 16 10 26l255 357c4 6 2 9 -4 9h-235c-9 0 -16 7 -16 16v22c0 9 7 17 16 17h304c8 0 16 -8 16 -16v-27
c0 -9 -3 -14 -11 -25l-259 -360c-3 -4 -3 -8 4 -8h258c9 0 17 -7 17 -16v-22c0 -9 -8 -16 -17 -16z" />
    <glyph glyph-name="zdotaccent" unicode="&#x17c;" horiz-adv-x="413" 
d="M247 615c0 -26 -21 -46 -47 -46s-46 20 -46 46s20 47 46 47s47 -21 47 -47zM367 0h-322c-8 0 -16 7 -16 15v28c0 9 3 16 10 26l255 357c4 6 2 9 -4 9h-235c-9 0 -16 7 -16 16v22c0 9 7 17 16 17h304c8 0 16 -8 16 -16v-27c0 -9 -3 -14 -11 -25l-259 -360
c-3 -4 -3 -8 4 -8h258c9 0 17 -7 17 -16v-22c0 -9 -8 -16 -17 -16z" />
    <glyph glyph-name="acute" unicode="&#xb4;" horiz-adv-x="207" 
d="M118 550h-26c-10 0 -17 10 -13 21l36 97c3 8 9 12 16 12h41c11 0 20 -11 14 -22l-52 -98c-4 -7 -10 -10 -16 -10z" />
    <glyph glyph-name="grave" unicode="`" horiz-adv-x="207" 
d="M117 550h-27c-6 0 -12 3 -15 10l-52 98c-5 11 3 22 13 22h42c6 0 12 -4 15 -12l36 -97c4 -11 -2 -21 -12 -21z" />
    <glyph glyph-name="circumflex" unicode="&#x2c6;" horiz-adv-x="206" 
d="M189 550h-13c-5 0 -9 2 -13 6l-51 59c-5 6 -12 6 -17 0l-51 -59c-4 -4 -8 -6 -13 -6h-13c-12 0 -19 11 -12 22l59 99c3 5 9 9 14 9h48c7 0 13 -6 15 -9l59 -99c6 -10 -1 -22 -12 -22z" />
    <glyph glyph-name="caron" unicode="&#x2c7;" horiz-adv-x="206" 
d="M127 550h-48c-5 0 -11 3 -14 9l-59 98c-7 11 0 23 12 23h13c5 0 9 -2 13 -7l51 -59c5 -6 11 -6 17 0l51 59c4 5 8 7 13 7h13c11 0 18 -12 12 -23l-59 -98c-4 -6 -9 -9 -15 -9z" />
    <glyph glyph-name="tilde" unicode="&#x2dc;" horiz-adv-x="207" 
d="M215 613c-1 -21 -38 -57 -67 -57c-27 0 -78 31 -98 31c-21 0 -25 -35 -49 -22c-6 3 -10 8 -9 15c2 23 36 56 66 56c29 0 81 -31 98 -31c19 0 27 36 50 23c7 -4 9 -9 9 -15z" />
    <glyph glyph-name="dieresis" unicode="&#xa8;" horiz-adv-x="207" 
d="M207 615c0 -23 -19 -42 -43 -42c-22 0 -41 19 -41 42c0 24 19 42 41 42c24 0 43 -18 43 -42zM84 615c0 -23 -19 -42 -42 -42s-42 19 -42 42c0 24 19 42 42 42s42 -18 42 -42z" />
    <glyph glyph-name="ring" unicode="&#x2da;" horiz-adv-x="207" 
d="M188 634c0 -47 -37 -84 -85 -84c-47 0 -84 37 -84 84s37 85 84 85c48 0 85 -38 85 -85zM103 588c24 0 45 20 45 46c0 24 -21 45 -45 45s-43 -21 -43 -45c0 -26 19 -46 43 -46z" />
    <glyph glyph-name="cedilla" unicode="&#xb8;" horiz-adv-x="207" 
d="M59 -162v10c0 16 10 17 17 16c9 -2 19 -3 27 -3c20 0 36 10 36 28c0 21 -32 50 -69 70c-6 4 -5 13 2 13h44c6 0 11 -1 17 -5c38 -23 66 -54 66 -86c0 -30 -26 -65 -84 -65c-10 0 -24 1 -42 6c-7 2 -14 5 -14 16z" />
    <glyph glyph-name="hungarumlaut" unicode="&#x2dd;" horiz-adv-x="207" 
d="M160 550h-15c-10 0 -17 10 -13 21l36 97c3 8 9 12 16 12h30c11 0 19 -11 14 -22l-52 -98c-4 -7 -10 -10 -16 -10zM56 550h-16c-10 0 -16 10 -13 21l37 97c3 8 8 12 15 12h31c11 0 19 -11 13 -22l-52 -98c-3 -7 -9 -10 -15 -10z" />
    <glyph glyph-name="breve" unicode="&#x2d8;" horiz-adv-x="207" 
d="M177 680h16c13 0 14 -12 14 -19c0 -56 -34 -111 -103 -111s-103 55 -103 111c0 7 1 19 14 19h16c11 0 14 -11 15 -16c5 -41 27 -63 58 -63c30 0 52 22 58 63c0 5 3 16 15 16z" />
    <glyph glyph-name="macron" unicode="&#xaf;" horiz-adv-x="207" 
d="M191 587h-175c-8 0 -16 7 -16 15v21c0 8 8 16 16 16h175c8 0 16 -8 16 -16v-21c0 -8 -8 -15 -16 -15z" />
    <glyph glyph-name="dotaccent" unicode="&#x2d9;" horiz-adv-x="207" 
d="M150 615c0 -26 -21 -46 -47 -46s-46 20 -46 46s20 47 46 47s47 -21 47 -47z" />
    <glyph glyph-name="periodcentered" unicode="&#xb7;" horiz-adv-x="180" 
d="M141 351c0 -28 -23 -50 -52 -50s-51 22 -51 50c0 30 22 53 51 53s52 -23 52 -53z" />
    <glyph glyph-name="ogonek" unicode="&#x2db;" horiz-adv-x="207" 
d="M147 -152v-10c0 -11 -7 -14 -15 -16c-18 -5 -31 -6 -41 -6c-59 0 -85 35 -85 65c0 32 29 63 67 86c6 4 10 5 16 5h44c8 0 9 -9 3 -13c-38 -20 -69 -49 -69 -70c0 -18 16 -28 36 -28c7 0 17 1 26 3c8 1 18 0 18 -16z" />
    <glyph glyph-name="commaaccent" unicode="&#xf6c3;" horiz-adv-x="207" 
d="M64 -166h-26c-10 0 -16 10 -13 21l36 97c3 8 9 12 16 12h41c11 0 19 -11 14 -22l-52 -98c-4 -7 -10 -10 -16 -10z" />
    <glyph glyph-name="caron.alt" horiz-adv-x="207" 
d="M112 550h-16c-10 0 -17 9 -17 21v96c0 8 5 13 12 13h43c11 0 17 -11 15 -22l-22 -98c-3 -7 -9 -10 -15 -10z" />
    <glyph glyph-name="revcommaaccent" horiz-adv-x="207" 
d="M129 550h-41c-11 0 -19 11 -14 22l52 98c4 7 10 10 16 10h26c10 0 16 -10 13 -21l-36 -97c-3 -8 -9 -12 -16 -12z" />
    <glyph glyph-name="period" unicode="." horiz-adv-x="180" 
d="M141 42c0 -28 -23 -50 -52 -50s-51 22 -51 50c0 30 22 53 51 53s52 -23 52 -53z" />
    <glyph glyph-name="comma" unicode="," horiz-adv-x="180" 
d="M54 -122h-18c-12 0 -18 8 -16 19l38 188c2 8 7 13 15 13h41c11 0 18 -8 14 -20l-57 -187c-2 -8 -9 -13 -17 -13z" />
    <glyph glyph-name="colon" unicode=":" horiz-adv-x="180" 
d="M141 425c0 -29 -23 -51 -52 -51s-51 22 -51 51s22 52 51 52s52 -23 52 -52zM141 42c0 -28 -23 -50 -52 -50s-51 22 -51 50c0 30 22 53 51 53s52 -23 52 -53z" />
    <glyph glyph-name="semicolon" unicode=";" horiz-adv-x="180" 
d="M141 425c0 -29 -23 -51 -52 -51s-51 22 -51 51s22 52 51 52s52 -23 52 -52zM54 -122h-18c-12 0 -18 8 -16 19l38 188c2 8 7 13 15 13h41c11 0 18 -8 14 -20l-57 -187c-2 -8 -9 -13 -17 -13z" />
    <glyph glyph-name="ellipsis" unicode="&#x2026;" horiz-adv-x="540" 
d="M501 42c0 -28 -23 -50 -52 -50s-51 22 -51 50c0 30 22 53 51 53s52 -23 52 -53zM321 42c0 -28 -23 -50 -52 -50s-51 22 -51 50c0 30 22 53 51 53s52 -23 52 -53zM141 42c0 -28 -23 -50 -52 -50s-51 22 -51 50c0 30 22 53 51 53s52 -23 52 -53z" />
    <glyph glyph-name="question" unicode="?" horiz-adv-x="436" 
d="M221 203h-26c-9 0 -16 7 -16 16c0 124 144 193 144 300c0 59 -49 109 -112 109c-56 0 -113 -42 -113 -116c0 -9 -3 -17 -17 -17h-33c-8 0 -15 8 -15 16c0 100 81 177 181 177c98 0 174 -76 174 -169c0 -128 -151 -199 -151 -300c0 -9 -7 -16 -16 -16zM259 42
c0 -28 -23 -50 -52 -50c-28 0 -50 22 -50 50c0 29 22 52 50 52c29 0 52 -23 52 -52z" />
    <glyph glyph-name="exclam" unicode="!" horiz-adv-x="215" 
d="M117 203h-17c-8 0 -15 7 -15 15l-12 445c0 8 6 17 16 17h41c8 0 16 -8 16 -17l-13 -445c0 -8 -7 -15 -16 -15zM159 42c0 -28 -23 -50 -53 -50c-28 0 -50 22 -50 50c0 30 22 53 50 53c30 0 53 -23 53 -53z" />
    <glyph glyph-name="questiondown" unicode="&#xbf;" horiz-adv-x="436" 
d="M178 448c0 28 23 50 52 50c28 0 50 -22 50 -50c0 -29 -22 -52 -50 -52c-29 0 -52 23 -52 52zM216 287h26c9 0 16 -7 16 -16c0 -124 -144 -193 -144 -300c0 -59 49 -109 112 -109c56 0 113 42 113 116c0 9 3 17 17 17h33c8 0 15 -8 15 -16c0 -100 -81 -177 -181 -177
c-98 0 -174 76 -174 169c0 128 151 199 151 300c0 9 7 16 16 16z" />
    <glyph glyph-name="exclamdown" unicode="&#xa1;" horiz-adv-x="215" 
d="M106 498c30 0 53 -22 53 -50c0 -30 -23 -53 -53 -53c-28 0 -50 23 -50 53c0 28 22 50 50 50zM100 287h17c9 0 16 -7 16 -15l13 -445c0 -9 -8 -17 -16 -17h-41c-10 0 -16 9 -16 17l12 445c0 8 7 15 15 15z" />
    <glyph glyph-name="parenleft" unicode="(" horiz-adv-x="309" 
d="M251 -184h-16c-122 0 -155 56 -155 192v538c0 135 33 192 155 192h16c9 0 16 -8 16 -16v-21c0 -8 -7 -15 -16 -15h-12c-75 0 -100 -34 -100 -108v-603c0 -74 25 -108 100 -108h12c9 0 16 -7 16 -16v-20c0 -9 -7 -15 -16 -15z" />
    <glyph glyph-name="parenright" unicode=")" horiz-adv-x="309" 
d="M73 -184h-16c-8 0 -16 6 -16 15v20c0 9 8 16 16 16h12c75 0 100 34 100 108v603c0 74 -25 108 -100 108h-12c-8 0 -16 7 -16 15v21c0 8 8 16 16 16h16c122 0 156 -57 156 -192v-538c0 -136 -34 -192 -156 -192z" />
    <glyph glyph-name="parenleft.alt" horiz-adv-x="333" 
d="M277 -137l-13 -12c-8 -7 -19 -5 -26 2c-113 119 -169 271 -169 419s58 300 169 419c7 7 18 9 26 2l13 -12c9 -8 7 -19 -1 -28c-100 -112 -150 -246 -150 -381s50 -269 150 -381c8 -9 10 -20 1 -28z" />
    <glyph glyph-name="parenright.alt" horiz-adv-x="333" 
d="M69 -149l-13 12c-9 8 -7 19 1 28c100 112 150 246 150 381s-50 269 -150 381c-8 9 -10 20 -1 28l13 12c8 7 19 5 26 -2c111 -119 169 -271 169 -419s-56 -300 -169 -419c-7 -7 -18 -9 -26 -2z" />
    <glyph glyph-name="braceleft" unicode="{" horiz-adv-x="309" 
d="M111 277c48 -26 72 -65 72 -162v-117c0 -91 13 -131 91 -131c10 0 18 -7 18 -16v-20c0 -8 -8 -15 -16 -15c-114 0 -151 44 -151 157v147c0 82 -28 122 -73 126c-17 2 -25 6 -25 21v20c0 15 8 19 25 21c45 4 73 44 73 126v147c0 113 37 157 151 157c8 0 16 -7 16 -15v-20
c0 -9 -8 -16 -18 -16c-78 0 -91 -40 -91 -131v-117c0 -97 -24 -136 -72 -162z" />
    <glyph glyph-name="braceright" unicode="}" horiz-adv-x="309" 
d="M198 277c-48 26 -72 65 -72 162v117c0 91 -13 131 -91 131c-10 0 -18 7 -18 16v20c0 8 8 15 16 15c114 0 151 -44 151 -157v-147c0 -82 28 -122 73 -126c17 -2 25 -6 25 -21v-20c0 -15 -8 -19 -25 -21c-45 -4 -73 -44 -73 -126v-147c0 -113 -37 -157 -151 -157
c-8 0 -16 7 -16 15v20c0 9 8 16 18 16c78 0 91 40 91 131v117c0 97 24 136 72 162z" />
    <glyph glyph-name="bracketleft" unicode="[" horiz-adv-x="309" 
d="M251 -184h-156c-8 0 -15 8 -15 16v890c0 8 7 16 15 16h156c8 0 16 -7 16 -16v-20c0 -8 -8 -16 -16 -16h-96c-8 0 -16 -7 -16 -15v-788c0 -8 8 -15 16 -15h96c8 0 16 -8 16 -17v-20c0 -8 -8 -15 -16 -15z" />
    <glyph glyph-name="bracketright" unicode="]" horiz-adv-x="309" 
d="M214 -184h-156c-8 0 -16 7 -16 15v20c0 9 8 17 16 17h96c8 0 16 7 16 15v788c0 8 -8 15 -16 15h-96c-8 0 -16 8 -16 16v20c0 9 8 16 16 16h156c8 0 15 -8 15 -16v-890c0 -8 -7 -16 -15 -16z" />
    <glyph glyph-name="slash" unicode="/" horiz-adv-x="399" 
d="M45 -6h-21c-11 0 -18 11 -13 21l328 660c3 5 8 9 15 9h21c12 0 19 -12 14 -22l-329 -659c-3 -6 -8 -9 -15 -9z" />
    <glyph glyph-name="backslash" unicode="\" horiz-adv-x="399" 
d="M375 -6h-21c-6 0 -12 3 -14 9l-329 659c-5 10 2 22 13 22h21c7 0 12 -4 15 -9l329 -660c5 -10 -2 -21 -14 -21z" />
    <glyph glyph-name="underscore" unicode="_" horiz-adv-x="416" 
d="M400 -124h-384c-8 0 -16 7 -16 15v23c0 9 8 16 16 16h384c8 0 16 -7 16 -16v-23c0 -8 -8 -15 -16 -15z" />
    <glyph glyph-name="hyphen" unicode="-" horiz-adv-x="318" 
d="M270 230h-221c-8 0 -16 6 -16 15v23c0 9 8 16 16 16h221c8 0 16 -7 16 -16v-23c0 -9 -8 -15 -16 -15z" />
    <glyph glyph-name="uni00AD" unicode="&#xad;" horiz-adv-x="0" 
 />
    <glyph glyph-name="endash" unicode="&#x2013;" horiz-adv-x="500" 
d="M442 230h-384c-8 0 -16 6 -16 15v23c0 9 8 16 16 16h384c8 0 16 -7 16 -16v-23c0 -9 -8 -15 -16 -15z" />
    <glyph glyph-name="emdash" unicode="&#x2014;" horiz-adv-x="1000" 
d="M942 230h-884c-8 0 -16 6 -16 15v23c0 9 8 16 16 16h884c8 0 16 -7 16 -16v-23c0 -9 -8 -15 -16 -15z" />
    <glyph glyph-name="brokenbar" unicode="&#xa6;" horiz-adv-x="228" 
d="M127 331h-27c-9 0 -16 8 -16 16v339c0 9 7 16 16 16h27c9 0 16 -7 16 -16v-339c0 -8 -7 -16 -16 -16zM127 -165h-27c-9 0 -16 7 -16 16v341c0 9 7 17 16 17h27c9 0 16 -8 16 -17v-341c0 -9 -7 -16 -16 -16z" />
    <glyph glyph-name="bar" unicode="|" horiz-adv-x="227" 
d="M126 -177h-27c-8 0 -15 8 -15 16v825c0 8 7 16 15 16h27c9 0 16 -8 16 -16v-825c0 -8 -7 -16 -16 -16z" />
    <glyph glyph-name="apostrophe" unicode="&#x2bc;" horiz-adv-x="207" 
d="M118 550h-26c-10 0 -16 10 -13 21l36 97c3 8 9 12 16 12h41c11 0 19 -11 14 -22l-52 -98c-4 -7 -10 -10 -16 -10z" />
    <glyph glyph-name="guillemotleft" unicode="&#xab;" horiz-adv-x="372" 
d="M319 88h-27c-8 0 -14 6 -17 13l-74 148c-7 14 -7 26 0 40l74 146c3 7 9 13 17 13h29c13 0 21 -14 14 -27l-71 -143c-3 -6 -4 -11 0 -18l69 -145c7 -14 -1 -27 -14 -27zM147 88h-27c-8 0 -14 6 -17 13l-74 148c-7 14 -7 26 0 40l74 146c3 7 9 13 17 13h29
c13 0 21 -14 14 -27l-71 -143c-3 -6 -4 -11 0 -18l69 -145c7 -14 -1 -27 -14 -27z" />
    <glyph glyph-name="guillemotright" unicode="&#xbb;" horiz-adv-x="372" 
d="M251 88h-27c-13 0 -21 13 -15 27l70 145c3 6 2 13 0 18l-71 143c-7 13 1 27 14 27h29c8 0 13 -6 17 -13l73 -146c7 -14 7 -26 0 -40l-73 -148c-4 -7 -9 -13 -17 -13zM79 88h-27c-13 0 -21 13 -15 27l70 145c3 6 2 13 0 18l-71 143c-7 13 1 27 14 27h29c8 0 13 -6 17 -13
l73 -146c7 -14 7 -26 0 -40l-73 -148c-4 -7 -9 -13 -17 -13z" />
    <glyph glyph-name="guilsinglleft" unicode="&#x2039;" horiz-adv-x="199" 
d="M147 88h-27c-8 0 -14 6 -17 13l-74 148c-7 14 -7 26 0 40l74 146c3 7 9 13 17 13h29c13 0 21 -14 14 -27l-71 -143c-3 -6 -4 -11 0 -18l69 -145c7 -14 -1 -27 -14 -27z" />
    <glyph glyph-name="guilsinglright" unicode="&#x203a;" horiz-adv-x="199" 
d="M79 88h-27c-13 0 -21 13 -15 27l70 145c3 6 2 13 0 18l-71 143c-7 13 1 27 14 27h29c8 0 13 -6 17 -13l73 -146c7 -14 7 -26 0 -40l-73 -148c-4 -7 -9 -13 -17 -13z" />
    <glyph glyph-name="quotesinglbase" unicode="&#x201a;" horiz-adv-x="149" 
d="M46 -118h-15c-12 0 -19 7 -16 18l43 184c2 8 6 13 15 13h37c12 0 19 -9 15 -21l-62 -182c-3 -8 -9 -12 -17 -12z" />
    <glyph glyph-name="quotedblbase" unicode="&#x201e;" horiz-adv-x="286" 
d="M182 -118h-15c-12 0 -19 7 -16 18l43 184c2 8 6 13 15 13h37c12 0 19 -9 15 -21l-62 -182c-3 -8 -9 -12 -17 -12zM46 -118h-15c-12 0 -19 7 -16 18l43 184c2 8 6 13 15 13h37c12 0 19 -9 15 -21l-62 -182c-3 -8 -9 -12 -17 -12z" />
    <glyph glyph-name="quoteleft" unicode="&#x2018;" horiz-adv-x="149" 
d="M71 464h-37c-12 0 -19 10 -15 21l62 182c3 9 9 13 17 13h15c12 0 18 -8 16 -18l-43 -184c-1 -8 -6 -14 -15 -14z" />
    <glyph glyph-name="quotedblleft" unicode="&#x201c;" horiz-adv-x="286" 
d="M207 464h-37c-12 0 -19 10 -15 21l62 182c3 9 9 13 17 13h15c12 0 18 -8 16 -18l-43 -184c-1 -8 -6 -14 -15 -14zM71 464h-37c-12 0 -19 10 -15 21l62 182c3 9 9 13 17 13h15c12 0 18 -8 16 -18l-43 -184c-1 -8 -6 -14 -15 -14z" />
    <glyph glyph-name="quoteright" unicode="&#x2019;" horiz-adv-x="149" 
d="M48 464h-16c-11 0 -18 8 -15 19l42 183c2 8 7 14 15 14h38c11 0 18 -10 14 -21l-62 -182c-3 -8 -9 -13 -16 -13z" />
    <glyph glyph-name="quotedblright" unicode="&#x201d;" horiz-adv-x="286" 
d="M184 464h-16c-11 0 -18 8 -15 19l42 183c2 8 7 14 15 14h38c11 0 18 -10 14 -21l-62 -182c-3 -8 -9 -13 -16 -13zM48 464h-16c-11 0 -18 8 -15 19l42 183c2 8 7 14 15 14h38c11 0 18 -10 14 -21l-62 -182c-3 -8 -9 -13 -16 -13z" />
    <glyph glyph-name="quotesingle" unicode="'" horiz-adv-x="149" 
d="M83 464h-19c-8 0 -14 4 -15 16l-10 184c0 9 7 16 15 16h39c8 0 15 -7 15 -16l-9 -184c-1 -11 -8 -16 -16 -16z" />
    <glyph glyph-name="quotedbl" unicode="&#x22;" horiz-adv-x="286" 
d="M219 464h-19c-8 0 -14 4 -15 16l-10 184c0 9 7 16 15 16h39c8 0 15 -7 15 -16l-9 -184c-1 -11 -8 -16 -16 -16zM83 464h-19c-8 0 -14 4 -15 16l-10 184c0 9 7 16 15 16h39c8 0 15 -7 15 -16l-9 -184c-1 -11 -8 -16 -16 -16z" />
    <glyph glyph-name="bullet" unicode="&#x2022;" horiz-adv-x="354" 
d="M177 215c-76 0 -137 61 -137 137s61 137 137 137s137 -61 137 -137s-61 -137 -137 -137z" />
    <glyph glyph-name="ampersand" unicode="&#x26;" horiz-adv-x="567" 
d="M254 398c77 50 108 88 108 137c0 45 -26 95 -87 95c-57 0 -88 -46 -88 -95c0 -39 20 -73 67 -137zM371 137l-144 195c-74 -45 -115 -92 -115 -161c0 -79 48 -122 117 -122c50 0 96 25 142 88zM520 0h-39c-10 0 -14 4 -19 11l-58 81c-50 -66 -114 -100 -184 -100
c-97 0 -171 63 -171 172c0 100 62 156 150 207c-45 65 -77 111 -77 166c0 79 59 151 157 151c89 0 146 -57 146 -146c0 -75 -44 -123 -143 -182l124 -167l69 131c3 6 7 10 15 10h30c13 0 19 -14 14 -23l-91 -167l88 -120c8 -11 2 -24 -11 -24z" />
    <glyph glyph-name="paragraph" unicode="&#xb6;" horiz-adv-x="537" 
d="M449 -177h-21c-9 0 -15 8 -15 17v776c0 9 -8 16 -16 16h-123c-8 0 -15 -7 -15 -16v-776c0 -9 -8 -17 -16 -17h-21c-8 0 -15 8 -15 17v523c0 7 -5 14 -21 14c-84 0 -152 66 -152 152c0 81 66 151 148 151h267c8 0 16 -8 16 -16v-824c0 -9 -8 -17 -16 -17z" />
    <glyph glyph-name="dagger" unicode="&#x2020;" horiz-adv-x="460" 
d="M246 -184h-32c-9 0 -16 8 -16 16v587c0 10 -14 15 -24 15h-116c-9 0 -16 8 -16 16v25c0 8 7 15 16 15h123c9 0 17 7 17 15v159c0 8 7 16 16 16h32c8 0 15 -8 15 -16v-159c0 -10 13 -15 24 -15h117c8 0 16 -7 16 -15v-25c0 -8 -8 -16 -16 -16h-125c-8 0 -16 -6 -16 -15
v-587c0 -8 -7 -16 -15 -16z" />
    <glyph glyph-name="daggerdbl" unicode="&#x2021;" horiz-adv-x="460" 
d="M246 -184h-32c-9 0 -16 8 -16 16v153c0 10 -13 15 -23 15h-117c-9 0 -16 7 -16 16v24c0 9 7 15 16 15h123c9 0 17 7 17 16v348c0 10 -13 15 -23 15h-117c-9 0 -16 8 -16 16v25c0 8 7 15 16 15h123c9 0 17 7 17 15v159c0 8 7 16 16 16h32c8 0 15 -8 15 -16v-159
c0 -10 12 -15 23 -15h118c8 0 16 -7 16 -15v-25c0 -8 -8 -16 -16 -16h-125c-8 0 -16 -6 -16 -15v-349c0 -9 12 -15 23 -15h118c8 0 16 -6 16 -15v-24c0 -9 -8 -16 -16 -16h-125c-8 0 -16 -7 -16 -15v-153c0 -8 -7 -16 -15 -16z" />
    <glyph glyph-name="section" unicode="&#xa7;" horiz-adv-x="460" 
d="M304 247c36 12 60 43 60 80c0 77 -109 81 -194 109c-42 -9 -71 -41 -71 -78c0 -78 118 -78 205 -111zM74 140h34c10 0 14 -10 15 -15c11 -50 49 -77 110 -77c62 0 103 30 103 79c0 127 -299 57 -299 224c0 49 29 90 74 112c-27 19 -46 46 -46 88c0 84 72 137 167 137
c78 0 147 -35 161 -122c1 -7 -3 -18 -15 -18h-32c-13 0 -15 8 -16 12c-9 47 -51 72 -104 72c-57 0 -99 -28 -99 -74c0 -121 302 -52 302 -226c0 -51 -28 -90 -70 -113c26 -19 43 -46 43 -87c0 -90 -77 -140 -173 -140c-87 0 -156 43 -170 129c-1 6 3 19 15 19z" />
    <glyph glyph-name="asterisk" unicode="*" horiz-adv-x="451" 
d="M333 340l-15 -9c-8 -4 -17 0 -22 7l-71 123l-71 -123c-4 -7 -13 -11 -21 -7l-15 9c-7 5 -10 15 -6 22l71 123h-142c-8 0 -16 7 -16 16v17c0 8 8 16 16 16h142l-71 123c-4 7 -2 18 5 22l15 8c8 4 18 2 22 -6l71 -124l71 124c5 8 15 10 22 6l15 -8c8 -4 10 -15 5 -22
l-71 -123h142c9 0 17 -8 17 -16v-17c0 -9 -8 -16 -17 -16h-142l71 -123c5 -7 2 -17 -5 -22z" />
    <glyph glyph-name="trademark" unicode="&#x2122;" horiz-adv-x="422" 
d="M116 454h-25c-4 0 -7 3 -7 6v178c0 3 -3 6 -7 6h-43c-3 0 -6 3 -6 6v23c0 4 3 7 6 7h138c4 0 7 -3 7 -7v-23c0 -3 -3 -6 -7 -6h-43c-4 0 -7 -3 -7 -6v-178c0 -3 -2 -6 -6 -6zM373 454h-25c-3 0 -6 3 -6 6v155c0 2 -1 3 -2 1l-38 -66c-2 -3 -5 -5 -8 0l-39 66
c-1 2 -2 1 -2 -1v-155c0 -3 -3 -6 -6 -6h-25c-4 0 -7 3 -7 6v213c0 3 3 7 7 7h26c4 0 6 -2 8 -5l41 -71c1 -2 2 -2 3 0l41 71c2 3 4 5 7 5h25c4 0 7 -4 7 -7v-213c0 -3 -3 -6 -7 -6z" />
    <glyph glyph-name="registered" unicode="&#xae;" horiz-adv-x="736" 
d="M368 -8c-192 0 -348 156 -348 348s156 348 348 348s348 -156 348 -348s-156 -348 -348 -348zM368 38c167 0 301 135 301 302s-134 301 -301 301s-302 -134 -302 -301s135 -302 302 -302zM315 364h56c40 0 69 27 69 70c0 38 -24 66 -69 66h-56c-9 0 -12 -4 -12 -12v-112
c0 -8 3 -12 12 -12zM481 132h-24c-7 0 -12 4 -15 11l-66 160c-5 13 -8 16 -17 16h-44c-9 0 -12 -4 -12 -13v-157c0 -9 -8 -17 -16 -17h-22c-8 0 -15 8 -15 17v382c0 8 7 16 15 16h112c71 0 118 -47 118 -112c0 -51 -31 -88 -75 -106l75 -176c4 -9 -1 -21 -14 -21z" />
    <glyph glyph-name="copyright" unicode="&#xa9;" horiz-adv-x="736" 
d="M368 -8c-192 0 -348 156 -348 348s156 348 348 348s348 -156 348 -348s-156 -348 -348 -348zM368 38c167 0 301 135 301 302s-134 301 -301 301s-302 -134 -302 -301s135 -302 302 -302zM444 256h22c8 0 16 -8 16 -17c0 -68 -50 -114 -117 -114c-61 0 -113 46 -113 112
v206c0 64 53 112 115 112c67 0 116 -46 116 -114c0 -9 -8 -17 -16 -17h-22c-9 0 -15 8 -15 16c0 40 -28 66 -64 66c-34 0 -62 -27 -62 -64v-205c0 -36 27 -64 62 -64c34 1 63 27 63 67c0 8 6 16 15 16z" />
    <glyph glyph-name="at" unicode="@" horiz-adv-x="762" 
d="M544 -28l8 -14c6 -11 -1 -19 -7 -22c-53 -24 -102 -37 -161 -37c-195 0 -339 140 -339 343c0 209 153 355 347 355c191 0 339 -142 339 -337c0 -122 -58 -221 -151 -221c-44 0 -74 22 -83 59c-21 -33 -60 -66 -127 -66c-83 0 -143 52 -143 150v124c0 95 62 153 148 153
c57 0 89 -26 111 -54v30c0 8 7 16 15 16h26c8 0 16 -8 16 -16v-251c0 -75 15 -101 48 -101c57 0 87 76 87 170c0 179 -120 297 -282 297c-171 0 -292 -132 -292 -304s120 -301 287 -301c49 0 93 12 132 30c10 5 17 4 21 -3zM484 198v94c0 75 -39 113 -101 113
c-56 0 -97 -33 -97 -98v-125c0 -65 41 -98 96 -98c63 0 102 41 102 114z" />
    <glyph glyph-name="ordfeminine" unicode="&#xaa;" horiz-adv-x="334" 
d="M239 463v97c0 52 -31 79 -74 79c-42 0 -71 -26 -71 -74v-90c0 -61 17 -92 71 -92c42 0 74 28 74 80zM278 341h-22c-8 0 -16 8 -16 16v13c-18 -17 -47 -35 -86 -35c-68 0 -114 42 -114 121v108c0 76 47 123 118 123c42 0 66 -13 82 -32c0 14 11 25 23 25s31 0 31 -16v-307
c0 -8 -7 -16 -16 -16zM279 238h-223c-9 0 -16 6 -16 15v18c0 8 7 15 16 15h223c8 0 16 -7 16 -15v-18c0 -9 -8 -15 -16 -15z" />
    <glyph glyph-name="ordmasculine" unicode="&#xba;" horiz-adv-x="335" 
d="M295 561v-99c0 -79 -55 -127 -129 -127c-72 0 -126 46 -126 127v99c0 79 55 126 128 126c72 0 127 -45 127 -126zM240 459v104c0 48 -32 76 -73 76s-73 -28 -73 -76v-99c0 -48 28 -81 73 -81c41 0 73 29 73 76zM279 238h-223c-9 0 -16 6 -16 15v18c0 8 7 15 16 15h223
c8 0 16 -7 16 -15v-18c0 -9 -8 -15 -16 -15z" />
    <glyph glyph-name="numbersign" unicode="#" horiz-adv-x="460" 
d="M291 249v180h-123v-180h123zM324 0h-18c-9 0 -15 7 -15 16v184h-123v-184c0 -9 -8 -16 -16 -16h-18c-9 0 -15 7 -15 16v184h-68c-9 0 -16 6 -16 15v18c0 8 7 16 16 16h68v180h-68c-9 0 -16 7 -16 15v18c0 9 7 16 16 16h68v186c0 8 6 16 15 16h18c8 0 16 -8 16 -16v-186
h123v186c0 8 6 16 15 16h18c8 0 16 -8 16 -16v-186h67c8 0 16 -7 16 -16v-18c0 -8 -8 -15 -16 -15h-67v-180h67c8 0 16 -8 16 -16v-18c0 -9 -8 -15 -16 -15h-67v-184c0 -9 -8 -16 -16 -16z" />
    <glyph glyph-name="Euro" unicode="&#x20ac;" horiz-adv-x="460" 
d="M379 188h34c10 0 16 -9 16 -18c0 -108 -81 -178 -182 -178c-99 0 -182 72 -182 178v87h-30c-9 0 -16 7 -16 15v21c0 9 7 16 16 16h30v72h-30c-9 0 -16 7 -16 15v22c0 8 7 16 16 16h30v75c0 103 84 179 183 179c101 0 182 -70 182 -178c0 -9 -6 -18 -16 -18h-34
c-8 0 -15 8 -15 16c0 72 -52 120 -118 120c-64 0 -116 -50 -116 -117v-77h179c8 0 16 -8 16 -16v-22c0 -8 -8 -15 -16 -15h-179v-72h179c8 0 16 -7 16 -16v-21c0 -8 -8 -15 -16 -15h-179v-89c0 -66 53 -116 116 -116c65 0 117 48 117 120c0 8 7 16 15 16z" />
    <glyph glyph-name="dollar" unicode="$" horiz-adv-x="452" 
d="M239 -91h-30c-8 0 -15 7 -15 16v69c-81 9 -146 64 -146 170c0 10 0 25 15 25h33c8 0 15 -8 15 -16c0 -81 51 -121 114 -121c61 0 111 38 111 106c0 127 -285 191 -285 369c0 87 62 147 146 158v59c0 8 7 16 15 16h30c8 0 16 -8 16 -16v-59c75 -11 138 -64 138 -172
c0 -9 -4 -21 -16 -21h-31c-9 0 -15 8 -15 16c0 78 -49 121 -113 121c-62 0 -105 -39 -105 -97c0 -137 287 -208 287 -372c0 -89 -62 -153 -148 -165v-70c0 -9 -8 -16 -16 -16z" />
    <glyph glyph-name="yen" unicode="&#xa5;" horiz-adv-x="460" 
d="M245 0h-34c-8 0 -15 7 -15 16v139h-130c-9 0 -16 7 -16 15v22c0 8 7 15 16 15h130v51c0 6 -1 12 -3 19h-127c-9 0 -16 7 -16 15v21c0 9 7 16 16 16h108l-132 329c-4 10 3 22 14 22h37c9 0 13 -5 16 -14l117 -304c3 -8 6 -7 9 1l121 306c3 7 8 11 15 11h32
c11 0 18 -12 14 -21l-134 -330h109c8 0 16 -7 16 -16v-21c0 -8 -8 -15 -16 -15h-129c-2 -6 -2 -13 -2 -19v-51h131c8 0 16 -7 16 -15v-22c0 -8 -8 -15 -16 -15h-131v-139c0 -9 -7 -16 -16 -16z" />
    <glyph glyph-name="sterling" unicode="&#xa3;" horiz-adv-x="460" 
d="M392 0h-327c-9 0 -16 7 -16 16v27c0 9 5 12 12 14c60 16 72 62 72 151v100c0 8 -8 16 -16 16h-52c-8 0 -16 6 -16 15v21c0 8 8 16 16 16h52c8 0 16 7 16 15v128c0 115 65 169 155 169c51 0 90 -15 120 -43c7 -7 6 -15 0 -23l-20 -24c-4 -5 -8 -6 -13 -5
c-17 5 -47 35 -91 35c-56 0 -90 -40 -90 -108v-129c0 -8 7 -15 16 -15h132c9 0 16 -8 16 -16v-21c0 -9 -7 -15 -16 -15h-132c-9 0 -16 -8 -16 -16v-128c0 -58 -18 -87 -36 -112c-5 -7 -4 -10 3 -10h231c8 0 16 -8 16 -16v-27c0 -9 -8 -15 -16 -15z" />
    <glyph glyph-name="cent" unicode="&#xa2;" horiz-adv-x="460" 
d="M248 0h-30c-9 0 -15 7 -15 16v75c-84 12 -142 76 -142 168v163c0 94 60 159 146 171v71c0 8 7 16 15 16h30c8 0 16 -8 16 -16v-72c77 -12 134 -66 134 -152c0 -8 -7 -16 -15 -16h-31c-9 0 -15 6 -16 15c-3 64 -47 99 -107 99c-66 0 -110 -45 -110 -112v-168
c0 -68 44 -112 110 -112c60 0 105 33 107 100c0 10 7 16 15 16h30c11 0 16 -10 16 -17c0 -86 -59 -142 -138 -154v-75c0 -9 -7 -16 -15 -16z" />
    <glyph glyph-name="florin" unicode="&#x192;" horiz-adv-x="396" 
d="M80 -184h-41c-8 0 -16 7 -16 15v26c0 9 8 16 16 16h33c65 0 87 28 87 92v342c0 9 -8 16 -16 16h-68c-9 0 -17 7 -17 15v22c0 9 8 16 17 16h68c8 0 16 8 16 16v148c0 99 41 140 141 140h41c9 0 16 -7 16 -15v-27c0 -8 -7 -15 -16 -15h-33c-64 0 -87 -28 -87 -92v-139
c0 -8 8 -16 17 -16h86c9 0 17 -7 17 -16v-22c0 -8 -8 -15 -17 -15h-86c-9 0 -17 -7 -17 -16v-351c0 -99 -41 -140 -141 -140z" />
    <glyph glyph-name="currency" unicode="&#xa4;" horiz-adv-x="460" 
d="M415 185l-21 -21c-6 -6 -17 -6 -23 0l-38 38c-29 -21 -65 -34 -104 -34s-74 13 -103 34l-38 -38c-6 -5 -16 -6 -22 0l-21 20c-6 7 -5 17 0 23l39 39c-20 28 -31 61 -31 98c0 38 13 75 34 104l-42 42c-5 6 -6 17 0 23l21 21c6 6 16 5 22 -1l44 -43c27 18 61 30 97 30
s70 -12 98 -31l44 44c6 6 17 6 23 0l21 -20c6 -6 5 -17 -1 -23l-43 -43c21 -29 34 -65 34 -103c0 -36 -12 -69 -30 -97l39 -40c6 -6 7 -16 1 -22zM348 342c0 66 -53 119 -118 119c-66 0 -118 -53 -118 -119c0 -65 52 -117 118 -117c65 0 118 52 118 117z" />
    <glyph glyph-name="zero" unicode="0" horiz-adv-x="460" 
d="M407 510v-341c0 -103 -79 -178 -179 -178c-98 0 -178 74 -178 178v341c0 104 81 178 180 178c98 0 177 -73 177 -178zM345 165v336c0 73 -45 129 -116 129c-64 0 -116 -49 -116 -117v-335c0 -72 44 -129 116 -129c64 0 116 49 116 116z" />
    <glyph glyph-name="one" unicode="1" horiz-adv-x="460" 
d="M267 0h-25c-10 0 -18 9 -18 19v518c0 10 -8 19 -18 19h-61c-10 0 -18 9 -18 19v8c0 8 3 13 8 17l103 69c10 7 17 11 25 11h4c10 0 19 -9 19 -19v-642c0 -10 -9 -19 -19 -19z" />
    <glyph glyph-name="two" unicode="2" horiz-adv-x="460" 
d="M392 0h-322c-8 0 -15 7 -15 16v25c0 8 4 15 9 22l236 336c24 34 48 79 48 117c0 62 -50 111 -114 111c-56 0 -111 -46 -111 -115c0 -11 -5 -17 -19 -17h-32c-8 0 -16 8 -16 16c0 99 81 177 181 177c98 0 175 -72 175 -169c0 -55 -27 -106 -59 -151l-213 -296
c-5 -6 -3 -14 5 -14h247c9 0 16 -8 16 -16v-27c0 -9 -7 -15 -16 -15z" />
    <glyph glyph-name="three" unicode="3" horiz-adv-x="460" 
d="M341 165v96c0 70 -44 123 -111 123c-12 0 -23 -4 -33 -7c-6 -2 -15 -6 -23 6l-19 24c-6 8 -3 16 4 25l153 181c4 4 3 9 -3 9h-248c-9 0 -16 7 -16 16v26c0 9 7 16 16 16h318c9 0 16 -7 16 -16v-30c0 -5 -1 -13 -5 -17l-146 -171c-3 -3 -3 -8 2 -8c93 0 157 -73 157 -181
v-88c0 -104 -81 -178 -180 -178c-98 0 -175 74 -175 174c0 9 4 20 15 20h31c9 0 16 -8 16 -16c0 -67 47 -120 115 -120c64 0 116 49 116 116z" />
    <glyph glyph-name="four" unicode="4" horiz-adv-x="460" 
d="M319 0h-31c-8 0 -15 7 -15 16v93c0 14 -3 16 -14 16h-203c-9 0 -16 7 -16 16v21c0 5 1 11 4 18l207 489c3 7 7 11 15 11h31c10 0 18 -10 13 -22l-196 -459c-4 -9 1 -19 12 -19h133c9 0 14 6 14 15v92c0 8 7 16 15 16h31c8 0 16 -8 16 -16v-92c0 -9 6 -15 15 -15h47
c8 0 16 -7 16 -16v-23c0 -9 -8 -16 -16 -16h-47c-12 0 -15 -3 -15 -16v-93c0 -9 -8 -16 -16 -16z" />
    <glyph glyph-name="five" unicode="5" horiz-adv-x="460" 
d="M346 164v79c0 62 -52 110 -116 110h-147c-8 0 -16 8 -16 16v295c0 8 7 16 15 16h302c9 0 17 -8 17 -17v-25c0 -9 -8 -16 -17 -16h-241c-8 0 -15 -8 -15 -16v-177c0 -8 7 -16 15 -16h90c101 0 174 -73 174 -174v-71c0 -100 -79 -177 -178 -177c-98 0 -176 74 -176 174
c0 9 4 20 15 20h32c8 0 16 -8 16 -16c0 -67 46 -120 114 -120c64 0 116 52 116 115z" />
    <glyph glyph-name="six" unicode="6" horiz-adv-x="460" 
d="M407 249v-80c0 -102 -80 -177 -179 -177c-98 0 -177 74 -177 177v342c0 103 81 177 180 177c100 0 176 -71 176 -174c0 -9 -6 -18 -16 -18h-31c-9 0 -15 8 -15 16c0 67 -51 117 -115 117s-117 -49 -117 -116v-135c29 30 72 48 119 48c97 0 175 -75 175 -177zM345 167v83
c0 68 -52 116 -116 116s-116 -48 -116 -116v-83c0 -68 52 -116 116 -116s116 48 116 116z" />
    <glyph glyph-name="seven" unicode="7" horiz-adv-x="460" 
d="M120 0h-40c-9 0 -16 9 -11 20l247 594c2 5 1 8 -5 8h-258c-8 0 -16 7 -16 15v28c0 8 8 15 16 15h316c8 0 16 -7 16 -15v-24c0 -6 -1 -12 -4 -19l-245 -611c-3 -8 -10 -11 -16 -11z" />
    <glyph glyph-name="eight" unicode="8" horiz-adv-x="460" 
d="M408 211v-42c0 -103 -81 -177 -180 -177c-105 0 -178 78 -178 187v32c0 68 32 118 82 154c-47 29 -79 76 -79 142c0 105 74 181 176 181c98 0 176 -72 176 -175c0 -69 -30 -117 -79 -148c50 -35 82 -85 82 -154zM343 507c0 72 -45 121 -114 121c-64 0 -114 -46 -114 -114
c0 -71 45 -120 114 -120c64 0 114 46 114 113zM346 173v40c0 70 -49 122 -118 122c-68 0 -116 -53 -116 -122v-40c0 -71 50 -122 117 -122c68 0 117 51 117 122z" />
    <glyph glyph-name="nine" unicode="9" horiz-adv-x="460" 
d="M345 430v82c0 68 -52 117 -116 117s-116 -49 -116 -117v-82c0 -67 52 -116 116 -116s116 49 116 116zM345 167v135c-31 -29 -72 -47 -117 -47c-98 0 -177 75 -177 178v77c0 102 80 178 179 178c97 0 177 -75 177 -178v-341c0 -102 -81 -177 -179 -177
c-99 0 -177 75 -177 177c0 8 7 16 15 16h31c9 0 16 -8 16 -16c0 -67 49 -118 115 -118c64 0 117 48 117 116z" />
    <glyph glyph-name="zero.plf" horiz-adv-x="463" 
d="M409 510v-341c0 -103 -79 -178 -179 -178c-98 0 -178 74 -178 178v341c0 104 81 178 180 178c98 0 177 -73 177 -178zM347 165v336c0 73 -45 129 -116 129c-64 0 -116 -49 -116 -117v-335c0 -72 44 -129 116 -129c64 0 116 49 116 116z" />
    <glyph glyph-name="one.plf" horiz-adv-x="281" 
d="M187 0h-25c-10 0 -18 9 -18 19v518c0 10 -8 19 -18 19h-61c-10 0 -18 9 -18 19v8c0 8 3 13 8 17l103 69c10 7 17 11 25 11h4c10 0 19 -9 19 -19v-642c0 -10 -9 -19 -19 -19z" />
    <glyph glyph-name="two.plf" horiz-adv-x="410" 
d="M364 0h-322c-8 0 -15 7 -15 16v25c0 8 4 15 9 22l236 336c24 34 48 79 48 117c0 62 -50 111 -114 111c-56 0 -111 -46 -111 -115c0 -11 -5 -17 -19 -17h-32c-8 0 -16 8 -16 16c0 99 81 177 181 177c98 0 175 -72 175 -169c0 -55 -27 -106 -59 -151l-213 -296
c-5 -6 -3 -14 5 -14h247c9 0 16 -8 16 -16v-27c0 -9 -7 -15 -16 -15z" />
    <glyph glyph-name="three.plf" horiz-adv-x="434" 
d="M323 165v96c0 70 -44 123 -111 123c-12 0 -23 -4 -33 -7c-6 -2 -15 -6 -23 6l-19 24c-6 8 -3 16 4 25l153 181c4 4 3 9 -3 9h-248c-9 0 -16 7 -16 16v26c0 9 7 16 16 16h318c9 0 16 -7 16 -16v-30c0 -5 -1 -13 -5 -17l-146 -171c-3 -3 -3 -8 2 -8c93 0 157 -73 157 -181
v-88c0 -104 -81 -178 -180 -178c-98 0 -175 74 -175 174c0 9 4 20 15 20h31c9 0 16 -8 16 -16c0 -67 47 -120 115 -120c64 0 116 49 116 116z" />
    <glyph glyph-name="four.plf" horiz-adv-x="427" 
d="M308 0h-31c-8 0 -15 7 -15 16v93c0 14 -3 16 -14 16h-203c-9 0 -16 7 -16 16v21c0 5 1 11 4 18l207 489c3 7 7 11 15 11h31c10 0 18 -10 13 -22l-196 -459c-4 -9 1 -19 12 -19h133c9 0 14 6 14 15v92c0 8 7 16 15 16h31c8 0 16 -8 16 -16v-92c0 -9 6 -15 15 -15h47
c8 0 16 -7 16 -16v-23c0 -9 -8 -16 -16 -16h-47c-12 0 -15 -3 -15 -16v-93c0 -9 -8 -16 -16 -16z" />
    <glyph glyph-name="five.plf" horiz-adv-x="442" 
d="M346 164v79c0 62 -52 110 -116 110h-147c-8 0 -16 8 -16 16v295c0 8 7 16 15 16h302c9 0 17 -8 17 -17v-25c0 -9 -8 -16 -17 -16h-241c-8 0 -15 -8 -15 -16v-177c0 -8 7 -16 15 -16h90c101 0 174 -73 174 -174v-71c0 -100 -79 -177 -178 -177c-98 0 -176 74 -176 174
c0 9 4 20 15 20h32c8 0 16 -8 16 -16c0 -67 46 -120 114 -120c64 0 116 52 116 115z" />
    <glyph glyph-name="six.plf" horiz-adv-x="451" 
d="M407 249v-80c0 -102 -80 -177 -179 -177c-98 0 -177 74 -177 177v342c0 103 81 177 180 177c100 0 176 -71 176 -174c0 -9 -6 -18 -16 -18h-31c-9 0 -15 8 -15 16c0 67 -51 117 -115 117s-117 -49 -117 -116v-135c29 30 72 48 119 48c97 0 175 -75 175 -177zM345 167v83
c0 68 -52 116 -116 116s-116 -48 -116 -116v-83c0 -68 52 -116 116 -116s116 48 116 116z" />
    <glyph glyph-name="seven.plf" horiz-adv-x="404" 
d="M98 0h-40c-9 0 -16 9 -11 20l247 594c2 5 1 8 -5 8h-258c-8 0 -16 7 -16 15v28c0 8 8 15 16 15h316c8 0 16 -7 16 -15v-24c0 -6 -1 -12 -4 -19l-245 -611c-3 -8 -10 -11 -16 -11z" />
    <glyph glyph-name="eight.plf" horiz-adv-x="464" 
d="M410 211v-42c0 -103 -81 -177 -180 -177c-105 0 -178 78 -178 187v32c0 68 32 118 82 154c-47 29 -79 76 -79 142c0 105 74 181 176 181c98 0 176 -72 176 -175c0 -69 -30 -117 -79 -148c50 -35 82 -85 82 -154zM345 507c0 72 -45 121 -114 121c-64 0 -114 -46 -114 -114
c0 -71 45 -120 114 -120c64 0 114 46 114 113zM348 173v40c0 70 -49 122 -118 122c-68 0 -116 -53 -116 -122v-40c0 -71 50 -122 117 -122c68 0 117 51 117 122z" />
    <glyph glyph-name="nine.plf" horiz-adv-x="451" 
d="M338 430v82c0 68 -52 117 -116 117s-116 -49 -116 -117v-82c0 -67 52 -116 116 -116s116 49 116 116zM338 167v135c-31 -29 -72 -47 -117 -47c-98 0 -177 75 -177 178v77c0 102 80 178 179 178c97 0 177 -75 177 -178v-341c0 -102 -81 -177 -179 -177
c-99 0 -177 75 -177 177c0 8 7 16 15 16h31c9 0 16 -8 16 -16c0 -67 49 -118 115 -118c64 0 117 48 117 116z" />
    <glyph glyph-name="zero.tlf" horiz-adv-x="460" 
d="M407 510v-341c0 -103 -79 -178 -179 -178c-98 0 -178 74 -178 178v341c0 104 81 178 180 178c98 0 177 -73 177 -178zM345 165v336c0 73 -45 129 -116 129c-64 0 -116 -49 -116 -117v-335c0 -72 44 -129 116 -129c64 0 116 49 116 116z" />
    <glyph glyph-name="one.tlf" horiz-adv-x="460" 
d="M267 0h-25c-10 0 -18 9 -18 19v518c0 10 -8 19 -18 19h-61c-10 0 -18 9 -18 19v8c0 8 3 13 8 17l103 69c10 7 17 11 25 11h4c10 0 19 -9 19 -19v-642c0 -10 -9 -19 -19 -19z" />
    <glyph glyph-name="two.tlf" horiz-adv-x="460" 
d="M392 0h-322c-8 0 -15 7 -15 16v25c0 8 4 15 9 22l236 336c24 34 48 79 48 117c0 62 -50 111 -114 111c-56 0 -111 -46 -111 -115c0 -11 -5 -17 -19 -17h-32c-8 0 -16 8 -16 16c0 99 81 177 181 177c98 0 175 -72 175 -169c0 -55 -27 -106 -59 -151l-213 -296
c-5 -6 -3 -14 5 -14h247c9 0 16 -8 16 -16v-27c0 -9 -7 -15 -16 -15z" />
    <glyph glyph-name="three.tlf" horiz-adv-x="460" 
d="M341 165v96c0 70 -44 123 -111 123c-12 0 -23 -4 -33 -7c-6 -2 -15 -6 -23 6l-19 24c-6 8 -3 16 4 25l153 181c4 4 3 9 -3 9h-248c-9 0 -16 7 -16 16v26c0 9 7 16 16 16h318c9 0 16 -7 16 -16v-30c0 -5 -1 -13 -5 -17l-146 -171c-3 -3 -3 -8 2 -8c93 0 157 -73 157 -181
v-88c0 -104 -81 -178 -180 -178c-98 0 -175 74 -175 174c0 9 4 20 15 20h31c9 0 16 -8 16 -16c0 -67 47 -120 115 -120c64 0 116 49 116 116z" />
    <glyph glyph-name="four.tlf" horiz-adv-x="460" 
d="M319 0h-31c-8 0 -15 7 -15 16v93c0 14 -3 16 -14 16h-203c-9 0 -16 7 -16 16v21c0 5 1 11 4 18l207 489c3 7 7 11 15 11h31c10 0 18 -10 13 -22l-196 -459c-4 -9 1 -19 12 -19h133c9 0 14 6 14 15v92c0 8 7 16 15 16h31c8 0 16 -8 16 -16v-92c0 -9 6 -15 15 -15h47
c8 0 16 -7 16 -16v-23c0 -9 -8 -16 -16 -16h-47c-12 0 -15 -3 -15 -16v-93c0 -9 -8 -16 -16 -16z" />
    <glyph glyph-name="five.tlf" horiz-adv-x="460" 
d="M346 164v79c0 62 -52 110 -116 110h-147c-8 0 -16 8 -16 16v295c0 8 7 16 15 16h302c9 0 17 -8 17 -17v-25c0 -9 -8 -16 -17 -16h-241c-8 0 -15 -8 -15 -16v-177c0 -8 7 -16 15 -16h90c101 0 174 -73 174 -174v-71c0 -100 -79 -177 -178 -177c-98 0 -176 74 -176 174
c0 9 4 20 15 20h32c8 0 16 -8 16 -16c0 -67 46 -120 114 -120c64 0 116 52 116 115z" />
    <glyph glyph-name="six.tlf" horiz-adv-x="460" 
d="M407 249v-80c0 -102 -80 -177 -179 -177c-98 0 -177 74 -177 177v342c0 103 81 177 180 177c100 0 176 -71 176 -174c0 -9 -6 -18 -16 -18h-31c-9 0 -15 8 -15 16c0 67 -51 117 -115 117s-117 -49 -117 -116v-135c29 30 72 48 119 48c97 0 175 -75 175 -177zM345 167v83
c0 68 -52 116 -116 116s-116 -48 -116 -116v-83c0 -68 52 -116 116 -116s116 48 116 116z" />
    <glyph glyph-name="seven.tlf" horiz-adv-x="460" 
d="M120 0h-40c-9 0 -16 9 -11 20l247 594c2 5 1 8 -5 8h-258c-8 0 -16 7 -16 15v28c0 8 8 15 16 15h316c8 0 16 -7 16 -15v-24c0 -6 -1 -12 -4 -19l-245 -611c-3 -8 -10 -11 -16 -11z" />
    <glyph glyph-name="eight.tlf" horiz-adv-x="460" 
d="M408 211v-42c0 -103 -81 -177 -180 -177c-105 0 -178 78 -178 187v32c0 68 32 118 82 154c-47 29 -79 76 -79 142c0 105 74 181 176 181c98 0 176 -72 176 -175c0 -69 -30 -117 -79 -148c50 -35 82 -85 82 -154zM343 507c0 72 -45 121 -114 121c-64 0 -114 -46 -114 -114
c0 -71 45 -120 114 -120c64 0 114 46 114 113zM346 173v40c0 70 -49 122 -118 122c-68 0 -116 -53 -116 -122v-40c0 -71 50 -122 117 -122c68 0 117 51 117 122z" />
    <glyph glyph-name="nine.tlf" horiz-adv-x="460" 
d="M345 430v82c0 68 -52 117 -116 117s-116 -49 -116 -117v-82c0 -67 52 -116 116 -116s116 49 116 116zM345 167v135c-31 -29 -72 -47 -117 -47c-98 0 -177 75 -177 178v77c0 102 80 178 179 178c97 0 177 -75 177 -178v-341c0 -102 -81 -177 -179 -177
c-99 0 -177 75 -177 177c0 8 7 16 15 16h31c9 0 16 -8 16 -16c0 -67 49 -118 115 -118c64 0 117 48 117 116z" />
    <glyph glyph-name="zero.posf" horiz-adv-x="458" 
d="M405 321v-153c0 -110 -76 -176 -178 -176c-99 0 -174 63 -174 176v153c0 110 76 177 177 177c99 0 175 -64 175 -177zM343 165v158c0 74 -50 118 -115 118c-64 0 -114 -44 -114 -118v-158c0 -73 50 -116 114 -116c65 0 115 43 115 116z" />
    <glyph glyph-name="one.posf" horiz-adv-x="294" 
d="M185 0h-25c-10 0 -18 9 -18 19v331c0 10 -8 19 -18 19h-61c-10 0 -18 9 -18 19v8c0 8 3 13 8 17l103 69c10 7 17 11 25 11h4c10 0 19 -9 19 -19v-455c0 -10 -9 -19 -19 -19z" />
    <glyph glyph-name="two.posf" horiz-adv-x="435" 
d="M376 0h-321c-8 0 -15 6 -15 15v33c0 9 4 15 11 20l160 124c76 60 120 99 120 155c0 49 -39 88 -107 88c-60 0 -114 -32 -118 -96c-1 -8 -7 -15 -18 -15h-32c-12 0 -15 12 -15 17c0 97 89 157 183 157c100 0 173 -57 173 -148c0 -78 -52 -124 -114 -171l-147 -112
c-5 -4 -5 -10 2 -10h238c9 0 16 -7 16 -16v-26c0 -9 -7 -15 -16 -15z" />
    <glyph glyph-name="three.posf" horiz-adv-x="452" 
d="M211 144h-42c-10 0 -15 7 -15 16v26c0 8 7 16 15 16h51c65 0 117 46 117 120c0 73 -50 117 -115 117c-59 0 -108 -44 -114 -103c-1 -10 -6 -15 -16 -15h-30c-11 0 -16 9 -16 15c0 94 83 162 177 162c101 0 176 -70 176 -175c0 -71 -35 -117 -84 -145
c46 -25 92 -76 92 -157c0 -125 -80 -205 -189 -205c-93 0 -175 69 -175 163c0 4 2 16 15 16h32c9 0 15 -7 16 -15c6 -63 54 -106 114 -106c70 0 122 57 122 132c0 81 -47 138 -131 138z" />
    <glyph glyph-name="four.posf" horiz-adv-x="424" 
d="M309 -183h-31c-8 0 -15 8 -15 16v151c0 13 -2 16 -15 16h-201c-9 0 -16 7 -16 16v16c0 7 3 16 7 26l188 428c3 8 8 12 15 12h34c10 0 18 -10 13 -22l-182 -404c-5 -10 -3 -18 12 -18h130c9 0 15 8 15 16v114c0 8 7 16 15 16h31c9 0 16 -8 16 -16v-114c0 -9 6 -16 14 -16
h48c8 0 16 -6 16 -15v-23c0 -9 -8 -16 -16 -16h-47c-8 0 -15 -8 -15 -16v-151c0 -8 -7 -16 -16 -16z" />
    <glyph glyph-name="five.posf" horiz-adv-x="457" 
d="M345 -10v78c0 63 -52 111 -116 111h-147c-8 0 -16 7 -16 16v279c0 8 7 16 15 16h302c9 0 17 -8 17 -16v-27c0 -8 -8 -15 -17 -15h-241c-8 0 -15 -8 -15 -16v-161c0 -13 5 -16 15 -16h90c101 0 174 -74 174 -175v-70c0 -101 -79 -178 -178 -178c-98 0 -176 74 -176 174
c0 9 4 20 15 20h34c8 0 14 -8 14 -16c0 -67 46 -119 114 -119c64 0 116 51 116 115z" />
    <glyph glyph-name="six.posf" horiz-adv-x="460" 
d="M407 249v-80c0 -102 -80 -177 -179 -177c-98 0 -177 74 -177 177v342c0 103 81 177 180 177c100 0 176 -71 176 -174c0 -9 -6 -18 -16 -18h-31c-9 0 -15 8 -15 16c0 67 -51 117 -115 117s-117 -49 -117 -116v-135c29 30 72 48 119 48c97 0 175 -75 175 -177zM345 167v83
c0 68 -52 116 -116 116s-116 -48 -116 -116v-83c0 -68 52 -116 116 -116s116 48 116 116z" />
    <glyph glyph-name="seven.posf" horiz-adv-x="399" 
d="M106 -184h-41c-10 0 -16 9 -11 20l252 587c2 5 1 9 -5 9h-257c-9 0 -17 7 -17 15v28c0 8 8 15 17 15h315c8 0 16 -7 16 -15v-25c0 -5 -1 -11 -4 -18l-249 -605c-3 -8 -10 -11 -16 -11z" />
    <glyph glyph-name="eight.posf" horiz-adv-x="460" 
d="M408 211v-42c0 -103 -81 -177 -180 -177c-105 0 -178 78 -178 187v32c0 68 32 118 82 154c-47 29 -79 76 -79 142c0 105 74 181 176 181c98 0 176 -72 176 -175c0 -69 -30 -117 -79 -148c50 -35 82 -85 82 -154zM343 507c0 72 -45 121 -114 121c-64 0 -114 -46 -114 -114
c0 -71 45 -120 114 -120c64 0 114 46 114 113zM346 173v40c0 70 -49 122 -118 122c-68 0 -116 -53 -116 -122v-40c0 -71 50 -122 117 -122c68 0 117 51 117 122z" />
    <glyph glyph-name="nine.posf" horiz-adv-x="460" 
d="M345 233v89c0 68 -52 117 -116 117s-116 -49 -116 -117v-89c0 -68 52 -116 116 -116s116 48 116 116zM345 -8v113c-31 -30 -72 -47 -117 -47c-98 0 -177 74 -177 177v85c0 102 80 178 179 178c97 0 177 -75 177 -178v-326c0 -102 -81 -177 -179 -177
c-99 0 -177 75 -177 177c0 8 7 16 15 16h31c9 0 16 -8 16 -16c0 -67 49 -118 115 -118c64 0 117 48 117 116z" />
    <glyph glyph-name="zero.tosf" horiz-adv-x="460" 
d="M405 321v-153c0 -110 -76 -176 -178 -176c-99 0 -174 63 -174 176v153c0 110 76 177 177 177c99 0 175 -64 175 -177zM343 165v158c0 74 -50 118 -115 118c-64 0 -114 -44 -114 -118v-158c0 -73 50 -116 114 -116c65 0 115 43 115 116z" />
    <glyph glyph-name="one.tosf" horiz-adv-x="460" 
d="M267 0h-25c-10 0 -18 9 -18 19v331c0 10 -8 19 -18 19h-61c-10 0 -18 9 -18 19v8c0 8 3 13 8 17l103 69c10 7 17 11 25 11h4c10 0 19 -9 19 -19v-455c0 -10 -9 -19 -19 -19z" />
    <glyph glyph-name="two.tosf" horiz-adv-x="460" 
d="M386 0h-321c-8 0 -15 6 -15 15v33c0 9 4 15 11 20l160 124c76 60 120 99 120 155c0 49 -39 88 -107 88c-60 0 -114 -32 -118 -96c-1 -8 -7 -15 -18 -15h-32c-12 0 -15 12 -15 17c0 97 89 157 183 157c100 0 173 -57 173 -148c0 -78 -52 -124 -114 -171l-147 -112
c-5 -4 -5 -10 2 -10h238c9 0 16 -7 16 -16v-26c0 -9 -7 -15 -16 -15z" />
    <glyph glyph-name="three.tosf" horiz-adv-x="460" 
d="M221 144h-42c-10 0 -15 7 -15 16v26c0 8 7 16 15 16h51c65 0 117 46 117 120c0 73 -50 117 -115 117c-59 0 -108 -44 -114 -103c-1 -10 -6 -15 -16 -15h-30c-11 0 -16 9 -16 15c0 94 83 162 177 162c101 0 176 -70 176 -175c0 -71 -35 -117 -84 -145
c46 -25 92 -76 92 -157c0 -125 -80 -205 -189 -205c-93 0 -175 69 -175 163c0 4 2 16 15 16h32c9 0 15 -7 16 -15c6 -63 54 -106 114 -106c70 0 122 57 122 132c0 81 -47 138 -131 138z" />
    <glyph glyph-name="four.tosf" horiz-adv-x="460" 
d="M319 -183h-31c-8 0 -15 8 -15 16v151c0 13 -2 16 -15 16h-201c-9 0 -16 7 -16 16v16c0 7 3 16 7 26l188 428c3 8 8 12 15 12h34c10 0 18 -10 13 -22l-182 -404c-5 -10 -3 -18 12 -18h130c9 0 15 8 15 16v114c0 8 7 16 15 16h31c9 0 16 -8 16 -16v-114c0 -9 6 -16 14 -16
h48c8 0 16 -6 16 -15v-23c0 -9 -8 -16 -16 -16h-47c-8 0 -15 -8 -15 -16v-151c0 -8 -7 -16 -16 -16z" />
    <glyph glyph-name="five.tosf" horiz-adv-x="460" 
d="M345 -10v78c0 63 -52 111 -116 111h-147c-8 0 -16 7 -16 16v279c0 8 7 16 15 16h302c9 0 17 -8 17 -16v-27c0 -8 -8 -15 -17 -15h-241c-8 0 -15 -8 -15 -16v-161c0 -13 5 -16 15 -16h90c101 0 174 -74 174 -175v-70c0 -101 -79 -178 -178 -178c-98 0 -176 74 -176 174
c0 9 4 20 15 20h34c8 0 14 -8 14 -16c0 -67 46 -119 114 -119c64 0 116 51 116 115z" />
    <glyph glyph-name="six.tosf" horiz-adv-x="460" 
d="M407 249v-80c0 -102 -80 -177 -179 -177c-98 0 -177 74 -177 177v342c0 103 81 177 180 177c100 0 176 -71 176 -174c0 -9 -6 -18 -16 -18h-31c-9 0 -15 8 -15 16c0 67 -51 117 -115 117s-117 -49 -117 -116v-135c29 30 72 48 119 48c97 0 175 -75 175 -177zM345 167v83
c0 68 -52 116 -116 116s-116 -48 -116 -116v-83c0 -68 52 -116 116 -116s116 48 116 116z" />
    <glyph glyph-name="seven.tosf" horiz-adv-x="460" 
d="M128 -184h-41c-10 0 -16 9 -11 20l252 587c2 5 1 9 -5 9h-257c-9 0 -17 7 -17 15v28c0 8 8 15 17 15h315c8 0 16 -7 16 -15v-25c0 -5 -1 -11 -4 -18l-249 -605c-3 -8 -10 -11 -16 -11z" />
    <glyph glyph-name="eight.tosf" horiz-adv-x="460" 
d="M408 211v-42c0 -103 -81 -177 -180 -177c-105 0 -178 78 -178 187v32c0 68 32 118 82 154c-47 29 -79 76 -79 142c0 105 74 181 176 181c98 0 176 -72 176 -175c0 -69 -30 -117 -79 -148c50 -35 82 -85 82 -154zM343 507c0 72 -45 121 -114 121c-64 0 -114 -46 -114 -114
c0 -71 45 -120 114 -120c64 0 114 46 114 113zM346 173v40c0 70 -49 122 -118 122c-68 0 -116 -53 -116 -122v-40c0 -71 50 -122 117 -122c68 0 117 51 117 122z" />
    <glyph glyph-name="nine.tosf" horiz-adv-x="460" 
d="M345 233v89c0 68 -52 117 -116 117s-116 -49 -116 -117v-89c0 -68 52 -116 116 -116s116 48 116 116zM345 -8v113c-31 -30 -72 -47 -117 -47c-98 0 -177 74 -177 177v85c0 102 80 178 179 178c97 0 177 -75 177 -178v-326c0 -102 -81 -177 -179 -177
c-99 0 -177 75 -177 177c0 8 7 16 15 16h31c9 0 16 -8 16 -16c0 -67 49 -118 115 -118c64 0 117 48 117 116z" />
    <glyph glyph-name="degree" unicode="&#xb0;" horiz-adv-x="348" 
d="M311 550c0 -77 -61 -136 -138 -136c-76 0 -136 59 -136 136c0 76 60 138 136 138c77 0 138 -62 138 -138zM263 550c0 49 -40 88 -90 88c-49 0 -86 -39 -86 -88s37 -87 86 -87c50 0 90 38 90 87z" />
    <glyph glyph-name="percent" unicode="%" horiz-adv-x="727" 
d="M351 525c0 -91 -72 -162 -163 -162s-162 71 -162 162c0 90 71 163 162 163s163 -73 163 -163zM206 -6h-31c-11 0 -14 11 -9 21l337 660c2 5 8 9 14 9h31c11 0 14 -12 9 -21l-337 -660c-3 -6 -8 -9 -14 -9zM297 525c0 58 -51 110 -109 110c-59 0 -107 -52 -107 -110
s48 -108 107 -108c58 0 109 50 109 108zM700 154c0 -91 -72 -162 -163 -162c-90 0 -161 71 -161 162c0 89 71 162 161 162c91 0 163 -73 163 -162zM537 46c59 0 108 49 108 108c0 58 -49 110 -108 110s-106 -52 -106 -110c0 -59 47 -108 106 -108z" />
    <glyph glyph-name="perthousand" unicode="&#x2030;" horiz-adv-x="1014" 
d="M175 363c-90 0 -149 71 -149 162c0 90 59 163 149 163c91 0 151 -73 151 -163c0 -91 -60 -162 -151 -162zM181 -6h-30c-11 0 -15 11 -10 21l337 660c3 5 8 9 15 9h30c11 0 15 -12 10 -21l-337 -660c-3 -6 -8 -9 -15 -9zM175 417c59 0 96 50 96 108s-37 110 -96 110
c-58 0 -94 -52 -94 -110s36 -108 94 -108zM837 -8c-90 0 -150 71 -150 162c0 89 60 162 150 162c91 0 150 -73 150 -162c0 -91 -59 -162 -150 -162zM502 -8c-90 0 -149 71 -149 162c0 89 59 162 149 162c91 0 150 -73 150 -162c0 -91 -59 -162 -150 -162zM837 46
c58 0 95 49 95 108c0 58 -37 110 -95 110c-59 0 -94 -52 -94 -110c0 -59 35 -108 94 -108zM502 46c58 0 96 49 96 108c0 58 -38 110 -96 110c-59 0 -94 -52 -94 -110c0 -59 35 -108 94 -108z" />
    <glyph glyph-name="fraction" unicode="&#x2044;" horiz-adv-x="100" 
d="M-128 -6h-28c-11 0 -13 11 -8 21l377 660c3 5 8 9 14 9h28c11 0 14 -11 8 -21l-376 -660c-3 -6 -8 -9 -15 -9z" />
    <glyph glyph-name="uni2215" unicode="&#x2215;" horiz-adv-x="100" 
d="M-128 -6h-28c-11 0 -13 11 -8 21l377 660c3 5 8 9 14 9h28c11 0 13 -12 8 -21l-376 -660c-3 -6 -8 -9 -15 -9z" />
    <glyph glyph-name="zerosuperior" unicode="&#x2070;" horiz-adv-x="284" 
d="M259 583v-181c0 -59 -52 -101 -118 -101c-64 0 -117 42 -117 101v181c0 59 53 101 118 101s117 -41 117 -101zM207 400v179c0 35 -26 61 -66 61c-35 0 -64 -22 -64 -55v-179c0 -34 25 -61 64 -61c36 0 66 23 66 55z" />
    <glyph glyph-name="onesuperior" unicode="&#xb9;" horiz-adv-x="284" 
d="M167 306h-22c-9 0 -15 7 -15 16v268c0 9 -3 10 -13 10h-42c-17 0 -17 19 -5 27l68 47c15 10 44 13 44 -10v-342c0 -9 -7 -16 -15 -16z" />
    <glyph glyph-name="twosuperior" unicode="&#xb2;" horiz-adv-x="284" 
d="M240 306h-199c-8 0 -15 7 -15 16v9c0 8 3 14 8 21l137 159c24 27 37 49 37 73c0 29 -31 51 -64 51c-30 0 -63 -21 -64 -50c0 -9 -7 -16 -15 -16h-24c-8 0 -15 7 -15 16c1 55 53 99 120 99c64 0 115 -41 115 -97c0 -39 -16 -67 -46 -100l-111 -124c-5 -6 -3 -13 5 -13h131
c9 0 16 -7 16 -15v-14c0 -9 -7 -15 -16 -15z" />
    <glyph glyph-name="threesuperior" unicode="&#xb3;" horiz-adv-x="284" 
d="M256 439v-33c0 -62 -52 -105 -120 -105c-67 0 -116 40 -116 102c0 8 7 16 15 16h22c8 0 16 -8 16 -16c0 -35 27 -58 64 -58s66 22 66 55v53c0 34 -26 57 -62 57c-6 0 -14 -2 -21 -4c-3 -1 -11 -4 -17 5l-9 13c-4 5 -4 13 1 19l80 84c5 5 3 9 -3 9h-137
c-10 0 -16 7 -16 16v13c0 8 7 15 15 15h201c8 0 15 -7 15 -16v-17c0 -6 -1 -8 -3 -11l-80 -80c-3 -3 -2 -6 2 -7c58 -11 87 -55 87 -110z" />
    <glyph glyph-name="foursuperior" unicode="&#x2074;" horiz-adv-x="284" 
d="M197 306h-20c-9 0 -15 7 -15 16v43c0 6 -3 8 -8 8h-123c-9 0 -16 7 -16 15v10c0 5 1 8 3 13l125 258c4 8 9 11 15 11h22c11 0 19 -10 13 -22l-118 -237c-2 -4 -1 -6 3 -6h76c5 0 8 2 8 8v44c0 8 6 16 15 16h20c9 0 16 -8 16 -16v-44c0 -6 3 -8 8 -8h28c8 0 13 -8 13 -16
v-11c0 -8 -5 -15 -13 -15h-28c-5 0 -8 -2 -8 -8v-43c0 -9 -7 -16 -16 -16z" />
    <glyph glyph-name="fivesuperior" unicode="&#x2075;" horiz-adv-x="284" 
d="M258 439v-38c0 -57 -52 -100 -118 -100c-63 0 -115 43 -115 99c0 10 6 16 15 16h23c11 0 15 -8 15 -17c0 -31 31 -50 66 -50c28 0 62 22 62 50v42c0 30 -30 52 -65 52h-92c-9 0 -15 7 -15 15v156c0 8 6 16 15 16h190c8 0 16 -7 16 -15v-14c0 -8 -8 -15 -16 -15h-145
c-5 0 -9 -4 -9 -10v-80c0 -8 1 -9 9 -9h49c67 0 115 -41 115 -98z" />
    <glyph glyph-name="sixsuperior" unicode="&#x2076;" horiz-adv-x="284" 
d="M260 445v-42c0 -57 -54 -101 -118 -101c-66 0 -118 43 -118 101v181c0 56 53 100 119 100c63 0 116 -41 116 -97c0 -8 -7 -16 -15 -16h-22c-9 0 -16 8 -16 16c0 30 -32 49 -58 49c-37 0 -71 -18 -71 -51v-60c18 12 41 20 67 20c65 0 116 -43 116 -100zM207 402v44
c0 32 -29 55 -64 55c-36 0 -66 -23 -66 -55v-44c0 -33 30 -55 66 -55c35 0 64 22 64 55z" />
    <glyph glyph-name="sevensuperior" unicode="&#x2077;" horiz-adv-x="284" 
d="M77 306h-28c-13 0 -17 12 -12 21l147 299c3 6 1 9 -4 9h-147c-8 0 -15 6 -15 15v14c0 8 6 16 15 16h199c9 0 16 -8 16 -15v-10c0 -6 -2 -11 -5 -18l-150 -322c-3 -6 -10 -9 -16 -9z" />
    <glyph glyph-name="eightsuperior" unicode="&#x2078;" horiz-adv-x="284" 
d="M260 424v-22c0 -58 -53 -100 -119 -100c-69 0 -117 44 -117 105v17c0 34 17 62 45 82c-25 17 -44 41 -44 75c0 59 50 103 117 103c65 0 116 -42 116 -100c0 -35 -18 -59 -44 -78c30 -20 46 -46 46 -82zM206 581c0 35 -26 58 -65 58c-35 0 -63 -22 -63 -55
c0 -34 26 -56 63 -56c36 0 65 21 65 53zM208 404v21c0 35 -28 58 -67 58c-38 0 -65 -24 -65 -58v-21c0 -34 27 -59 65 -59c39 0 67 25 67 59z" />
    <glyph glyph-name="ninesuperior" unicode="&#x2079;" horiz-adv-x="284" 
d="M204 540v44c0 33 -30 55 -65 55s-64 -22 -64 -55v-44c0 -32 29 -55 64 -55s65 23 65 55zM204 402v59c-17 -12 -41 -20 -67 -20c-65 0 -116 43 -116 100v43c0 56 54 100 118 100c66 0 118 -43 118 -100v-181c0 -57 -52 -101 -119 -101c-63 0 -116 42 -116 97
c0 9 7 16 15 16h23c8 0 16 -7 16 -16c0 -30 32 -48 58 -48c37 0 70 17 70 51z" />
    <glyph glyph-name="onehalf" unicode="&#xbd;" horiz-adv-x="668" 
d="M131 -6h-28c-11 0 -13 11 -8 21l377 660c3 5 8 9 14 9h28c11 0 14 -11 8 -21l-376 -660c-3 -6 -8 -9 -15 -9zM167 306h-22c-9 0 -15 7 -15 16v268c0 9 -3 10 -13 10h-42c-17 0 -17 19 -5 27l68 47c15 10 44 13 44 -10v-342c0 -9 -7 -16 -15 -16zM624 0h-199
c-8 0 -15 7 -15 16v9c0 8 3 14 8 21l137 159c24 27 37 49 37 73c0 29 -31 51 -64 51c-30 0 -63 -21 -64 -50c0 -9 -7 -16 -15 -16h-24c-8 0 -15 7 -15 16c1 55 53 99 120 99c64 0 115 -41 115 -97c0 -39 -16 -67 -46 -100l-111 -124c-5 -6 -3 -13 5 -13h131
c9 0 16 -7 16 -15v-14c0 -9 -7 -15 -16 -15z" />
    <glyph glyph-name="onequarter" unicode="&#xbc;" horiz-adv-x="668" 
d="M166 -6h-28c-11 0 -13 11 -8 21l377 660c3 5 8 9 14 9h28c11 0 14 -11 8 -21l-376 -660c-3 -6 -8 -9 -15 -9zM167 306h-22c-9 0 -15 7 -15 16v268c0 9 -3 10 -13 10h-42c-17 0 -17 19 -5 27l68 47c15 10 44 13 44 -10v-342c0 -9 -7 -16 -15 -16zM581 0h-20
c-9 0 -15 7 -15 16v43c0 6 -3 8 -8 8h-123c-9 0 -16 7 -16 15v10c0 5 1 8 3 13l125 258c4 8 9 11 15 11h22c11 0 19 -10 13 -22l-118 -237c-2 -4 -1 -6 3 -6h76c5 0 8 2 8 8v44c0 8 6 16 15 16h20c9 0 16 -8 16 -16v-44c0 -6 3 -8 8 -8h28c8 0 13 -8 13 -16v-11
c0 -8 -5 -15 -13 -15h-28c-5 0 -8 -2 -8 -8v-43c0 -9 -7 -16 -16 -16z" />
    <glyph glyph-name="threequarters" unicode="&#xbe;" horiz-adv-x="668" 
d="M186 -6h-28c-11 0 -13 11 -8 21l377 660c3 5 8 9 14 9h28c11 0 14 -11 8 -21l-376 -660c-3 -6 -8 -9 -15 -9zM256 439v-33c0 -62 -52 -105 -120 -105c-67 0 -116 40 -116 102c0 8 7 16 15 16h22c8 0 16 -8 16 -16c0 -35 27 -58 64 -58s66 22 66 55v53c0 34 -26 57 -62 57
c-6 0 -14 -2 -21 -4c-3 -1 -11 -4 -17 5l-9 13c-4 5 -4 13 1 19l80 84c5 5 3 9 -3 9h-137c-10 0 -16 7 -16 16v13c0 8 7 15 15 15h201c8 0 15 -7 15 -16v-17c0 -6 -1 -8 -3 -11l-80 -80c-3 -3 -2 -6 2 -7c58 -11 87 -55 87 -110zM581 0h-20c-9 0 -15 7 -15 16v43
c0 6 -3 8 -8 8h-123c-9 0 -16 7 -16 15v10c0 5 1 8 3 13l125 258c4 8 9 11 15 11h22c11 0 19 -10 13 -22l-118 -237c-2 -4 -1 -6 3 -6h76c5 0 8 2 8 8v44c0 8 6 16 15 16h20c9 0 16 -8 16 -16v-44c0 -6 3 -8 8 -8h28c8 0 13 -8 13 -16v-11c0 -8 -5 -15 -13 -15h-28
c-5 0 -8 -2 -8 -8v-43c0 -9 -7 -16 -16 -16z" />
    <glyph glyph-name="onethird" unicode="&#x2153;" horiz-adv-x="668" 
d="M116 -6h-28c-11 0 -13 11 -8 21l377 660c3 5 8 9 14 9h28c11 0 14 -11 8 -21l-376 -660c-3 -6 -8 -9 -15 -9zM167 306h-22c-9 0 -15 7 -15 16v268c0 9 -3 10 -13 10h-42c-17 0 -17 19 -5 27l68 47c15 10 44 13 44 -10v-342c0 -9 -7 -16 -15 -16zM640 133v-33
c0 -62 -52 -105 -120 -105c-67 0 -116 40 -116 102c0 8 7 16 15 16h22c8 0 16 -8 16 -16c0 -35 27 -58 64 -58s66 22 66 55v53c0 34 -26 57 -62 57c-6 0 -14 -2 -21 -4c-3 -1 -11 -4 -17 5l-9 13c-4 5 -4 13 1 19l80 84c5 5 3 9 -3 9h-137c-10 0 -16 7 -16 16v13
c0 8 7 15 15 15h201c8 0 15 -7 15 -16v-17c0 -6 -1 -8 -3 -11l-80 -80c-3 -3 -2 -6 2 -7c58 -11 87 -55 87 -110z" />
    <glyph glyph-name="twothirds" unicode="&#x2154;" horiz-adv-x="668" 
d="M151 -6h-28c-11 0 -13 11 -8 21l377 660c3 5 8 9 14 9h28c11 0 14 -11 8 -21l-376 -660c-3 -6 -8 -9 -15 -9zM240 306h-199c-8 0 -15 7 -15 16v9c0 8 3 14 8 21l137 159c24 27 37 49 37 73c0 29 -31 51 -64 51c-30 0 -63 -21 -64 -50c0 -9 -7 -16 -15 -16h-24
c-8 0 -15 7 -15 16c1 55 53 99 120 99c64 0 115 -41 115 -97c0 -39 -16 -67 -46 -100l-111 -124c-5 -6 -3 -13 5 -13h131c9 0 16 -7 16 -15v-14c0 -9 -7 -15 -16 -15zM640 133v-33c0 -62 -52 -105 -120 -105c-67 0 -116 40 -116 102c0 8 7 16 15 16h22c8 0 16 -8 16 -16
c0 -35 27 -58 64 -58s66 22 66 55v53c0 34 -26 57 -62 57c-6 0 -14 -2 -21 -4c-3 -1 -11 -4 -17 5l-9 13c-4 5 -4 13 1 19l80 84c5 5 3 9 -3 9h-137c-10 0 -16 7 -16 16v13c0 8 7 15 15 15h201c8 0 15 -7 15 -16v-17c0 -6 -1 -8 -3 -11l-80 -80c-3 -3 -2 -6 2 -7
c58 -11 87 -55 87 -110z" />
    <glyph glyph-name="oneeighth" unicode="&#x215b;" horiz-adv-x="668" 
d="M135 -6h-28c-11 0 -13 11 -8 21l377 660c3 5 8 9 14 9h28c11 0 14 -11 8 -21l-376 -660c-3 -6 -8 -9 -15 -9zM167 306h-22c-9 0 -15 7 -15 16v268c0 9 -3 10 -13 10h-42c-17 0 -17 19 -5 27l68 47c15 10 44 13 44 -10v-342c0 -9 -7 -16 -15 -16zM644 118v-22
c0 -58 -53 -100 -119 -100c-69 0 -117 44 -117 105v17c0 34 17 62 45 82c-25 17 -44 41 -44 75c0 59 50 103 117 103c65 0 116 -42 116 -100c0 -35 -18 -59 -44 -78c30 -20 46 -46 46 -82zM590 275c0 35 -26 58 -65 58c-35 0 -63 -22 -63 -55c0 -34 26 -56 63 -56
c36 0 65 21 65 53zM592 98v21c0 35 -28 58 -67 58c-38 0 -65 -24 -65 -58v-21c0 -34 27 -59 65 -59c39 0 67 25 67 59z" />
    <glyph glyph-name="threeeighths" unicode="&#x215c;" horiz-adv-x="668" 
d="M152 -6h-28c-11 0 -13 11 -8 21l377 660c3 5 8 9 14 9h28c11 0 14 -11 8 -21l-376 -660c-3 -6 -8 -9 -15 -9zM256 439v-33c0 -62 -52 -105 -120 -105c-67 0 -116 40 -116 102c0 8 7 16 15 16h22c8 0 16 -8 16 -16c0 -35 27 -58 64 -58s66 22 66 55v53c0 34 -26 57 -62 57
c-6 0 -14 -2 -21 -4c-3 -1 -11 -4 -17 5l-9 13c-4 5 -4 13 1 19l80 84c5 5 3 9 -3 9h-137c-10 0 -16 7 -16 16v13c0 8 7 15 15 15h201c8 0 15 -7 15 -16v-17c0 -6 -1 -8 -3 -11l-80 -80c-3 -3 -2 -6 2 -7c58 -11 87 -55 87 -110zM644 118v-22c0 -58 -53 -100 -119 -100
c-69 0 -117 44 -117 105v17c0 34 17 62 45 82c-25 17 -44 41 -44 75c0 59 50 103 117 103c65 0 116 -42 116 -100c0 -35 -18 -59 -44 -78c30 -20 46 -46 46 -82zM590 275c0 35 -26 58 -65 58c-35 0 -63 -22 -63 -55c0 -34 26 -56 63 -56c36 0 65 21 65 53zM592 98v21
c0 35 -28 58 -67 58c-38 0 -65 -24 -65 -58v-21c0 -34 27 -59 65 -59c39 0 67 25 67 59z" />
    <glyph glyph-name="fiveeighths" unicode="&#x215d;" horiz-adv-x="668" 
d="M156 -6h-28c-11 0 -13 11 -8 21l377 660c3 5 8 9 14 9h28c11 0 14 -11 8 -21l-376 -660c-3 -6 -8 -9 -15 -9zM258 439v-38c0 -57 -52 -100 -118 -100c-63 0 -115 43 -115 99c0 10 6 16 15 16h23c11 0 15 -8 15 -17c0 -31 31 -50 66 -50c28 0 62 22 62 50v42
c0 30 -30 52 -65 52h-92c-9 0 -15 7 -15 15v156c0 8 6 16 15 16h190c8 0 16 -7 16 -15v-14c0 -8 -8 -15 -16 -15h-145c-5 0 -9 -4 -9 -10v-80c0 -8 1 -9 9 -9h49c67 0 115 -41 115 -98zM644 118v-22c0 -58 -53 -100 -119 -100c-69 0 -117 44 -117 105v17c0 34 17 62 45 82
c-25 17 -44 41 -44 75c0 59 50 103 117 103c65 0 116 -42 116 -100c0 -35 -18 -59 -44 -78c30 -20 46 -46 46 -82zM590 275c0 35 -26 58 -65 58c-35 0 -63 -22 -63 -55c0 -34 26 -56 63 -56c36 0 65 21 65 53zM592 98v21c0 35 -28 58 -67 58c-38 0 -65 -24 -65 -58v-21
c0 -34 27 -59 65 -59c39 0 67 25 67 59z" />
    <glyph glyph-name="seveneighths" unicode="&#x215e;" horiz-adv-x="668" 
d="M106 -6h-28c-11 0 -13 11 -8 21l377 660c3 5 8 9 14 9h28c11 0 14 -11 8 -21l-376 -660c-3 -6 -8 -9 -15 -9zM77 306h-28c-13 0 -17 12 -12 21l147 299c3 6 1 9 -4 9h-147c-8 0 -15 6 -15 15v14c0 8 6 16 15 16h199c9 0 16 -8 16 -15v-10c0 -6 -2 -11 -5 -18l-150 -322
c-3 -6 -10 -9 -16 -9zM644 118v-22c0 -58 -53 -100 -119 -100c-69 0 -117 44 -117 105v17c0 34 17 62 45 82c-25 17 -44 41 -44 75c0 59 50 103 117 103c65 0 116 -42 116 -100c0 -35 -18 -59 -44 -78c30 -20 46 -46 46 -82zM590 275c0 35 -26 58 -65 58
c-35 0 -63 -22 -63 -55c0 -34 26 -56 63 -56c36 0 65 21 65 53zM592 98v21c0 35 -28 58 -67 58c-38 0 -65 -24 -65 -58v-21c0 -34 27 -59 65 -59c39 0 67 25 67 59z" />
    <glyph glyph-name="onefifth" horiz-adv-x="668" 
d="M126 -6h-28c-11 0 -13 11 -8 21l377 660c3 5 8 9 14 9h28c11 0 14 -11 8 -21l-376 -660c-3 -6 -8 -9 -15 -9zM167 306h-22c-9 0 -15 7 -15 16v268c0 9 -3 10 -13 10h-42c-17 0 -17 19 -5 27l68 47c15 10 44 13 44 -10v-342c0 -9 -7 -16 -15 -16zM642 133v-38
c0 -57 -52 -100 -118 -100c-63 0 -115 43 -115 99c0 10 6 16 15 16h23c11 0 15 -8 15 -17c0 -31 31 -50 66 -50c28 0 62 22 62 50v42c0 30 -30 52 -65 52h-92c-9 0 -15 7 -15 15v156c0 8 6 16 15 16h190c8 0 16 -7 16 -15v-14c0 -8 -8 -15 -16 -15h-145c-5 0 -9 -4 -9 -10
v-80c0 -8 1 -9 9 -9h49c67 0 115 -41 115 -98z" />
    <glyph glyph-name="twofifths" horiz-adv-x="668" 
d="M161 -6h-28c-11 0 -13 11 -8 21l377 660c3 5 8 9 14 9h28c11 0 14 -11 8 -21l-376 -660c-3 -6 -8 -9 -15 -9zM240 306h-199c-8 0 -15 7 -15 16v9c0 8 3 14 8 21l137 159c24 27 37 49 37 73c0 29 -31 51 -64 51c-30 0 -63 -21 -64 -50c0 -9 -7 -16 -15 -16h-24
c-8 0 -15 7 -15 16c1 55 53 99 120 99c64 0 115 -41 115 -97c0 -39 -16 -67 -46 -100l-111 -124c-5 -6 -3 -13 5 -13h131c9 0 16 -7 16 -15v-14c0 -9 -7 -15 -16 -15zM642 133v-38c0 -57 -52 -100 -118 -100c-63 0 -115 43 -115 99c0 10 6 16 15 16h23c11 0 15 -8 15 -17
c0 -31 31 -50 66 -50c28 0 62 22 62 50v42c0 30 -30 52 -65 52h-92c-9 0 -15 7 -15 15v156c0 8 6 16 15 16h190c8 0 16 -7 16 -15v-14c0 -8 -8 -15 -16 -15h-145c-5 0 -9 -4 -9 -10v-80c0 -8 1 -9 9 -9h49c67 0 115 -41 115 -98z" />
    <glyph glyph-name="threefifths" horiz-adv-x="668" 
d="M146 -6h-28c-11 0 -13 11 -8 21l377 660c3 5 8 9 14 9h28c11 0 14 -11 8 -21l-376 -660c-3 -6 -8 -9 -15 -9zM256 439v-33c0 -62 -52 -105 -120 -105c-67 0 -116 40 -116 102c0 8 7 16 15 16h22c8 0 16 -8 16 -16c0 -35 27 -58 64 -58s66 22 66 55v53c0 34 -26 57 -62 57
c-6 0 -14 -2 -21 -4c-3 -1 -11 -4 -17 5l-9 13c-4 5 -4 13 1 19l80 84c5 5 3 9 -3 9h-137c-10 0 -16 7 -16 16v13c0 8 7 15 15 15h201c8 0 15 -7 15 -16v-17c0 -6 -1 -8 -3 -11l-80 -80c-3 -3 -2 -6 2 -7c58 -11 87 -55 87 -110zM642 133v-38c0 -57 -52 -100 -118 -100
c-63 0 -115 43 -115 99c0 10 6 16 15 16h23c11 0 15 -8 15 -17c0 -31 31 -50 66 -50c28 0 62 22 62 50v42c0 30 -30 52 -65 52h-92c-9 0 -15 7 -15 15v156c0 8 6 16 15 16h190c8 0 16 -7 16 -15v-14c0 -8 -8 -15 -16 -15h-145c-5 0 -9 -4 -9 -10v-80c0 -8 1 -9 9 -9h49
c67 0 115 -41 115 -98z" />
    <glyph glyph-name="fourfifths" horiz-adv-x="668" 
d="M141 -6h-28c-11 0 -13 11 -8 21l377 660c3 5 8 9 14 9h28c11 0 14 -11 8 -21l-376 -660c-3 -6 -8 -9 -15 -9zM197 306h-20c-9 0 -15 7 -15 16v43c0 6 -3 8 -8 8h-123c-9 0 -16 7 -16 15v10c0 5 1 8 3 13l125 258c4 8 9 11 15 11h22c11 0 19 -10 13 -22l-118 -237
c-2 -4 -1 -6 3 -6h76c5 0 8 2 8 8v44c0 8 6 16 15 16h20c9 0 16 -8 16 -16v-44c0 -6 3 -8 8 -8h28c8 0 13 -8 13 -16v-11c0 -8 -5 -15 -13 -15h-28c-5 0 -8 -2 -8 -8v-43c0 -9 -7 -16 -16 -16zM642 133v-38c0 -57 -52 -100 -118 -100c-63 0 -115 43 -115 99c0 10 6 16 15 16
h23c11 0 15 -8 15 -17c0 -31 31 -50 66 -50c28 0 62 22 62 50v42c0 30 -30 52 -65 52h-92c-9 0 -15 7 -15 15v156c0 8 6 16 15 16h190c8 0 16 -7 16 -15v-14c0 -8 -8 -15 -16 -15h-145c-5 0 -9 -4 -9 -10v-80c0 -8 1 -9 9 -9h49c67 0 115 -41 115 -98z" />
    <glyph glyph-name="onesixth" horiz-adv-x="668" 
d="M134 -6h-28c-11 0 -13 11 -8 21l377 660c3 5 8 9 14 9h28c11 0 14 -11 8 -21l-376 -660c-3 -6 -8 -9 -15 -9zM167 306h-22c-9 0 -15 7 -15 16v268c0 9 -3 10 -13 10h-42c-17 0 -17 19 -5 27l68 47c15 10 44 13 44 -10v-342c0 -9 -7 -16 -15 -16zM644 139v-42
c0 -57 -54 -101 -118 -101c-66 0 -118 43 -118 101v181c0 56 53 100 119 100c63 0 116 -41 116 -97c0 -8 -7 -16 -15 -16h-22c-9 0 -16 8 -16 16c0 30 -32 49 -58 49c-37 0 -71 -18 -71 -51v-60c18 12 41 20 67 20c65 0 116 -43 116 -100zM591 96v44c0 32 -29 55 -64 55
c-36 0 -66 -23 -66 -55v-44c0 -33 30 -55 66 -55c35 0 64 22 64 55z" />
    <glyph glyph-name="fivesixths" horiz-adv-x="668" 
d="M154 -6h-28c-11 0 -13 11 -8 21l377 660c3 5 8 9 14 9h28c11 0 14 -11 8 -21l-376 -660c-3 -6 -8 -9 -15 -9zM258 439v-38c0 -57 -52 -100 -118 -100c-63 0 -115 43 -115 99c0 10 6 16 15 16h23c11 0 15 -8 15 -17c0 -31 31 -50 66 -50c28 0 62 22 62 50v42
c0 30 -30 52 -65 52h-92c-9 0 -15 7 -15 15v156c0 8 6 16 15 16h190c8 0 16 -7 16 -15v-14c0 -8 -8 -15 -16 -15h-145c-5 0 -9 -4 -9 -10v-80c0 -8 1 -9 9 -9h49c67 0 115 -41 115 -98zM644 139v-42c0 -57 -54 -101 -118 -101c-66 0 -118 43 -118 101v181
c0 56 53 100 119 100c63 0 116 -41 116 -97c0 -8 -7 -16 -15 -16h-22c-9 0 -16 8 -16 16c0 30 -32 49 -58 49c-37 0 -71 -18 -71 -51v-60c18 12 41 20 67 20c65 0 116 -43 116 -100zM591 96v44c0 32 -29 55 -64 55c-36 0 -66 -23 -66 -55v-44c0 -33 30 -55 66 -55
c35 0 64 22 64 55z" />
    <glyph glyph-name="oneseventh" horiz-adv-x="668" 
d="M116 -6h-28c-11 0 -13 11 -8 21l377 660c3 5 8 9 14 9h28c11 0 14 -11 8 -21l-376 -660c-3 -6 -8 -9 -15 -9zM167 306h-22c-9 0 -15 7 -15 16v268c0 9 -3 10 -13 10h-42c-17 0 -17 19 -5 27l68 47c15 10 44 13 44 -10v-342c0 -9 -7 -16 -15 -16zM461 0h-28
c-13 0 -17 12 -12 21l147 299c3 6 1 9 -4 9h-147c-8 0 -15 6 -15 15v14c0 8 6 16 15 16h199c9 0 16 -8 16 -15v-10c0 -6 -2 -11 -5 -18l-150 -322c-3 -6 -10 -9 -16 -9z" />
    <glyph glyph-name="twosevenths" horiz-adv-x="668" 
d="M146 -6h-28c-11 0 -13 11 -8 21l377 660c3 5 8 9 14 9h28c11 0 14 -11 8 -21l-376 -660c-3 -6 -8 -9 -15 -9zM240 306h-199c-8 0 -15 7 -15 16v9c0 8 3 14 8 21l137 159c24 27 37 49 37 73c0 29 -31 51 -64 51c-30 0 -63 -21 -64 -50c0 -9 -7 -16 -15 -16h-24
c-8 0 -15 7 -15 16c1 55 53 99 120 99c64 0 115 -41 115 -97c0 -39 -16 -67 -46 -100l-111 -124c-5 -6 -3 -13 5 -13h131c9 0 16 -7 16 -15v-14c0 -9 -7 -15 -16 -15zM461 0h-28c-13 0 -17 12 -12 21l147 299c3 6 1 9 -4 9h-147c-8 0 -15 6 -15 15v14c0 8 6 16 15 16h199
c9 0 16 -8 16 -15v-10c0 -6 -2 -11 -5 -18l-150 -322c-3 -6 -10 -9 -16 -9z" />
    <glyph glyph-name="threesevenths" horiz-adv-x="668" 
d="M136 -6h-28c-11 0 -13 11 -8 21l377 660c3 5 8 9 14 9h28c11 0 14 -11 8 -21l-376 -660c-3 -6 -8 -9 -15 -9zM256 439v-33c0 -62 -52 -105 -120 -105c-67 0 -116 40 -116 102c0 8 7 16 15 16h22c8 0 16 -8 16 -16c0 -35 27 -58 64 -58s66 22 66 55v53c0 34 -26 57 -62 57
c-6 0 -14 -2 -21 -4c-3 -1 -11 -4 -17 5l-9 13c-4 5 -4 13 1 19l80 84c5 5 3 9 -3 9h-137c-10 0 -16 7 -16 16v13c0 8 7 15 15 15h201c8 0 15 -7 15 -16v-17c0 -6 -1 -8 -3 -11l-80 -80c-3 -3 -2 -6 2 -7c58 -11 87 -55 87 -110zM461 0h-28c-13 0 -17 12 -12 21l147 299
c3 6 1 9 -4 9h-147c-8 0 -15 6 -15 15v14c0 8 6 16 15 16h199c9 0 16 -8 16 -15v-10c0 -6 -2 -11 -5 -18l-150 -322c-3 -6 -10 -9 -16 -9z" />
    <glyph glyph-name="foursevenths" horiz-adv-x="668" 
d="M126 -6h-28c-11 0 -13 11 -8 21l377 660c3 5 8 9 14 9h28c11 0 14 -11 8 -21l-376 -660c-3 -6 -8 -9 -15 -9zM197 306h-20c-9 0 -15 7 -15 16v43c0 6 -3 8 -8 8h-123c-9 0 -16 7 -16 15v10c0 5 1 8 3 13l125 258c4 8 9 11 15 11h22c11 0 19 -10 13 -22l-118 -237
c-2 -4 -1 -6 3 -6h76c5 0 8 2 8 8v44c0 8 6 16 15 16h20c9 0 16 -8 16 -16v-44c0 -6 3 -8 8 -8h28c8 0 13 -8 13 -16v-11c0 -8 -5 -15 -13 -15h-28c-5 0 -8 -2 -8 -8v-43c0 -9 -7 -16 -16 -16zM461 0h-28c-13 0 -17 12 -12 21l147 299c3 6 1 9 -4 9h-147c-8 0 -15 6 -15 15
v14c0 8 6 16 15 16h199c9 0 16 -8 16 -15v-10c0 -6 -2 -11 -5 -18l-150 -322c-3 -6 -10 -9 -16 -9z" />
    <glyph glyph-name="fivesevenths" horiz-adv-x="668" 
d="M136 -6h-28c-11 0 -13 11 -8 21l377 660c3 5 8 9 14 9h28c11 0 14 -11 8 -21l-376 -660c-3 -6 -8 -9 -15 -9zM258 439v-38c0 -57 -52 -100 -118 -100c-63 0 -115 43 -115 99c0 10 6 16 15 16h23c11 0 15 -8 15 -17c0 -31 31 -50 66 -50c28 0 62 22 62 50v42
c0 30 -30 52 -65 52h-92c-9 0 -15 7 -15 15v156c0 8 6 16 15 16h190c8 0 16 -7 16 -15v-14c0 -8 -8 -15 -16 -15h-145c-5 0 -9 -4 -9 -10v-80c0 -8 1 -9 9 -9h49c67 0 115 -41 115 -98zM461 0h-28c-13 0 -17 12 -12 21l147 299c3 6 1 9 -4 9h-147c-8 0 -15 6 -15 15v14
c0 8 6 16 15 16h199c9 0 16 -8 16 -15v-10c0 -6 -2 -11 -5 -18l-150 -322c-3 -6 -10 -9 -16 -9z" />
    <glyph glyph-name="sixsevenths" horiz-adv-x="668" 
d="M136 -6h-28c-11 0 -13 11 -8 21l377 660c3 5 8 9 14 9h28c11 0 14 -11 8 -21l-376 -660c-3 -6 -8 -9 -15 -9zM260 445v-42c0 -57 -54 -101 -118 -101c-66 0 -118 43 -118 101v181c0 56 53 100 119 100c63 0 116 -41 116 -97c0 -8 -7 -16 -15 -16h-22c-9 0 -16 8 -16 16
c0 30 -32 49 -58 49c-37 0 -71 -18 -71 -51v-60c18 12 41 20 67 20c65 0 116 -43 116 -100zM207 402v44c0 32 -29 55 -64 55c-36 0 -66 -23 -66 -55v-44c0 -33 30 -55 66 -55c35 0 64 22 64 55zM461 0h-28c-13 0 -17 12 -12 21l147 299c3 6 1 9 -4 9h-147c-8 0 -15 6 -15 15
v14c0 8 6 16 15 16h199c9 0 16 -8 16 -15v-10c0 -6 -2 -11 -5 -18l-150 -322c-3 -6 -10 -9 -16 -9z" />
    <glyph glyph-name="oneninth" horiz-adv-x="668" 
d="M126 -6h-28c-11 0 -13 11 -8 21l377 660c3 5 8 9 14 9h28c11 0 14 -11 8 -21l-376 -660c-3 -6 -8 -9 -15 -9zM167 306h-22c-9 0 -15 7 -15 16v268c0 9 -3 10 -13 10h-42c-17 0 -17 19 -5 27l68 47c15 10 44 13 44 -10v-342c0 -9 -7 -16 -15 -16zM588 234v44
c0 33 -30 55 -65 55s-64 -22 -64 -55v-44c0 -32 29 -55 64 -55s65 23 65 55zM588 96v59c-17 -12 -41 -20 -67 -20c-65 0 -116 43 -116 100v43c0 56 54 100 118 100c66 0 118 -43 118 -100v-181c0 -57 -52 -101 -119 -101c-63 0 -116 42 -116 97c0 9 7 16 15 16h23
c8 0 16 -7 16 -16c0 -30 32 -48 58 -48c37 0 70 17 70 51z" />
    <glyph glyph-name="twoninths" horiz-adv-x="668" 
d="M166 -6h-28c-11 0 -13 11 -8 21l377 660c3 5 8 9 14 9h28c11 0 14 -11 8 -21l-376 -660c-3 -6 -8 -9 -15 -9zM240 306h-199c-8 0 -15 7 -15 16v9c0 8 3 14 8 21l137 159c24 27 37 49 37 73c0 29 -31 51 -64 51c-30 0 -63 -21 -64 -50c0 -9 -7 -16 -15 -16h-24
c-8 0 -15 7 -15 16c1 55 53 99 120 99c64 0 115 -41 115 -97c0 -39 -16 -67 -46 -100l-111 -124c-5 -6 -3 -13 5 -13h131c9 0 16 -7 16 -15v-14c0 -9 -7 -15 -16 -15zM588 234v44c0 33 -30 55 -65 55s-64 -22 -64 -55v-44c0 -32 29 -55 64 -55s65 23 65 55zM588 96v59
c-17 -12 -41 -20 -67 -20c-65 0 -116 43 -116 100v43c0 56 54 100 118 100c66 0 118 -43 118 -100v-181c0 -57 -52 -101 -119 -101c-63 0 -116 42 -116 97c0 9 7 16 15 16h23c8 0 16 -7 16 -16c0 -30 32 -48 58 -48c37 0 70 17 70 51z" />
    <glyph glyph-name="fourninths" horiz-adv-x="668" 
d="M154 -6h-28c-11 0 -13 11 -8 21l377 660c3 5 8 9 14 9h28c11 0 14 -11 8 -21l-376 -660c-3 -6 -8 -9 -15 -9zM197 306h-20c-9 0 -15 7 -15 16v43c0 6 -3 8 -8 8h-123c-9 0 -16 7 -16 15v10c0 5 1 8 3 13l125 258c4 8 9 11 15 11h22c11 0 19 -10 13 -22l-118 -237
c-2 -4 -1 -6 3 -6h76c5 0 8 2 8 8v44c0 8 6 16 15 16h20c9 0 16 -8 16 -16v-44c0 -6 3 -8 8 -8h28c8 0 13 -8 13 -16v-11c0 -8 -5 -15 -13 -15h-28c-5 0 -8 -2 -8 -8v-43c0 -9 -7 -16 -16 -16zM588 234v44c0 33 -30 55 -65 55s-64 -22 -64 -55v-44c0 -32 29 -55 64 -55
s65 23 65 55zM588 96v59c-17 -12 -41 -20 -67 -20c-65 0 -116 43 -116 100v43c0 56 54 100 118 100c66 0 118 -43 118 -100v-181c0 -57 -52 -101 -119 -101c-63 0 -116 42 -116 97c0 9 7 16 15 16h23c8 0 16 -7 16 -16c0 -30 32 -48 58 -48c37 0 70 17 70 51z" />
    <glyph glyph-name="fiveninths" horiz-adv-x="668" 
d="M155 -6h-28c-11 0 -13 11 -8 21l377 660c3 5 8 9 14 9h28c11 0 14 -11 8 -21l-376 -660c-3 -6 -8 -9 -15 -9zM258 439v-38c0 -57 -52 -100 -118 -100c-63 0 -115 43 -115 99c0 10 6 16 15 16h23c11 0 15 -8 15 -17c0 -31 31 -50 66 -50c28 0 62 22 62 50v42
c0 30 -30 52 -65 52h-92c-9 0 -15 7 -15 15v156c0 8 6 16 15 16h190c8 0 16 -7 16 -15v-14c0 -8 -8 -15 -16 -15h-145c-5 0 -9 -4 -9 -10v-80c0 -8 1 -9 9 -9h49c67 0 115 -41 115 -98zM588 234v44c0 33 -30 55 -65 55s-64 -22 -64 -55v-44c0 -32 29 -55 64 -55s65 23 65 55
zM588 96v59c-17 -12 -41 -20 -67 -20c-65 0 -116 43 -116 100v43c0 56 54 100 118 100c66 0 118 -43 118 -100v-181c0 -57 -52 -101 -119 -101c-63 0 -116 42 -116 97c0 9 7 16 15 16h23c8 0 16 -7 16 -16c0 -30 32 -48 58 -48c37 0 70 17 70 51z" />
    <glyph glyph-name="sevenninths" horiz-adv-x="668" 
d="M106 -6h-28c-11 0 -13 11 -8 21l377 660c3 5 8 9 14 9h28c11 0 14 -11 8 -21l-376 -660c-3 -6 -8 -9 -15 -9zM77 306h-28c-13 0 -17 12 -12 21l147 299c3 6 1 9 -4 9h-147c-8 0 -15 6 -15 15v14c0 8 6 16 15 16h199c9 0 16 -8 16 -15v-10c0 -6 -2 -11 -5 -18l-150 -322
c-3 -6 -10 -9 -16 -9zM588 234v44c0 33 -30 55 -65 55s-64 -22 -64 -55v-44c0 -32 29 -55 64 -55s65 23 65 55zM588 96v59c-17 -12 -41 -20 -67 -20c-65 0 -116 43 -116 100v43c0 56 54 100 118 100c66 0 118 -43 118 -100v-181c0 -57 -52 -101 -119 -101
c-63 0 -116 42 -116 97c0 9 7 16 15 16h23c8 0 16 -7 16 -16c0 -30 32 -48 58 -48c37 0 70 17 70 51z" />
    <glyph glyph-name="eightninths" horiz-adv-x="668" 
d="M156 -6h-28c-11 0 -13 11 -8 21l377 660c3 5 8 9 14 9h28c11 0 14 -11 8 -21l-376 -660c-3 -6 -8 -9 -15 -9zM260 424v-22c0 -58 -53 -100 -119 -100c-69 0 -117 44 -117 105v17c0 34 17 62 45 82c-25 17 -44 41 -44 75c0 59 50 103 117 103c65 0 116 -42 116 -100
c0 -35 -18 -59 -44 -78c30 -20 46 -46 46 -82zM206 581c0 35 -26 58 -65 58c-35 0 -63 -22 -63 -55c0 -34 26 -56 63 -56c36 0 65 21 65 53zM208 404v21c0 35 -28 58 -67 58c-38 0 -65 -24 -65 -58v-21c0 -34 27 -59 65 -59c39 0 67 25 67 59zM588 234v44
c0 33 -30 55 -65 55s-64 -22 -64 -55v-44c0 -32 29 -55 64 -55s65 23 65 55zM588 96v59c-17 -12 -41 -20 -67 -20c-65 0 -116 43 -116 100v43c0 56 54 100 118 100c66 0 118 -43 118 -100v-181c0 -57 -52 -101 -119 -101c-63 0 -116 42 -116 97c0 9 7 16 15 16h23
c8 0 16 -7 16 -16c0 -30 32 -48 58 -48c37 0 70 17 70 51z" />
    <glyph glyph-name="zeroinferior" unicode="&#x2080;" horiz-adv-x="284" 
d="M259 277v-181c0 -59 -52 -101 -118 -101c-64 0 -117 42 -117 101v181c0 59 53 101 118 101s117 -41 117 -101zM207 94v179c0 35 -26 61 -66 61c-35 0 -64 -22 -64 -55v-179c0 -34 25 -61 64 -61c36 0 66 23 66 55z" />
    <glyph glyph-name="oneinferior" unicode="&#x2081;" horiz-adv-x="284" 
d="M167 0h-22c-9 0 -15 7 -15 16v268c0 9 -3 10 -13 10h-42c-17 0 -17 19 -5 27l68 47c15 10 44 13 44 -10v-342c0 -9 -7 -16 -15 -16z" />
    <glyph glyph-name="twoinferior" unicode="&#x2082;" horiz-adv-x="284" 
d="M240 0h-199c-8 0 -15 7 -15 16v9c0 8 3 14 8 21l137 159c24 27 37 49 37 73c0 29 -31 51 -64 51c-30 0 -63 -21 -64 -50c0 -9 -7 -16 -15 -16h-24c-8 0 -15 7 -15 16c1 55 53 99 120 99c64 0 115 -41 115 -97c0 -39 -16 -67 -46 -100l-111 -124c-5 -6 -3 -13 5 -13h131
c9 0 16 -7 16 -15v-14c0 -9 -7 -15 -16 -15z" />
    <glyph glyph-name="threeinferior" unicode="&#x2083;" horiz-adv-x="284" 
d="M256 133v-33c0 -62 -52 -105 -120 -105c-67 0 -116 40 -116 102c0 8 7 16 15 16h22c8 0 16 -8 16 -16c0 -35 27 -58 64 -58s66 22 66 55v53c0 34 -26 57 -62 57c-6 0 -14 -2 -21 -4c-3 -1 -11 -4 -17 5l-9 13c-4 5 -4 13 1 19l80 84c5 5 3 9 -3 9h-137
c-10 0 -16 7 -16 16v13c0 8 7 15 15 15h201c8 0 15 -7 15 -16v-17c0 -6 -1 -8 -3 -11l-80 -80c-3 -3 -2 -6 2 -7c58 -11 87 -55 87 -110z" />
    <glyph glyph-name="fourinferior" unicode="&#x2084;" horiz-adv-x="284" 
d="M197 0h-20c-9 0 -15 7 -15 16v43c0 6 -3 8 -8 8h-123c-9 0 -16 7 -16 15v10c0 5 1 8 3 13l125 258c4 8 9 11 15 11h22c11 0 19 -10 13 -22l-118 -237c-2 -4 -1 -6 3 -6h76c5 0 8 2 8 8v44c0 8 6 16 15 16h20c9 0 16 -8 16 -16v-44c0 -6 3 -8 8 -8h28c8 0 13 -8 13 -16
v-11c0 -8 -5 -15 -13 -15h-28c-5 0 -8 -2 -8 -8v-43c0 -9 -7 -16 -16 -16z" />
    <glyph glyph-name="fiveinferior" unicode="&#x2085;" horiz-adv-x="284" 
d="M258 133v-38c0 -57 -52 -100 -118 -100c-63 0 -115 43 -115 99c0 10 6 16 15 16h23c11 0 15 -8 15 -17c0 -31 31 -50 66 -50c28 0 62 22 62 50v42c0 30 -30 52 -65 52h-92c-9 0 -15 7 -15 15v156c0 8 6 16 15 16h190c8 0 16 -7 16 -15v-14c0 -8 -8 -15 -16 -15h-145
c-5 0 -9 -4 -9 -10v-80c0 -8 1 -9 9 -9h49c67 0 115 -41 115 -98z" />
    <glyph glyph-name="sixinferior" unicode="&#x2086;" horiz-adv-x="284" 
d="M260 139v-42c0 -57 -54 -101 -118 -101c-66 0 -118 43 -118 101v181c0 56 53 100 119 100c63 0 116 -41 116 -97c0 -8 -7 -16 -15 -16h-22c-9 0 -16 8 -16 16c0 30 -32 49 -58 49c-37 0 -71 -18 -71 -51v-60c18 12 41 20 67 20c65 0 116 -43 116 -100zM207 96v44
c0 32 -29 55 -64 55c-36 0 -66 -23 -66 -55v-44c0 -33 30 -55 66 -55c35 0 64 22 64 55z" />
    <glyph glyph-name="seveninferior" unicode="&#x2087;" horiz-adv-x="284" 
d="M77 0h-28c-13 0 -17 12 -12 21l147 299c3 6 1 9 -4 9h-147c-8 0 -15 6 -15 15v14c0 8 6 16 15 16h199c9 0 16 -8 16 -15v-10c0 -6 -2 -11 -5 -18l-150 -322c-3 -6 -10 -9 -16 -9z" />
    <glyph glyph-name="eightinferior" unicode="&#x2088;" horiz-adv-x="284" 
d="M260 118v-22c0 -58 -53 -100 -119 -100c-69 0 -117 44 -117 105v17c0 34 17 62 45 82c-25 17 -44 41 -44 75c0 59 50 103 117 103c65 0 116 -42 116 -100c0 -35 -18 -59 -44 -78c30 -20 46 -46 46 -82zM206 275c0 35 -26 58 -65 58c-35 0 -63 -22 -63 -55
c0 -34 26 -56 63 -56c36 0 65 21 65 53zM208 98v21c0 35 -28 58 -67 58c-38 0 -65 -24 -65 -58v-21c0 -34 27 -59 65 -59c39 0 67 25 67 59z" />
    <glyph glyph-name="nineinferior" unicode="&#x2089;" horiz-adv-x="284" 
d="M204 234v44c0 33 -30 55 -65 55s-64 -22 -64 -55v-44c0 -32 29 -55 64 -55s65 23 65 55zM204 96v59c-17 -12 -41 -20 -67 -20c-65 0 -116 43 -116 100v43c0 56 54 100 118 100c66 0 118 -43 118 -100v-181c0 -57 -52 -101 -119 -101c-63 0 -116 42 -116 97
c0 9 7 16 15 16h23c8 0 16 -7 16 -16c0 -30 32 -48 58 -48c37 0 70 17 70 51z" />
    <glyph glyph-name="zero.numerator" horiz-adv-x="284" 
d="M259 698v-181c0 -59 -52 -101 -118 -101c-64 0 -117 42 -117 101v181c0 59 53 101 118 101s117 -41 117 -101zM207 515v179c0 35 -26 61 -66 61c-35 0 -64 -22 -64 -55v-179c0 -34 25 -61 64 -61c36 0 66 23 66 55z" />
    <glyph glyph-name="one.numerator" horiz-adv-x="284" 
d="M167 421h-22c-9 0 -15 7 -15 16v268c0 9 -3 10 -13 10h-42c-17 0 -17 19 -5 27l68 47c15 10 44 13 44 -10v-342c0 -9 -7 -16 -15 -16z" />
    <glyph glyph-name="two.numerator" horiz-adv-x="284" 
d="M240 421h-199c-8 0 -15 7 -15 16v9c0 8 3 14 8 21l137 159c24 27 37 49 37 73c0 29 -31 51 -64 51c-30 0 -63 -21 -64 -50c0 -9 -7 -16 -15 -16h-24c-8 0 -15 7 -15 16c1 55 53 99 120 99c64 0 115 -41 115 -97c0 -39 -16 -67 -46 -100l-111 -124c-5 -6 -3 -13 5 -13h131
c9 0 16 -7 16 -15v-14c0 -9 -7 -15 -16 -15z" />
    <glyph glyph-name="three.numerator" horiz-adv-x="284" 
d="M256 554v-33c0 -62 -52 -105 -120 -105c-67 0 -116 40 -116 102c0 8 7 16 15 16h22c8 0 16 -8 16 -16c0 -35 27 -58 64 -58s66 22 66 55v53c0 34 -26 57 -62 57c-6 0 -14 -2 -21 -4c-3 -1 -11 -4 -17 5l-9 13c-4 5 -4 13 1 19l80 84c5 5 3 9 -3 9h-137
c-10 0 -16 7 -16 16v13c0 8 7 15 15 15h201c8 0 15 -7 15 -16v-17c0 -6 -1 -8 -3 -11l-80 -80c-3 -3 -2 -6 2 -7c58 -11 87 -55 87 -110z" />
    <glyph glyph-name="four.numerator" horiz-adv-x="284" 
d="M197 421h-20c-9 0 -15 7 -15 16v43c0 6 -3 8 -8 8h-123c-9 0 -16 7 -16 15v10c0 5 1 8 3 13l125 258c4 8 9 11 15 11h22c11 0 19 -10 13 -22l-118 -237c-2 -4 -1 -6 3 -6h76c5 0 8 2 8 8v44c0 8 6 16 15 16h20c9 0 16 -8 16 -16v-44c0 -6 3 -8 8 -8h28c8 0 13 -8 13 -16
v-11c0 -8 -5 -15 -13 -15h-28c-5 0 -8 -2 -8 -8v-43c0 -9 -7 -16 -16 -16z" />
    <glyph glyph-name="five.numerator" horiz-adv-x="284" 
d="M258 554v-38c0 -57 -52 -100 -118 -100c-63 0 -115 43 -115 99c0 10 6 16 15 16h23c11 0 15 -8 15 -17c0 -31 31 -50 66 -50c28 0 62 22 62 50v42c0 30 -30 52 -65 52h-92c-9 0 -15 7 -15 15v156c0 8 6 16 15 16h190c8 0 16 -7 16 -15v-14c0 -8 -8 -15 -16 -15h-145
c-5 0 -9 -4 -9 -10v-80c0 -8 1 -9 9 -9h49c67 0 115 -41 115 -98z" />
    <glyph glyph-name="six.numerator" horiz-adv-x="284" 
d="M260 560v-42c0 -57 -54 -101 -118 -101c-66 0 -118 43 -118 101v181c0 56 53 100 119 100c63 0 116 -41 116 -97c0 -8 -7 -16 -15 -16h-22c-9 0 -16 8 -16 16c0 30 -32 49 -58 49c-37 0 -71 -18 -71 -51v-60c18 12 41 20 67 20c65 0 116 -43 116 -100zM207 517v44
c0 32 -29 55 -64 55c-36 0 -66 -23 -66 -55v-44c0 -33 30 -55 66 -55c35 0 64 22 64 55z" />
    <glyph glyph-name="seven.numerator" horiz-adv-x="284" 
d="M77 421h-28c-13 0 -17 12 -12 21l147 299c3 6 1 9 -4 9h-147c-8 0 -15 6 -15 15v14c0 8 6 16 15 16h199c9 0 16 -8 16 -15v-10c0 -6 -2 -11 -5 -18l-150 -322c-3 -6 -10 -9 -16 -9z" />
    </font>
</defs>
</svg>
